<?xml version="1.0" standalone="no"?>
<!DOCTYPE svg PUBLIC "-//W3C//DTD SVG 20010904//EN"
 "http://www.w3.org/TR/2001/REC-SVG-20010904/DTD/svg10.dtd">
<svg version="1.0" xmlns="http://www.w3.org/2000/svg"
 width="20736.000000pt" height="10368.000000pt" viewBox="0 0 20736.000000 10368.000000"
 preserveAspectRatio="xMidYMid meet">

<g transform="translate(0.000000,10368.000000) scale(0.100000,-0.100000)"
fill="#000000" stroke="none">
<path d="M0 51840 l0 -51840 49520 0 49519 0 -18 43 c-698 1612 -1492 2972
-2330 3992 -302 369 -751 837 -1121 1170 -1437 1294 -3056 2137 -4525 2355
-306 46 -748 71 -958 55 l-98 -7 -35 -70 c-157 -312 -479 -658 -856 -921 -426
-297 -1019 -561 -1578 -702 -452 -114 -911 -164 -1514 -165 l-229 0 -96 -87
c-144 -131 -436 -420 -585 -578 -704 -751 -1407 -1702 -2166 -2931 l-125 -201
-75 34 c-182 83 -646 284 -1014 438 -582 243 -724 298 -1511 583 -685 249
-823 300 -1100 407 -915 355 -1516 650 -2045 1006 -121 81 -168 121 -286 241
-1060 1077 -1653 2395 -1809 4018 -8 85 -20 278 -27 428 -7 149 -16 272 -21
272 -30 0 -717 -212 -1057 -327 -1571 -528 -2769 -1161 -3685 -1947 -164 -140
-533 -506 -659 -654 -133 -155 -276 -341 -379 -494 -51 -76 -94 -137 -97 -138
-3 0 -52 55 -110 123 -400 468 -773 867 -1134 1216 -948 915 -1795 1453 -2621
1665 -71 19 -147 37 -167 40 l-38 7 0 -133 c0 -501 -78 -1077 -210 -1568 -303
-1122 -967 -2075 -1975 -2832 -152 -114 -224 -163 -229 -157 -1 2 -397 1912
-880 4244 -482 2332 -882 4254 -887 4272 -6 18 -24 44 -42 59 -25 21 -38 25
-66 20 -43 -6 -91 -55 -91 -91 0 -14 277 -1363 615 -2998 339 -1634 740 -3570
891 -4300 151 -730 272 -1332 269 -1337 -8 -13 -349 -215 -510 -303 -166 -90
-494 -250 -690 -337 -77 -34 -273 -134 -435 -223 -462 -252 -879 -462 -2198
-1106 -706 -345 -1294 -651 -1692 -881 -69 -39 -128 -72 -131 -73 -8 -2 -340
292 -604 533 -586 536 -940 911 -1251 1322 -426 566 -733 1192 -1032 2108 -98
300 -190 616 -366 1256 -289 1052 -417 1462 -606 1934 -501 1255 -1153 2009
-2230 2580 -420 223 -773 368 -1855 765 -832 305 -1282 505 -1730 768 -862
505 -1448 1201 -1955 2322 -175 387 -315 745 -601 1538 -347 962 -514 1378
-720 1789 -227 453 -484 843 -742 1123 l-64 70 62 245 c35 135 129 504 209
820 80 316 211 832 291 1145 80 314 145 583 145 599 0 37 -58 96 -94 96 -44 0
-82 -26 -99 -67 -8 -21 -94 -353 -192 -738 -98 -385 -248 -978 -334 -1317
l-156 -617 -75 64 c-294 255 -658 461 -1040 590 -225 76 -616 174 -925 230
-199 36 -639 129 -790 166 -684 170 -1148 436 -1596 916 -390 417 -711 952
-1162 1938 -57 127 -153 336 -212 465 -119 260 -213 451 -285 580 -35 61 -50
100 -54 140 -50 456 -313 2830 -330 2985 -13 116 -22 212 -21 213 2 2 144 -28
317 -67 724 -163 1164 -249 2013 -396 493 -85 1396 -201 2060 -265 363 -34
977 -76 1260 -85 99 -4 194 -9 210 -11 55 -10 1487 -12 1745 -4 250 9 606 25
765 36 170 12 806 65 930 78 72 8 133 11 136 8 3 -4 20 -317 38 -697 17 -379
34 -724 36 -765 3 -41 10 -172 15 -290 16 -337 22 -465 25 -467 1 -2 292 31
646 72 354 41 748 86 874 100 185 21 244 32 300 54 67 26 74 32 148 127 206
263 379 560 511 877 326 784 412 1597 315 3007 -55 820 -77 1074 -89 1078 -33
11 -295 145 -385 197 -352 202 -646 428 -949 729 -763 759 -1335 1864 -1681
3248 -65 260 -65 258 -76 258 -22 0 -258 119 -361 183 -158 97 -285 196 -426
331 -481 466 -748 1070 -766 1738 -16 598 180 1171 561 1643 94 117 264 285
378 375 87 69 284 201 359 240 l47 25 -8 155 c-35 691 39 1496 198 2150 108
439 220 722 490 1233 340 643 623 1056 1088 1587 652 745 1179 1174 1649 1344
39 14 149 59 244 100 646 277 1364 432 2448 528 198 18 1022 18 1185 0 432
-47 780 -115 1135 -222 543 -165 1088 -442 1547 -787 990 -743 1800 -1916
2238 -3239 208 -629 342 -1323 385 -1994 18 -296 9 -950 -16 -1111 l-5 -36
128 -43 c407 -136 743 -342 1038 -636 713 -710 960 -1739 648 -2699 -191 -588
-595 -1099 -1129 -1427 -382 -235 -813 -365 -1271 -385 -119 -5 -153 -9 -153
-20 0 -20 58 -397 75 -483 14 -74 448 -2032 670 -3020 570 -2542 839 -3814
1050 -4965 37 -201 71 -363 78 -367 7 -4 59 -8 117 -8 l105 0 92 233 c267 679
680 1498 1018 2022 50 77 52 85 59 170 4 50 10 92 12 95 3 2 29 7 57 10 51 5
52 6 104 78 41 57 60 96 83 175 249 825 633 1630 1148 2402 606 909 1344 1690
2217 2348 162 122 523 371 599 414 16 9 9 49 -78 454 -581 2708 -1245 4816
-2119 6724 -134 293 -484 1001 -602 1220 -418 771 -890 1513 -1326 2085 l-88
115 -35 300 c-20 165 -50 440 -67 610 -35 350 -37 216 11 1260 77 1698 80
2747 10 3770 -79 1152 -274 2292 -544 3190 -24 78 -35 140 -40 215 -4 58 -9
134 -12 170 -2 36 -34 529 -69 1095 -36 567 -67 1059 -70 1095 -5 76 -7 105
-40 635 -14 220 -27 432 -30 470 -3 39 -35 534 -70 1100 -36 567 -67 1062 -70
1100 -6 83 -50 791 -65 1055 -18 306 -24 1059 -11 1305 26 484 80 868 177
1260 309 1248 1089 2395 2325 3420 364 302 644 509 1084 800 343 227 466 302
885 542 685 391 960 520 1317 619 235 64 341 79 588 78 214 0 246 -3 388 -39
l27 -7 0 75 0 74 98 28 c145 40 641 208 1127 380 486 172 512 182 685 242 69
25 208 74 309 111 l184 66 54 66 c69 83 224 306 307 441 670 1096 932 2527
786 4289 -11 129 -22 244 -25 255 -3 11 -29 38 -57 60 -104 79 -276 232 -427
380 -466 454 -886 1017 -1206 1618 -38 70 -71 127 -75 127 -4 0 -33 -9 -66
-20 -468 -162 -1103 -172 -1635 -26 -181 50 -300 96 -494 191 -911 447 -1517
1328 -1606 2335 -16 185 -6 516 20 685 47 293 130 560 255 820 287 595 761
1069 1348 1350 318 151 693 252 1042 279 66 5 68 5 63 -17 -10 -39 -36 -227
-51 -367 -103 -942 33 -1893 383 -2672 35 -78 47 -84 147 -75 310 29 489 272
573 782 41 245 55 461 71 1035 11 426 24 633 46 788 17 114 54 254 83 310 11
20 88 125 173 234 548 702 992 1407 1399 2222 87 175 159 316 159 313 0 -3
-11 -41 -24 -84 -122 -387 -260 -966 -336 -1408 -17 -99 -33 -193 -36 -209
l-6 -28 48 6 c196 25 1455 117 2004 146 1151 61 1633 76 2745 86 402 3 735 7
742 9 42 13 128 490 207 1145 14 119 26 187 31 175 72 -197 179 -358 610 -916
44 -57 114 -151 156 -209 145 -198 326 -360 728 -650 461 -332 670 -511 774
-664 60 -89 128 -319 161 -547 36 -240 54 -462 91 -1094 37 -630 62 -880 111
-1130 47 -235 93 -366 152 -429 131 -139 372 -140 500 -2 76 83 156 274 216
516 63 255 104 509 176 1086 29 237 48 353 74 451 60 225 78 381 80 673 0 140
-2 305 -7 367 l-7 111 87 -19 c357 -77 725 -241 1033 -459 329 -233 616 -544
822 -892 560 -947 526 -2142 -87 -3063 -189 -283 -456 -558 -735 -757 -306
-218 -691 -387 -1060 -466 -224 -48 -313 -57 -600 -57 -296 0 -357 6 -609 57
-92 18 -156 27 -158 21 -2 -5 -53 -97 -114 -204 -201 -352 -451 -713 -715
-1030 -152 -184 -561 -595 -729 -735 -550 -457 -1127 -779 -1775 -992 -318
-105 -648 -180 -950 -217 -74 -9 -160 -20 -190 -24 l-55 -7 130 -31 c72 -17
258 -57 415 -88 740 -146 1442 -227 2212 -257 l317 -12 5 -70 c3 -39 10 -138
16 -221 54 -790 242 -1540 546 -2186 263 -559 611 -1042 1059 -1470 203 -194
177 -179 577 -360 277 -125 502 -216 873 -351 132 -48 894 -288 914 -288 7 0
52 13 100 30 141 48 259 63 461 57 221 -7 395 -41 665 -131 479 -160 990 -433
1775 -950 96 -63 251 -164 344 -223 486 -311 793 -525 1032 -721 811 -664
1385 -1601 1741 -2841 l35 -123 -28 -28 c-16 -15 -115 -108 -219 -207 -284
-269 -635 -647 -926 -993 -956 -1141 -1592 -2339 -1798 -3385 -64 -327 -143
-1069 -251 -2365 -132 -1577 -202 -2197 -331 -2890 -17 -91 -36 -201 -44 -245
-38 -229 -172 -780 -280 -1145 -303 -1027 -700 -1936 -1186 -2717 -366 -587
-664 -981 -1499 -1984 -664 -796 -1082 -1323 -1269 -1599 -276 -407 -463 -835
-586 -1344 -82 -338 -115 -585 -150 -1110 l-4 -69 207 204 c293 289 506 478
812 720 1387 1099 2995 1748 4805 1939 446 47 598 54 1170 54 537 1 713 -5
1082 -38 135 -13 143 -15 179 -44 44 -36 32 -41 184 68 932 667 1592 1585
1941 2700 152 483 244 997 286 1591 l17 236 80 7 c45 3 122 6 171 6 107 0 500
24 745 45 385 34 952 112 1370 190 302 56 713 145 706 153 -2 2 -68 12 -147
22 -624 84 -1156 245 -1714 520 -220 108 -483 260 -638 369 -170 119 -196 138
-337 250 -650 517 -1198 1175 -1648 1981 -81 145 -58 136 -252 102 -480 -85
-976 -38 -1411 134 -497 195 -910 524 -1221 969 -219 315 -373 707 -434 1110
-26 169 -26 581 -1 745 47 301 133 566 273 840 82 161 127 231 257 402 337
440 834 771 1393 928 60 16 118 30 129 30 19 0 21 -12 38 -227 57 -756 180
-1464 359 -2063 103 -344 163 -434 337 -501 74 -29 213 -31 286 -5 72 27 146
77 189 130 59 71 215 436 321 748 141 415 220 779 260 1196 16 170 23 675 10
745 -7 33 -4 37 47 75 l53 39 7 -34 c21 -92 73 -148 174 -185 53 -19 85 -22
297 -26 780 -14 1529 149 2224 483 277 133 424 234 494 339 85 127 90 249 18
395 -124 251 -389 356 -854 336 -252 -10 -562 -41 -800 -80 -49 -8 -91 -13
-93 -11 -1 2 25 30 59 62 141 134 568 590 790 844 333 381 831 1024 1204 1555
170 241 543 793 647 958 l55 88 124 -168 c354 -481 934 -1210 1172 -1473 13
-14 79 -88 147 -165 428 -482 982 -1057 1348 -1397 57 -53 100 -98 95 -101 -4
-2 -35 -8 -68 -11 -92 -11 -347 -63 -475 -96 -476 -126 -833 -369 -1019 -695
-91 -158 -134 -371 -101 -490 31 -111 123 -175 280 -194 241 -31 767 1 1150
70 392 70 903 234 1238 397 121 60 115 59 175 11 28 -24 59 -50 68 -59 9 -8
88 -69 176 -135 l159 -120 22 -288 c82 -1034 206 -1797 383 -2347 46 -144 72
-192 128 -243 176 -159 470 -108 574 100 13 26 77 226 142 443 64 217 144 476
177 575 131 396 252 957 299 1387 l13 116 25 -8 c173 -53 261 -83 261 -89 0
-4 9 -7 20 -8 74 -6 431 -203 612 -339 569 -426 936 -1053 1035 -1765 20 -150
23 -499 4 -639 -67 -513 -247 -944 -559 -1340 -90 -114 -306 -332 -417 -420
-253 -201 -578 -369 -907 -469 -106 -32 -291 -68 -443 -86 -170 -21 -501 -16
-665 10 -58 9 -113 17 -123 18 -13 2 -35 -29 -85 -118 -226 -404 -507 -809
-797 -1150 -173 -203 -557 -584 -736 -729 l-147 -119 -5 -51 c-64 -551 -76
-1450 -26 -1981 17 -186 40 -374 60 -505 231 -1453 838 -2564 1844 -3376 66
-53 122 -99 125 -103 3 -3 268 -6 590 -6 931 -1 1555 -45 2390 -171 1571 -235
3016 -713 4303 -1420 425 -235 977 -590 1320 -851 31 -24 57 -40 57 -35 0 18
-88 305 -144 468 -147 431 -300 793 -541 1279 -322 650 -456 872 -1217 2020
-820 1238 -1161 1822 -1431 2456 -465 1088 -578 1881 -502 3534 8 176 19 433
26 570 14 328 15 1035 0 1250 -57 837 -207 1400 -566 2130 -246 500 -559 993
-1163 1830 -107 148 -380 530 -605 850 -659 932 -1046 1460 -1390 1895 -1056
1335 -2006 2211 -3045 2807 -959 550 -2108 895 -3211 964 -272 17 -836 7
-1076 -20 -618 -68 -1135 -204 -1703 -448 -46 -19 -85 -33 -87 -31 -3 2 104
274 236 604 609 1516 2438 6084 2488 6213 l56 144 135 100 c74 55 139 103 144
108 5 4 -13 42 -41 86 -91 141 -182 337 -250 538 -26 78 -101 460 -338 1740
-168 902 -308 1655 -311 1672 -7 38 9 34 -244 58 -462 43 -1089 180 -1615 353
-631 208 -1467 565 -2310 987 -259 129 -250 116 -206 318 60 277 102 570 132
927 6 74 13 396 15 715 3 517 2 576 -11 540 -8 -22 -159 -485 -335 -1030 -177
-544 -330 -1018 -341 -1052 -11 -35 -23 -63 -25 -63 -11 0 -712 237 -922 311
-708 252 -1947 740 -1957 773 -2 6 -16 151 -29 321 -170 2066 -36 3439 456
4679 179 451 451 936 857 1531 530 777 609 902 751 1188 188 376 301 730 351
1097 17 121 17 493 1 625 -31 244 -88 496 -162 710 -166 479 -200 639 -230
1070 -18 252 -24 1034 -11 1275 46 830 189 1441 470 2007 210 421 495 784 906
1152 266 238 542 450 1090 836 679 479 880 647 1606 1341 484 463 706 644
1029 837 477 285 1033 466 1643 534 212 23 676 24 882 0 487 -55 938 -179
1345 -369 201 -95 529 -290 627 -375 31 -27 32 -30 22 -68 -9 -38 -349 -3597
-349 -3659 0 -19 11 -39 35 -63 31 -31 40 -35 72 -30 59 10 83 42 94 128 29
221 340 3562 336 3609 -5 65 -16 55 175 171 148 90 485 261 653 331 804 336
1696 458 2565 352 452 -55 898 -185 1405 -409 413 -183 1332 -685 1690 -923
550 -366 1020 -829 1435 -1412 146 -205 278 -429 462 -783 281 -541 392 -709
620 -934 182 -181 431 -351 727 -498 212 -105 333 -158 701 -305 424 -170 558
-228 773 -335 515 -257 826 -522 1103 -940 301 -452 501 -1029 648 -1870 20
-110 65 -393 101 -629 159 -1036 273 -1484 504 -1970 165 -349 375 -631 833
-1124 127 -136 314 -350 403 -462 320 -400 547 -887 655 -1398 64 -306 65
-319 65 -1092 1 -488 5 -733 13 -795 54 -405 139 -660 302 -904 69 -103 196
-235 283 -295 l56 -39 -57 -40 c-71 -51 -351 -278 -577 -468 -413 -348 -495
-413 -711 -570 -1212 -879 -2308 -1546 -3610 -2197 l-241 -120 -898 1304
c-493 718 -899 1303 -901 1301 -2 -2 21 -97 51 -213 160 -622 626 -2421 631
-2435 6 -22 -4 -27 -421 -240 -617 -314 -997 -472 -1420 -592 -398 -114 -654
-151 -1020 -151 -254 0 -435 22 -670 80 -411 101 -792 272 -1548 693 -401 224
-742 407 -831 446 -47 21 -53 22 -50 7 2 -9 24 -132 48 -272 25 -140 50 -279
56 -308 l12 -52 41 30 c22 16 46 30 52 30 64 0 677 -578 1072 -1010 903 -988
1983 -2356 3089 -3910 215 -301 609 -864 719 -1025 69 -102 125 -168 260 -305
1167 -1191 2068 -2936 2759 -5349 42 -145 76 -268 76 -273 0 -6 49 -117 110
-248 410 -888 720 -1726 991 -2680 401 -1409 662 -2816 839 -4535 126 -1221
179 -2759 145 -4175 -13 -571 -14 -559 43 -980 404 -2977 703 -5924 811 -8015
48 -914 50 -1076 15 -1404 -101 -965 -490 -1876 -1117 -2610 -99 -115 -364
-385 -465 -472 l-62 -54 41 -65 c350 -549 738 -1287 1030 -1955 28 -65 97
-182 196 -332 954 -1453 2077 -3352 2903 -4908 165 -312 490 -949 490 -961 0
-5 -102 -60 -225 -123 -124 -63 -225 -118 -225 -123 0 -4 29 -56 63 -115 70
-117 318 -544 512 -878 521 -898 1302 -2280 1645 -2910 18 -33 99 -181 180
-330 154 -282 328 -606 422 -785 31 -58 76 -143 100 -190 43 -80 86 -163 270
-515 121 -230 537 -1063 655 -1310 223 -464 437 -937 558 -1230 381 -922 439
-1140 439 -1640 1 -358 -36 -575 -151 -900 -138 -391 -352 -725 -663 -1035
-414 -414 -913 -662 -1520 -757 -153 -23 -563 -23 -805 0 -93 9 -460 42 -815
72 -355 30 -750 64 -879 75 -128 12 -236 18 -239 15 -3 -2 -9 -58 -14 -122
-73 -994 -188 -1915 -410 -3275 l-11 -67 68 -158 c587 -1357 1245 -2093 2210
-2472 422 -166 901 -266 1610 -336 143 -14 283 -27 310 -30 28 -3 151 -14 275
-25 857 -74 1332 -156 1795 -311 673 -226 1193 -598 1669 -1193 249 -312 454
-643 701 -1131 200 -395 269 -550 657 -1465 902 -2129 1420 -2820 2748 -3665
102 -65 334 -210 515 -323 812 -503 1105 -717 1473 -1077 806 -786 1169 -1623
1017 -2340 -19 -92 -25 -149 -25 -247 l0 -128 40085 0 40085 0 0 51840 0
51840 -103680 0 -103680 0 0 -51840z m194185 44020 c195 -60 350 -211 423
-412 l27 -73 3 -2582 2 -2583 1440 0 c1007 0 1440 -3 1440 -11 0 -5 -4 -8 -8
-5 -5 3 -9 -1 -9 -8 0 -7 6 -13 13 -13 7 0 13 3 12 6 -2 23 5 29 35 26 17 -2
34 -4 37 -5 3 -1 9 -2 14 -1 5 1 4 -4 -2 -12 -7 -8 -8 -17 -4 -21 4 -4 2 -6
-4 -4 -7 1 -12 -1 -12 -7 0 -5 3 -9 7 -8 4 1 7 -14 7 -32 0 -18 -3 -33 -7 -32
-4 1 -7 -2 -7 -8 0 -5 5 -9 11 -7 6 2 6 -2 -1 -11 -10 -11 -9 -17 1 -26 8 -6
16 -9 19 -6 2 3 5 -2 5 -10 0 -13 -3 -13 -18 1 -17 16 -19 15 -28 -7 -9 -26
-5 -43 9 -34 5 3 7 13 4 23 -5 14 -4 14 4 2 7 -9 7 -19 2 -26 -6 -6 -6 -14 -2
-18 4 -4 7 -13 7 -19 1 -7 6 -11 11 -10 6 1 11 -5 11 -13 0 -12 -3 -12 -17 1
-15 13 -19 14 -29 1 -7 -9 -8 -17 -2 -20 5 -3 11 -3 14 1 2 5 3 3 1 -4 -1 -6
0 -14 4 -18 4 -4 7 -12 7 -18 1 -7 6 -11 11 -10 6 1 11 -5 11 -13 0 -12 -3
-12 -17 1 -15 13 -19 14 -29 1 -7 -9 -8 -17 -2 -20 5 -3 11 -3 14 1 2 5 3 3 1
-4 -1 -6 0 -14 4 -18 10 -10 10 -54 -1 -52 -13 3 -28 -41 -17 -48 9 -5 14 6
12 26 -1 3 5 6 13 6 11 0 11 -4 -1 -23 -11 -15 -12 -24 -4 -29 8 -5 8 -11 1
-19 -6 -7 -7 -16 -3 -20 4 -4 7 -13 7 -19 1 -7 6 -11 11 -10 6 1 11 -5 11 -13
0 -12 -3 -12 -17 1 -15 13 -19 14 -29 1 -7 -9 -8 -17 -2 -20 5 -3 11 -3 14 1
2 5 3 3 1 -4 -1 -6 0 -14 4 -18 10 -10 10 -54 -1 -52 -13 3 -28 -41 -17 -48 9
-5 14 6 12 26 -1 3 5 6 13 6 11 0 11 -4 -1 -23 -11 -15 -12 -24 -4 -29 8 -5 8
-11 1 -19 -6 -7 -7 -16 -3 -20 4 -4 7 -13 7 -19 1 -7 6 -11 11 -10 6 1 11 -5
11 -13 0 -12 -3 -12 -17 1 -15 13 -19 14 -29 1 -7 -9 -8 -17 -2 -20 5 -3 11
-3 14 1 2 5 3 3 1 -4 -1 -6 0 -14 4 -18 10 -10 10 -54 -1 -52 -13 3 -28 -41
-17 -48 9 -5 14 6 12 26 -1 3 5 6 13 6 11 0 11 -4 -1 -23 -11 -15 -12 -24 -4
-29 8 -5 8 -11 1 -19 -6 -7 -7 -16 -3 -20 4 -4 7 -13 7 -19 1 -7 6 -11 11 -10
6 1 11 -5 11 -13 0 -12 -3 -12 -17 1 -15 13 -19 14 -29 1 -7 -9 -8 -17 -2 -20
5 -3 11 -3 14 1 2 5 3 3 1 -4 -1 -6 0 -14 4 -18 10 -10 10 -54 -1 -52 -13 3
-28 -41 -17 -48 9 -5 14 6 12 26 -1 3 5 6 13 6 11 0 11 -4 -1 -23 -11 -15 -12
-24 -4 -29 8 -5 8 -11 1 -19 -6 -7 -9 -15 -7 -17 7 -7 -72 -7 -1586 -8 l-1408
-1 -2 -2552 -3 -2553 -22 -65 c-33 -95 -89 -186 -163 -260 -75 -75 -147 -120
-252 -158 -64 -23 -88 -26 -198 -26 -110 0 -134 3 -198 26 -105 38 -177 83
-252 158 -74 74 -130 165 -163 260 l-22 65 -3 2573 -2 2572 -2543 0 c-1752 0
-2562 3 -2603 11 -32 5 -101 30 -151 55 -157 75 -274 210 -334 384 -31 90 -32
285 -2 377 70 213 245 379 459 433 76 20 116 20 2645 20 l2569 0 2 2568 c3
2474 4 2569 22 2622 40 120 79 183 166 271 111 111 183 149 365 193 44 11 203
-3 270 -24z m3458 -5683 c-4 -7 -8 -15 -8 -19 0 -3 -3 -9 -7 -13 -5 -6 -4 19
2 35 1 3 2 9 1 13 -1 5 3 6 9 2 6 -3 7 -12 3 -18z m-8 -56 c3 -5 2 -12 -3 -15
-5 -3 -9 1 -9 9 0 17 3 19 12 6z m0 -40 c3 -5 2 -12 -3 -15 -5 -3 -9 1 -9 9 0
17 3 19 12 6z m-8 -386 c0 -8 -4 -12 -9 -9 -5 3 -6 10 -3 15 9 13 12 11 12 -6z
m0 -240 c0 -8 -4 -12 -9 -9 -5 3 -6 10 -3 15 9 13 12 11 12 -6z m0 -240 c0 -8
-4 -12 -9 -9 -5 3 -6 10 -3 15 9 13 12 11 12 -6z m0 -240 c0 -8 -4 -12 -9 -9
-5 3 -6 10 -3 15 9 13 12 11 12 -6z m-50742 -20155 c762 -55 1343 -251 1957
-662 598 -399 1078 -1017 1350 -1738 256 -681 308 -1553 138 -2315 -295 -1317
-1280 -2358 -2587 -2734 -777 -223 -1686 -198 -2431 69 -933 333 -1666 981
-2097 1855 -264 535 -385 1079 -385 1735 0 394 33 668 120 1020 180 719 606
1401 1175 1881 478 402 1064 685 1680 813 328 67 767 98 1080 76z m27210 -50
c726 -52 1344 -261 1867 -631 596 -423 1011 -989 1242 -1698 56 -170 116 -403
107 -414 -4 -4 -503 -6 -1110 -5 l-1103 3 -55 100 c-198 358 -509 607 -880
705 -228 60 -565 68 -788 19 -377 -84 -674 -290 -892 -621 -163 -247 -268
-564 -302 -912 -23 -232 -12 -560 25 -786 118 -706 544 -1212 1136 -1349 275
-64 641 -51 887 30 354 117 644 364 816 693 l50 96 1113 0 c1056 0 1113 -1
1108 -17 -3 -10 -21 -83 -42 -163 -167 -659 -492 -1215 -974 -1666 -257 -240
-614 -470 -950 -612 -719 -303 -1661 -384 -2480 -211 -1170 247 -2063 985
-2502 2069 -141 347 -227 699 -275 1122 -24 216 -24 771 0 986 83 731 317
1362 700 1882 535 727 1350 1200 2318 1345 274 41 687 56 984 35z m-39736
-2315 c389 -1237 765 -2436 837 -2662 71 -227 131 -413 135 -413 3 0 364 1149
802 2553 439 1403 813 2603 832 2665 l36 112 1099 0 c605 0 1100 -2 1100 -3 0
-3 -655 -1905 -2328 -6759 l-226 -658 -1318 0 c-875 0 -1319 3 -1323 10 -6 9
-2551 7353 -2562 7393 -5 16 50 17 1102 15 l1108 -3 706 -2250z m7541 -1455
l0 -3710 -1030 0 -1030 0 0 3710 0 3710 1030 0 1030 0 0 -3710z m11520 790 l0
-2920 1150 0 1150 0 0 -790 0 -790 -2185 0 -2185 0 0 3710 0 3710 1035 0 1035
0 0 -2920z m7840 2095 l0 -825 -1340 0 -1340 0 0 -605 0 -605 1185 0 1185 0 0
-785 0 -785 -1185 0 -1185 0 0 -665 0 -665 1340 0 1340 0 0 -830 0 -830 -2372
2 -2373 3 -3 3695 c-1 2032 0 3701 3 3708 3 9 488 12 2375 12 l2370 0 0 -825z
m3438 280 c194 -297 808 -1237 1365 -2088 l1012 -1549 3 2091 2 2091 1035 0
1035 0 0 -3710 0 -3710 -1032 0 -1033 0 -1002 1513 c-551 831 -1167 1762
-1370 2068 l-368 557 -3 -2069 -2 -2069 -1030 0 -1030 0 0 3710 0 3710 1032
-2 1032 -3 354 -540z m18342 -280 l0 -825 -1340 0 -1340 0 0 -605 0 -605 1180
0 1180 0 0 -785 0 -785 -1180 0 -1180 0 0 -665 0 -665 1340 0 1340 0 0 -830 0
-830 -2375 0 -2375 0 0 3710 0 3710 2375 0 2375 0 0 -825z m-132346 -2022
c119 -1175 307 -2435 517 -3463 126 -616 360 -1576 466 -1909 3 -9 -20 25 -50
76 -110 184 -238 323 -425 463 -227 168 -520 285 -674 267 -58 -7 -139 -41
-167 -70 -30 -33 -60 -107 -67 -168 -26 -227 194 -733 500 -1147 251 -339 610
-676 918 -861 217 -130 341 -142 407 -38 l25 38 28 -78 c164 -450 456 -1146
656 -1566 l71 -148 90 46 c296 148 644 244 1002 276 178 16 504 6 674 -20 594
-90 1139 -361 1569 -780 253 -247 431 -493 581 -805 188 -387 272 -740 282
-1181 6 -256 -8 -424 -52 -639 -167 -823 -694 -1537 -1431 -1939 -343 -186
-692 -295 -1084 -337 -255 -28 -649 -6 -897 49 -378 85 -753 248 -1035 452
-37 27 -70 49 -73 49 -3 0 -5 -25 -5 -56 0 -45 -12 -87 -56 -203 -392 -1016
-628 -2146 -749 -3576 -21 -258 -44 -630 -50 -850 -4 -104 -8 -203 -10 -220
-3 -16 -7 -226 -11 -465 -4 -239 -7 -436 -8 -437 -6 -8 -101 -12 -376 -18
-173 -4 -323 -9 -334 -11 -38 -7 -1001 -19 -1531 -19 -469 0 -926 11 -1225 30
-41 3 -138 7 -215 10 -77 3 -184 8 -237 10 -54 3 -142 7 -195 10 -54 2 -147 7
-208 10 -60 3 -195 10 -300 15 -104 6 -368 19 -585 30 -543 27 -766 39 -825
45 -27 2 -161 10 -297 16 l-248 12 -1 331 c0 182 -2 369 -4 416 -2 47 -6 483
-9 970 -13 1865 -18 2558 -21 2655 -2 55 -3 294 -4 531 l-1 431 -172 86 c-484
240 -863 511 -1228 877 -762 762 -1172 1652 -1296 2814 -21 199 -30 738 -15
966 73 1129 403 2331 996 3625 569 1241 1362 2490 2220 3495 120 141 130 150
179 164 28 7 150 41 271 75 1063 293 2467 805 4295 1565 217 90 400 165 406
165 7 1 14 -26 18 -66z m105626 -11777 c764 -93 1337 -342 1755 -763 371 -373
584 -880 617 -1465 l3 -48 -1121 0 -1121 0 -6 68 c-14 172 -68 295 -176 403
-86 87 -190 143 -321 175 -102 25 -282 25 -365 0 -230 -69 -355 -242 -355
-491 0 -153 50 -264 167 -376 189 -179 416 -288 1128 -543 640 -228 1034 -398
1295 -560 113 -69 289 -205 388 -300 426 -406 599 -834 579 -1431 -12 -352
-78 -624 -222 -920 -322 -662 -1005 -1129 -1865 -1275 -233 -39 -326 -45 -710
-45 -332 1 -394 3 -545 23 -448 60 -783 158 -1124 328 -668 332 -1077 826
-1242 1499 -29 118 -62 329 -72 453 l-5 62 1104 0 1104 0 0 -37 c0 -65 47
-248 83 -325 67 -143 154 -231 292 -298 122 -59 195 -74 370 -74 174 -1 235
12 362 74 88 44 162 107 208 179 67 107 91 260 61 394 -70 312 -294 450 -1261
777 -592 200 -1101 413 -1335 557 -254 157 -514 407 -684 656 -121 178 -206
406 -251 677 -23 131 -31 493 -16 646 66 642 375 1157 911 1515 118 79 397
220 540 272 293 108 588 171 970 207 150 14 703 5 860 -14z m38225 -5 c631
-76 1130 -269 1535 -591 160 -128 342 -327 448 -490 203 -313 330 -723 354
-1142 l3 -48 -1121 0 -1121 0 -7 72 c-16 174 -67 291 -175 399 -86 87 -190
143 -321 175 -102 25 -282 25 -365 0 -242 -72 -364 -254 -353 -523 4 -96 7
-109 46 -185 75 -153 254 -297 518 -419 130 -60 436 -179 704 -274 508 -180
789 -294 1080 -440 204 -102 266 -140 417 -252 271 -202 508 -477 628 -728
119 -250 174 -550 162 -884 -13 -351 -79 -625 -222 -916 -212 -433 -570 -781
-1040 -1010 -314 -153 -605 -239 -985 -291 -193 -26 -705 -31 -941 -9 -521 48
-909 153 -1302 352 -398 202 -703 464 -920 793 -211 320 -330 690 -371 1153
l-5 57 1105 0 1104 0 0 -37 c0 -65 47 -248 83 -325 67 -143 154 -231 292 -298
122 -59 195 -74 370 -74 127 -1 162 3 230 22 151 44 274 127 340 232 67 106
91 259 61 393 -69 311 -292 448 -1248 773 -526 178 -877 318 -1180 470 -203
102 -368 217 -526 368 -298 286 -464 555 -543 887 -39 164 -51 265 -56 480 -8
323 18 535 98 786 277 870 1110 1430 2289 1538 216 20 715 13 935 -14z
m-64675 -21 c483 -30 935 -128 1320 -287 250 -103 563 -288 775 -458 124 -99
348 -322 438 -435 298 -374 472 -757 592 -1307 l5 -23 -1112 0 -1113 1 -35 56
c-49 79 -181 216 -275 286 -97 73 -288 167 -408 201 -177 51 -255 60 -507 61
-202 0 -251 -4 -353 -23 -444 -84 -767 -300 -1011 -675 -196 -300 -296 -693
-296 -1167 0 -1092 489 -1751 1415 -1904 224 -38 580 -45 755 -16 542 89 923
362 1184 849 l54 101 -1034 0 -1034 0 0 745 0 745 1925 0 1925 0 0 -1005 0
-1005 -59 -127 c-162 -350 -390 -686 -673 -991 -380 -412 -955 -777 -1508
-959 -366 -121 -715 -179 -1140 -190 -479 -12 -917 38 -1315 148 -968 269
-1733 886 -2170 1749 -229 453 -355 906 -406 1460 -16 175 -16 647 0 820 97
1047 516 1895 1238 2511 719 613 1709 907 2823 839z m42250 -15 c308 -33 504
-71 765 -146 743 -215 1372 -668 1753 -1264 180 -282 322 -627 393 -957 11
-51 22 -101 25 -110 5 -17 -52 -18 -1108 -18 l-1113 0 -33 55 c-45 75 -179
214 -275 286 -100 74 -294 171 -410 203 -179 52 -255 60 -512 60 -266 1 -369
-13 -565 -76 -384 -123 -693 -395 -879 -773 -143 -290 -198 -534 -208 -920
-12 -481 53 -834 213 -1160 150 -305 371 -527 669 -674 250 -124 524 -185 875
-198 432 -15 776 72 1080 272 114 75 321 287 409 419 61 92 151 253 151 271 0
3 -463 5 -1030 5 l-1030 0 0 745 0 745 1925 0 1925 0 0 -1008 0 -1008 -99
-200 c-275 -550 -667 -1017 -1138 -1355 -247 -178 -646 -390 -908 -484 -420
-151 -873 -225 -1375 -225 -980 1 -1796 269 -2475 815 -600 482 -1034 1215
-1201 2030 -65 314 -88 561 -88 925 0 370 24 622 89 933 158 751 537 1427
1070 1910 576 520 1331 837 2160 906 72 6 148 13 170 15 92 9 639 -4 775 -19z
m-48988 -1285 c1581 -4352 2231 -6144 2235 -6161 5 -19 -19 -19 -1084 -19
l-1089 0 -200 605 -199 605 -1313 -2 -1313 -3 -198 -600 -197 -600 -1087 -3
-1086 -2 13 37 c15 42 2342 6431 2648 7271 l41 112 1190 -2 1190 -3 449 -1235z
m15608 800 c86 -239 690 -1900 1340 -3690 650 -1790 1185 -3263 1187 -3272 5
-17 -51 -18 -1084 -18 l-1089 0 -200 603 -200 602 -1314 0 -1314 0 -197 -600
-197 -600 -1087 -3 c-1033 -2 -1087 -1 -1080 15 4 10 289 794 635 1743 345
949 946 2598 1335 3665 389 1067 712 1952 717 1968 l10 27 1190 -2 1190 -3
158 -435z m5268 -3272 l2 -3708 -1035 0 -1035 0 0 3710 0 3710 1033 -2 1032
-3 3 -3707z m4593 1632 c746 -1141 1364 -2084 1372 -2095 15 -18 16 172 17
2078 l0 2097 1030 0 1030 0 0 -3710 0 -3710 -1032 0 -1033 0 -200 303 c-110
166 -725 1094 -1365 2061 l-1165 1760 -3 -2062 -2 -2062 -1035 0 -1035 0 0
3710 0 3710 1033 -2 1032 -3 1356 -2075z m16729 1255 l0 -825 -990 0 -990 0 0
-2885 0 -2885 -1030 0 -1030 0 0 2885 0 2885 -977 2 -978 3 -3 810 c-1 446 0
816 3 823 3 9 613 12 3000 12 l2995 0 0 -825z m12798 -2887 l2 -3708 -1035 0
-1035 0 0 3710 0 3710 1033 -2 1032 -3 3 -3707z m4902 3684 c692 -90 1137
-272 1560 -638 508 -440 781 -1169 719 -1921 -75 -914 -627 -1609 -1514 -1906
-55 -19 -99 -37 -99 -41 1 -4 374 -652 829 -1439 456 -788 830 -1435 832
-1439 2 -5 -515 -8 -1149 -8 l-1153 1 -735 1364 -735 1365 -107 0 -108 0 0
-1365 0 -1365 -1035 0 -1035 0 0 3710 0 3711 1783 -4 c1753 -3 1785 -4 1947
-25z m5288 -2894 l2 -2918 1150 0 1150 0 0 -790 0 -790 -2185 0 -2185 0 0
3710 0 3710 1033 -2 1032 -3 3 -2917z m-58523 -11708 c483 -51 921 -185 1263
-386 538 -317 879 -762 1028 -1340 35 -139 71 -361 76 -479 l3 -70 -1120 0
-1120 0 -7 74 c-21 210 -98 354 -247 464 -113 84 -270 128 -450 128 -117 0
-179 -15 -275 -63 -223 -112 -312 -426 -193 -678 56 -120 233 -266 451 -373
193 -94 407 -178 936 -365 486 -172 928 -368 1163 -516 207 -130 435 -332 584
-516 257 -319 373 -669 373 -1126 0 -794 -351 -1442 -1015 -1872 -527 -342
-1199 -495 -1990 -453 -572 30 -1020 137 -1450 346 -664 323 -1097 844 -1255
1510 -34 143 -48 229 -64 393 l-12 122 1101 0 1101 0 12 -89 c23 -170 87 -329
174 -433 48 -57 166 -138 245 -168 168 -63 407 -69 578 -14 81 26 184 84 240
135 207 190 188 581 -39 773 -166 141 -429 257 -1116 491 -451 154 -873 321
-1101 435 -264 133 -453 273 -659 486 -348 362 -490 713 -507 1260 -19 628
140 1096 516 1519 393 441 1055 738 1809 810 238 23 248 23 522 19 163 -2 323
-11 445 -24z m13665 15 c638 -55 1164 -221 1685 -533 632 -379 1122 -931 1438
-1622 165 -362 273 -778 318 -1235 18 -178 15 -647 -5 -837 -59 -563 -214
-1050 -482 -1514 -542 -939 -1456 -1581 -2543 -1784 -753 -141 -1606 -55
-2271 227 -830 353 -1483 961 -1885 1754 -268 529 -396 1092 -397 1749 0 497
63 898 207 1318 419 1221 1441 2118 2736 2401 377 82 812 110 1199 76z m14125
-9 c375 -46 648 -107 900 -203 648 -247 1114 -679 1339 -1241 95 -236 146
-464 172 -764 l6 -78 -1120 0 -1120 0 -6 23 c-3 12 -6 36 -6 54 0 54 -29 173
-57 235 -75 169 -225 287 -428 338 -104 26 -294 28 -375 4 -121 -36 -232 -118
-287 -212 -86 -147 -93 -359 -16 -512 60 -122 218 -255 431 -363 135 -69 487
-210 792 -317 785 -275 1255 -497 1545 -728 168 -135 369 -351 471 -507 114
-175 193 -378 236 -603 20 -103 23 -149 23 -382 0 -212 -4 -287 -18 -375 -79
-470 -271 -850 -592 -1171 -544 -544 -1313 -808 -2270 -780 -635 19 -1128 131
-1587 361 -762 382 -1189 982 -1293 1816 -8 68 -15 140 -15 161 l0 38 1099 0
1098 0 16 -105 c32 -203 88 -326 202 -441 119 -120 251 -178 445 -192 366 -29
645 123 715 389 19 71 19 210 0 284 -20 77 -68 166 -123 226 -126 141 -452
294 -1067 502 -802 272 -1243 464 -1519 662 -221 158 -422 362 -565 573 -216
320 -314 792 -270 1297 49 571 293 1042 724 1403 399 335 1001 559 1640 612
72 5 150 12 175 14 104 9 582 -4 705 -18z m-18785 -916 l0 -820 -985 0 -985 0
0 -2885 0 -2885 -1035 0 -1035 0 0 2885 0 2885 -975 0 -975 0 0 820 0 820
2995 0 2995 0 0 -820z m12635 797 c397 -53 690 -136 973 -274 485 -238 831
-577 1047 -1025 129 -269 202 -541 236 -882 16 -167 6 -514 -20 -676 -60 -375
-207 -738 -409 -1015 -364 -498 -966 -849 -1647 -959 -293 -48 -302 -49 -1017
-53 l-688 -5 0 -1249 0 -1249 -1035 0 -1035 0 0 3705 0 3706 1733 -4 c1577 -2
1744 -4 1862 -20z m13685 -1372 l0 -1395 1255 0 1255 0 0 1395 0 1395 1035 0
1035 0 0 -3705 0 -3705 -1035 0 -1035 0 0 1485 0 1485 -1255 0 -1255 0 0
-1485 0 -1485 -1030 0 -1030 0 0 3705 0 3705 1030 0 1030 0 0 -1395z m10500
570 l0 -825 -1345 0 -1345 0 2 -602 3 -603 1183 -3 1182 -2 0 -785 0 -785
-1185 0 -1185 0 0 -665 0 -665 1345 0 1345 0 0 -825 0 -825 -2375 0 -2375 0 0
3705 0 3705 2375 0 2375 0 0 -825z m4681 810 c407 -38 762 -131 1064 -280 269
-132 451 -260 641 -449 176 -177 284 -327 397 -552 277 -553 322 -1271 117
-1859 -121 -347 -339 -666 -615 -901 -212 -180 -511 -343 -802 -439 -77 -25
-82 -28 -72 -47 8 -15 1632 -2821 1656 -2860 2 -5 -515 -8 -1149 -8 l-1154 0
-734 1365 -735 1364 -107 1 -108 0 0 -1365 0 -1365 -1035 0 -1035 0 0 3705 0
3705 1753 0 c1491 0 1778 -2 1918 -15z m8029 -810 l0 -825 -1340 0 -1340 0 0
-605 0 -605 1180 0 1180 0 0 -785 0 -785 -1180 0 -1180 0 0 -665 0 -665 1340
0 1340 0 0 -825 0 -825 -2375 0 -2375 0 0 3705 0 3705 2375 0 2375 0 0 -825z"/>
<path d="M197542 90180 c3 -21 -1 -25 -23 -24 -16 1 -26 -4 -26 -13 0 -9 4
-10 11 -3 19 19 29 10 11 -10 -10 -11 -21 -18 -25 -15 -4 2 -7 -2 -7 -10 0 -8
4 -12 8 -10 10 7 30 -20 21 -29 -4 -4 -7 -13 -7 -19 0 -7 -9 -11 -20 -9 -19 2
-19 2 -2 -8 9 -6 15 -15 12 -19 -2 -5 2 -14 10 -21 12 -10 13 -16 4 -27 -10
-11 -15 -11 -33 4 -12 10 -6 2 12 -18 29 -31 31 -37 18 -48 -9 -7 -14 -18 -13
-24 1 -7 -4 -11 -11 -9 -9 2 -11 -2 -5 -10 4 -7 8 -16 9 -20 1 -5 3 -10 4 -13
1 -3 3 -13 4 -22 1 -10 6 -25 11 -33 14 -22 13 -33 -4 -53 -9 -10 -11 -17 -6
-15 6 2 10 -1 10 -7 0 -5 -4 -8 -10 -7 -5 2 -7 0 -3 -4 4 -4 3 -13 -4 -21 -7
-9 -8 -13 -1 -11 6 2 12 -1 13 -7 1 -5 6 -15 11 -22 7 -7 7 -13 0 -17 -5 -3
-12 0 -15 6 -2 7 -4 3 -2 -9 1 -11 6 -27 12 -35 12 -16 12 -28 -1 -48 -5 -8
-10 -22 -10 -30 0 -8 -4 -21 -8 -28 -5 -7 -4 -11 1 -10 6 2 10 -1 10 -7 0 -5
-5 -9 -11 -7 -6 2 -4 -5 6 -16 15 -16 15 -21 4 -30 -8 -7 -18 -8 -23 -4 -5 4
0 -3 10 -15 11 -13 15 -23 11 -23 -4 0 -1 -8 8 -17 18 -21 19 -33 4 -52 -7 -8
-12 -21 -12 -30 0 -9 -4 -22 -8 -29 -5 -7 -5 -11 0 -10 4 2 8 -1 8 -7 0 -5 -4
-9 -10 -7 -5 2 -2 -5 8 -16 15 -16 15 -21 4 -30 -8 -7 -18 -8 -23 -4 -5 4 0
-3 10 -15 11 -13 15 -23 11 -23 -4 0 -1 -8 8 -17 23 -26 23 -28 7 -48 -8 -10
-15 -25 -15 -34 0 -9 -4 -22 -8 -29 -5 -7 -5 -11 0 -10 4 2 8 -1 8 -7 0 -5 -4
-9 -10 -7 -5 2 -2 -5 8 -15 11 -13 29 -19 52 -18 47 1 61 16 36 39 -20 18 -19
37 3 65 17 21 15 39 -5 57 -19 17 -19 18 2 40 14 15 17 24 9 29 -8 5 -8 11 -1
19 8 9 6 18 -8 30 -20 18 -19 37 3 65 17 21 15 39 -5 57 -19 17 -19 18 2 40
14 15 17 24 9 29 -8 5 -8 11 -1 19 8 9 6 18 -8 30 -20 18 -19 37 3 65 17 21
15 39 -5 57 -19 17 -19 18 2 40 14 15 17 24 9 29 -8 5 -8 11 -1 19 8 9 6 18
-8 30 -20 18 -19 39 5 66 17 21 16 32 -7 56 -19 20 -19 21 1 39 l20 18 -20 22
-20 22 20 18 c20 18 20 19 1 39 -15 17 -17 26 -8 46 15 37 16 49 6 56 -6 3 -5
12 3 21 18 22 18 40 2 54 -13 10 -12 14 1 29 11 12 13 20 6 25 -6 3 -11 2 -11
-2 0 -5 -7 -18 -16 -29 -8 -10 -13 -13 -9 -7 3 7 1 21 -5 30 -9 16 -10 15 -8
-7z m31 -46 c-1 -5 4 -15 10 -22 8 -10 7 -12 -2 -10 -16 4 -24 -29 -10 -38 6
-3 5 -11 -2 -20 -6 -8 -9 -14 -5 -14 3 0 1 -11 -4 -24 -6 -18 -5 -28 5 -36 15
-13 14 -32 -3 -53 -10 -11 -9 -17 2 -26 17 -14 15 -33 -3 -55 -12 -14 -11 -19
5 -31 10 -8 15 -15 10 -15 -5 0 -3 -7 4 -16 8 -8 9 -14 4 -12 -5 2 -11 -1 -13
-7 -2 -5 -7 -20 -12 -32 -5 -14 -4 -25 5 -32 16 -13 15 -76 -2 -93 -9 -9 -8
-16 5 -30 9 -10 13 -18 8 -18 -4 0 -2 -7 5 -16 8 -8 9 -14 3 -12 -6 2 -11 1
-11 -2 0 -3 -5 -17 -11 -31 -7 -19 -6 -30 2 -38 16 -16 16 -79 0 -93 -11 -9
-11 -14 3 -29 10 -11 14 -19 9 -19 -4 0 -2 -7 5 -16 8 -8 9 -14 4 -12 -5 2
-11 -1 -13 -7 -2 -5 -7 -20 -11 -31 -5 -13 -4 -26 3 -33 16 -16 16 -79 0 -93
-11 -9 -11 -14 3 -29 10 -11 14 -19 9 -19 -4 0 -2 -7 5 -16 8 -8 9 -14 4 -12
-5 2 -10 1 -11 -2 -1 -3 -6 -17 -12 -31 -7 -19 -6 -30 2 -38 24 -24 15 -37
-22 -35 -47 2 -45 2 -32 18 7 8 8 17 3 20 -11 7 -9 46 3 66 15 23 14 38 -1 51
-15 12 -9 33 7 23 5 -3 6 -11 2 -17 -4 -7 0 -6 10 2 18 14 23 26 8 16 -5 -3
-13 0 -17 6 -5 8 -1 10 13 7 15 -4 20 -1 19 16 -1 11 -4 26 -8 31 -3 6 -4 18
-3 28 2 9 -1 14 -7 11 -5 -3 -4 3 4 15 11 18 10 23 -6 38 -10 10 -16 13 -12 6
3 -6 2 -15 -4 -18 -7 -4 -7 -11 -2 -18 5 -7 8 -29 7 -49 -1 -20 2 -35 6 -32 4
2 11 -1 15 -7 5 -9 0 -10 -14 -7 -12 4 -20 2 -17 -2 3 -5 1 -11 -4 -14 -17
-11 -22 11 -6 24 11 9 12 16 5 25 -8 9 -8 15 0 20 6 4 7 12 2 18 -11 15 -9 48
3 67 15 23 14 38 -1 51 -15 12 -9 33 7 23 5 -3 7 -10 4 -15 -10 -15 2 -10 16
8 8 10 9 14 2 10 -6 -4 -15 -2 -19 4 -5 8 -1 10 13 7 15 -4 20 -1 19 16 -1 11
-4 26 -8 31 -3 6 -4 18 -3 28 2 9 -1 14 -7 11 -5 -3 -4 3 4 15 11 18 10 23 -6
38 -10 10 -16 13 -12 6 3 -6 2 -15 -4 -18 -7 -4 -7 -11 -2 -18 5 -7 8 -29 7
-49 -1 -20 2 -35 6 -32 4 2 11 -1 15 -7 5 -9 0 -10 -14 -7 -12 4 -20 2 -17 -2
3 -5 1 -11 -4 -14 -17 -11 -22 11 -6 24 11 9 12 16 5 25 -8 9 -8 15 0 20 6 3
7 12 3 18 -13 20 -10 51 6 71 17 20 17 23 -5 47 -13 14 -13 18 1 29 8 7 21 10
28 7 19 -7 16 39 -4 58 -13 14 -15 13 -15 -9 0 -14 3 -23 7 -20 4 2 11 -1 14
-7 5 -7 1 -10 -9 -7 -10 1 -16 6 -14 9 2 3 -3 13 -10 21 -10 13 -9 18 3 28 11
9 12 16 5 25 -7 8 -7 15 -1 19 11 7 9 25 -4 46 -13 21 -15 40 -4 40 8 0 13
-13 11 -31 -1 -3 5 -6 13 -6 8 0 11 5 8 10 -4 6 -1 7 6 2 10 -6 11 -3 3 11 -6
11 -9 34 -7 51 1 21 -1 30 -8 26 -5 -3 -7 -1 -3 5 3 6 1 14 -5 18 -7 4 -9 3
-5 -4 3 -6 2 -13 -3 -16 -17 -11 -21 11 -6 24 14 12 14 15 0 30 -14 15 -14 18
0 30 14 12 14 15 -1 31 -16 18 -16 19 2 20 17 1 17 2 1 6 -9 2 -15 9 -12 13 3
5 15 6 29 0 17 -6 23 -5 23 5 0 8 -4 12 -9 9 -5 -3 -16 -3 -25 0 -12 5 -13 9
-4 20 9 10 7 16 -4 26 -14 12 -13 15 5 35 21 22 57 28 53 9z m-38 -306 l2 -35
-21 21 c-30 30 -30 56 1 52 12 -2 17 -13 18 -38z m5 -344 c0 -8 -5 -12 -10 -9
-6 4 -8 11 -5 16 9 14 15 11 15 -7z m0 -240 c0 -8 -5 -12 -10 -9 -6 4 -8 11
-5 16 9 14 15 11 15 -7z"/>
<path d="M197532 90126 c-11 -18 -11 -35 -1 -42 6 -4 6 -10 0 -18 -7 -9 -4
-12 14 -12 15 0 21 4 16 11 -6 9 -7 30 -1 38 1 1 3 9 5 18 3 18 -22 22 -33 5z
m19 -20 c-6 -7 -7 -17 -3 -21 4 -5 2 -5 -5 -2 -9 6 -10 18 -4 45 1 2 6 0 11
-3 8 -5 8 -11 1 -19z"/>
<path d="M197540 90004 c0 -9 -5 -12 -12 -8 -10 6 -10 4 0 -8 8 -10 9 -19 3
-22 -10 -7 -9 -25 2 -43 5 -7 5 -13 1 -13 -4 0 0 -8 8 -17 9 -10 14 -26 13
-36 -2 -11 -1 -16 3 -13 12 12 10 35 -4 47 -11 9 -12 15 -2 26 17 21 18 40 3
53 -7 6 -11 20 -8 30 3 11 3 20 -1 20 -3 0 -6 -7 -6 -16z m16 -59 c-1 -9 -6
-15 -12 -15 -9 0 -13 19 -6 33 6 12 20 -2 18 -18z"/>
<path d="M197555 89770 c-4 -6 -10 -8 -15 -5 -4 3 -6 -9 -3 -26 3 -24 2 -29
-9 -23 -10 6 -11 5 -1 -8 7 -8 11 -17 8 -20 -3 -3 4 -13 14 -22 17 -16 19 -16
17 -2 -1 9 -7 21 -13 27 -8 8 -8 20 -3 35 5 13 7 24 4 24 -4 0 -1 7 6 15 7 8
10 15 7 15 -3 0 -9 -5 -12 -10z"/>
<path d="M197524 89586 c1 -6 4 -15 7 -21 4 -5 5 -18 4 -27 -2 -9 3 -23 12
-29 8 -7 13 -8 12 -3 -1 5 0 11 1 14 8 22 6 41 -6 51 -8 6 -12 15 -9 18 2 4
-2 8 -9 8 -8 0 -13 -5 -12 -11z m32 -41 c-1 -8 -5 -17 -8 -21 -4 -3 -5 2 -4
13 2 10 -2 25 -8 33 -9 13 -9 13 6 2 9 -7 15 -19 14 -27z"/>
<path d="M197554 89436 c1 -8 5 -18 8 -22 4 -3 5 1 4 10 -1 8 -5 18 -8 22 -4
3 -5 -1 -4 -10z"/>
<path d="M197539 89339 c-7 -27 -3 -62 8 -71 8 -6 13 -7 12 -2 -1 5 0 11 1 14
8 22 6 41 -6 51 -8 6 -14 10 -15 8z m17 -34 c1 -8 -1 -17 -5 -19 -4 -3 -7 6
-7 19 0 25 8 25 12 0z"/>
<path d="M197554 89196 c1 -8 5 -18 8 -22 4 -3 5 1 4 10 -1 8 -5 18 -8 22 -4
3 -5 -1 -4 -10z"/>
<path d="M197539 89096 c-1 -3 -3 -15 -4 -26 -1 -11 -4 -22 -5 -25 -1 -3 -3
-8 -4 -12 -1 -5 -4 -13 -8 -19 -4 -6 -4 -14 0 -18 4 -4 7 -17 7 -28 0 -12 7
-22 17 -24 24 -3 31 11 13 26 -9 8 -11 18 -6 33 5 12 9 25 10 30 0 4 1 8 2 10
7 22 4 38 -7 48 -8 6 -15 9 -15 5z m16 -34 c-2 -9 -4 -18 -5 -19 -4 -4 -7 -22
-9 -39 0 -8 -6 -12 -11 -9 -8 5 -7 11 1 21 6 8 8 14 4 14 -4 0 -3 6 2 13 6 6
9 20 8 30 -2 9 0 15 5 12 5 -3 7 -13 5 -23z m-6 -95 c8 -10 7 -14 -2 -14 -8 0
-14 6 -14 14 0 7 1 13 2 13 2 0 8 -6 14 -13z"/>
<path d="M197515 89849 c-4 -6 -5 -12 -2 -15 2 -3 7 2 10 11 7 17 1 20 -8 4z"/>
<path d="M197450 90096 c0 -2 8 -10 18 -17 15 -13 16 -12 3 4 -13 16 -21 21
-21 13z"/>
<path d="M197470 89996 c0 -2 8 -10 18 -17 15 -13 16 -12 3 4 -13 16 -21 21
-21 13z"/>
<path d="M197479 89927 c6 -8 7 -18 3 -22 -4 -5 -1 -5 6 -1 10 6 10 11 1 22
-6 8 -14 14 -16 14 -3 0 0 -6 6 -13z"/>
<path d="M197476 89770 c12 -18 12 -30 -1 -50 -7 -13 -6 -13 7 -2 19 15 18 37
-2 55 -12 10 -12 9 -4 -3z"/>
<path d="M197476 89570 c12 -18 12 -30 -1 -50 -7 -13 -6 -13 7 -2 19 15 18 37
-2 55 -12 10 -12 9 -4 -3z"/>
<path d="M197476 89330 c12 -18 12 -30 -1 -50 -7 -13 -6 -13 7 -2 19 15 18 37
-2 55 -12 10 -12 9 -4 -3z"/>
<path d="M197476 89090 c12 -18 12 -30 -1 -50 -7 -13 -6 -13 7 -2 19 15 18 37
-2 55 -12 10 -12 9 -4 -3z"/>
<path d="M146444 66920 c-527 -47 -921 -273 -1199 -685 -67 -100 -157 -291
-199 -422 -39 -123 -78 -305 -97 -458 -16 -124 -16 -504 0 -645 100 -888 615
-1457 1406 -1555 154 -19 412 -19 558 0 490 64 864 301 1124 710 197 312 293
690 293 1161 0 227 -11 351 -46 534 -77 395 -239 701 -504 954 -222 211 -498
340 -835 391 -123 18 -379 26 -501 15z"/>
<path d="M46365 63184 c-364 -36 -600 -90 -717 -165 -197 -126 -66 -317 374
-544 300 -155 744 -321 1044 -391 108 -25 137 -28 314 -28 164 0 213 3 310 22
289 58 513 162 614 285 183 224 -17 453 -559 637 -243 83 -438 128 -705 165
-109 16 -578 29 -675 19z"/>
<path d="M46148 61806 c-105 -30 -193 -102 -315 -255 -136 -171 -203 -329
-203 -476 0 -105 22 -168 78 -224 165 -164 493 -65 719 218 106 132 157 261
157 401 0 72 -4 95 -28 146 -53 117 -166 194 -295 200 -36 2 -87 -3 -113 -10z"/>
<path d="M48631 61807 c-13 -6 -107 -122 -209 -257 -101 -135 -409 -543 -684
-907 l-501 -663 -41 0 c-51 0 -305 -34 -419 -55 -338 -63 -570 -217 -683 -451
-68 -142 -78 -200 -78 -464 0 -214 3 -247 27 -372 31 -159 39 -179 77 -201 37
-22 68 -21 107 3 42 25 49 58 34 145 -39 221 -44 268 -44 430 0 141 4 183 21
247 29 108 68 183 131 250 134 145 336 211 816 264 102 11 157 22 172 33 12 9
161 201 330 426 170 226 480 637 689 915 210 278 386 516 393 529 19 34 5 86
-30 115 -33 28 -70 33 -108 13z"/>
<path d="M50079 59452 c-103 -34 -203 -119 -320 -274 -174 -227 -231 -457
-153 -615 57 -118 212 -172 365 -127 231 68 460 291 532 519 33 105 31 240 -5
317 -71 154 -257 233 -419 180z"/>
<path d="M45171 57889 c-97 -18 -306 -99 -406 -157 -64 -37 -72 -39 -92 -26
-62 40 -153 -8 -153 -81 0 -22 17 -76 40 -129 l40 -92 4 -345 c3 -359 11 -449
57 -634 109 -438 347 -734 719 -891 464 -195 1276 -182 2017 32 45 13 89 21
97 18 22 -9 82 24 95 52 16 36 13 86 -7 112 -10 13 -46 33 -82 45 l-63 22 -42
125 c-73 216 -155 410 -267 627 -192 375 -369 580 -590 683 -164 77 -404 80
-576 9 -29 -12 -54 -20 -55 -18 -2 2 -18 54 -36 114 -91 306 -239 483 -441
529 -70 16 -189 18 -259 5z"/>
<path d="M54105 56989 c-412 -21 -820 -163 -1170 -408 -577 -403 -941 -1079
-957 -1774 l-3 -118 33 -30 c53 -47 127 -35 157 26 8 19 15 60 15 94 0 169 41
403 106 601 127 389 368 726 704 986 279 217 677 377 1014 410 l69 7 -115
-224 c-64 -123 -416 -823 -783 -1556 -659 -1316 -667 -1333 -655 -1367 21 -65
83 -92 144 -64 28 12 253 451 1161 2266 l476 954 82 -7 c501 -40 960 -248
1302 -590 174 -173 291 -335 402 -556 118 -236 185 -486 204 -764 13 -181 20
-210 60 -230 44 -23 85 -19 121 14 l32 28 -2 109 c-15 726 -392 1407 -1007
1818 -318 213 -735 356 -1085 372 -58 2 -121 6 -140 7 -19 1 -93 0 -165 -4z"/>
<path d="M121476 51740 c-3 -8 -118 -359 -256 -780 -138 -421 -312 -949 -386
-1173 -75 -225 -134 -411 -131 -413 2 -2 357 -3 789 -2 l785 3 -398 1190
c-218 655 -399 1183 -403 1175z"/>
<path d="M136991 50573 c-211 -643 -386 -1176 -389 -1185 -4 -17 38 -18 782
-18 432 0 786 3 786 7 0 16 -785 2363 -790 2363 -3 0 -178 -525 -389 -1167z"/>
<path d="M181370 51500 l0 -771 618 3 617 4 97 26 c141 38 228 87 321 179 62
62 85 93 116 160 54 118 71 194 78 346 12 269 -52 459 -203 608 -95 94 -208
151 -369 188 -84 19 -129 21 -682 24 l-593 4 0 -771z"/>
<path d="M142890 37489 c-392 -44 -711 -191 -963 -443 -333 -331 -506 -827
-507 -1446 0 -796 306 -1405 852 -1695 229 -121 461 -178 778 -191 404 -16
786 86 1064 284 320 229 545 583 646 1016 69 299 79 732 24 1061 -109 656
-495 1146 -1047 1330 -246 82 -575 115 -847 84z"/>
<path d="M149910 36815 l0 -805 413 0 c440 0 592 9 726 40 221 53 376 169 461
345 68 142 95 318 79 517 -10 124 -20 174 -53 262 -95 252 -312 398 -650 435
-53 6 -290 11 -536 11 l-440 0 0 -805z"/>
<path d="M178700 36781 l0 -771 543 0 c556 0 656 5 796 41 348 89 525 359 508
779 -8 212 -60 353 -173 479 -94 104 -211 170 -374 213 -82 21 -104 22 -692
25 l-608 4 0 -770z"/>
<path d="M88475 89969 c-87 -13 -210 -56 -289 -102 -172 -99 -246 -219 -246
-398 0 -292 248 -520 815 -747 195 -78 865 -295 1025 -332 353 -82 651 -94
936 -39 199 38 288 102 286 205 -1 69 -41 139 -150 260 -277 307 -669 590
-1127 814 -566 278 -952 382 -1250 339z"/>
<path d="M93820 89309 c-231 -28 -450 -157 -523 -309 -58 -120 -55 -266 9
-399 28 -60 53 -93 127 -166 204 -201 467 -329 1108 -540 734 -241 1073 -288
1501 -205 291 56 354 187 189 394 -76 95 -313 320 -446 424 -345 268 -770 500
-1246 677 -273 102 -532 147 -719 124z"/>
<path d="M91852 88230 c-18 -17 -32 -35 -33 -38 0 -4 -55 -550 -122 -1214
l-122 -1207 -118 -80 c-376 -257 -559 -441 -662 -665 -53 -114 -69 -186 -69
-316 0 -125 10 -180 55 -308 67 -192 201 -390 409 -606 120 -124 152 -144 204
-122 42 18 66 51 66 94 0 27 -13 47 -79 117 -321 340 -451 577 -452 821 -1 44
4 100 11 125 59 231 261 447 672 720 71 48 136 96 143 107 19 27 269 2500 256
2534 -14 36 -46 59 -88 65 -34 4 -43 1 -71 -27z"/>
<path d="M89359 87887 c-158 -45 -302 -222 -344 -426 -21 -102 -21 -296 0
-391 46 -204 169 -332 349 -363 233 -40 487 136 562 388 24 80 24 237 0 325
-77 284 -250 467 -450 477 -39 1 -92 -3 -117 -10z"/>
<path d="M100225 87349 c-182 -17 -476 -78 -502 -103 -13 -12 -172 -260 -169
-263 1 -2 47 13 102 33 95 34 325 96 331 90 2 -2 -350 -889 -782 -1972 -433
-1083 -789 -1981 -792 -1995 -6 -31 19 -84 46 -99 32 -16 86 -12 114 10 21 16
190 432 838 2055 654 1636 817 2036 834 2042 43 14 428 6 550 -11 322 -46 630
-146 879 -288 592 -336 1017 -878 1187 -1513 46 -173 67 -309 81 -510 11 -175
12 -181 39 -207 29 -30 82 -38 120 -18 43 24 52 65 45 209 -40 850 -477 1625
-1181 2096 -379 253 -786 399 -1239 444 -122 12 -379 12 -501 0z"/>
<path d="M94879 87110 c-161 -27 -303 -175 -369 -385 -32 -99 -39 -309 -15
-426 52 -261 234 -411 460 -380 139 20 234 69 329 172 156 168 187 404 86 655
-43 107 -89 179 -157 246 -100 98 -213 138 -334 118z"/>
<path d="M97960 84759 c-19 -4 -61 -9 -92 -10 l-58 -2 0 -48 c0 -36 6 -55 26
-78 47 -56 137 -37 165 36 11 29 12 113 2 112 -5 -1 -24 -5 -43 -10z"/>
<path d="M93925 82674 c-550 -229 -882 -346 -1326 -468 -417 -115 -896 -208
-1289 -250 -80 -9 -166 -18 -191 -21 -112 -13 -558 -35 -702 -35 -123 0 -166
-4 -192 -15 -61 -30 -73 -104 -26 -157 l29 -33 254 1 c1071 5 2218 250 3348
716 305 126 325 138 325 210 0 33 -6 45 -33 69 -19 17 -44 29 -60 29 -15 0
-76 -21 -137 -46z"/>
<path d="M69965 81429 c-397 -31 -929 -113 -1203 -185 -211 -55 -361 -118
-490 -207 -93 -64 -143 -121 -190 -216 -30 -61 -37 -88 -40 -147 -4 -64 -1
-78 24 -124 79 -145 319 -237 714 -276 188 -19 691 -21 930 -5 416 29 811 81
1010 131 337 86 552 215 632 378 31 62 33 74 33 167 0 93 -2 105 -33 167 -79
161 -267 258 -592 304 -135 19 -622 27 -795 13z"/>
<path d="M73875 81429 c-382 -36 -616 -142 -702 -317 -26 -52 -28 -67 -28
-167 0 -100 2 -115 27 -163 90 -174 274 -286 611 -372 234 -59 413 -85 897
-130 340 -32 899 -29 1168 6 261 33 472 107 561 195 65 65 76 92 76 185 0 73
-3 87 -38 157 -81 163 -241 278 -526 376 -255 88 -888 194 -1381 231 -157 12
-535 11 -665 -1z"/>
<path d="M72221 80719 c-12 -11 -26 -32 -32 -46 -5 -14 -9 -394 -10 -936 l0
-912 -62 -48 c-165 -128 -328 -323 -377 -454 -78 -205 -61 -395 56 -623 59
-115 180 -273 305 -399 111 -111 151 -141 187 -141 31 0 70 27 88 62 27 53 11
83 -105 203 -169 173 -233 257 -302 394 -146 293 -58 529 304 815 54 43 102
89 108 103 6 15 8 392 7 983 l-3 959 -29 30 c-37 39 -99 43 -135 10z"/>
<path d="M69615 79858 c-84 -23 -188 -117 -236 -213 -16 -33 -37 -96 -46 -140
-61 -303 173 -604 434 -556 150 28 275 153 318 316 19 73 19 213 1 280 -32
123 -121 239 -220 289 -63 32 -182 43 -251 24z"/>
<path d="M74605 79858 c-127 -35 -246 -180 -280 -343 -19 -89 -19 -118 1 -212
31 -153 108 -259 230 -319 65 -33 84 -37 148 -37 60 0 84 5 138 30 113 53 199
160 233 288 19 73 19 213 1 280 -32 123 -121 239 -220 289 -63 32 -182 43
-251 24z"/>
<path d="M73000 76584 c-98 -20 -233 -92 -318 -169 -40 -35 -84 -68 -98 -71
-15 -4 -61 5 -122 25 -165 54 -251 62 -380 35 -218 -44 -388 -202 -533 -494
-51 -102 -115 -277 -106 -286 3 -3 50 12 104 34 609 250 1050 361 1618 406
181 15 815 39 823 31 7 -7 -249 -175 -379 -249 -248 -139 -466 -228 -714 -291
-190 -49 -325 -66 -551 -72 -281 -8 -494 16 -778 88 -65 16 -121 28 -123 25
-6 -6 83 -117 208 -261 201 -231 444 -393 694 -461 92 -26 115 -28 290 -28
202 -1 257 7 442 60 328 94 625 322 753 577 70 139 157 436 191 650 7 46 8 81
3 86 -15 14 -531 291 -599 322 -123 55 -289 73 -425 43z"/>
<path d="M92105 60350 c-93 -15 -177 -78 -227 -172 -32 -61 -32 -193 0 -259
31 -62 81 -113 144 -146 71 -36 178 -39 254 -5 64 29 126 92 156 157 34 75 32
181 -5 257 -59 120 -189 188 -322 168z"/>
<path d="M92233 58290 c-21 -13 -35 -31 -42 -57 -12 -42 -16 -1706 -4 -1764 5
-24 41 -69 142 -174 75 -77 158 -169 184 -204 192 -256 225 -457 113 -678 -77
-152 -204 -301 -390 -457 -125 -105 -133 -113 -136 -141 -5 -43 1 -65 25 -93
55 -66 111 -47 275 96 247 214 403 425 470 637 34 107 38 266 11 375 -26 103
-91 237 -167 345 -65 92 -90 121 -226 263 l-98 104 0 849 c0 937 4 885 -62
908 -43 15 -58 14 -95 -9z"/>
<path d="M89689 57597 c-146 -41 -264 -185 -299 -365 -18 -89 -8 -251 19 -332
79 -229 278 -350 464 -280 37 14 79 41 117 77 255 235 195 751 -101 882 -60
27 -143 34 -200 18z"/>
<path d="M94697 57600 c-135 -34 -241 -144 -293 -305 -33 -100 -37 -253 -10
-355 54 -199 187 -328 350 -338 102 -6 172 22 252 102 163 163 200 447 89 673
-81 165 -244 259 -388 223z"/>
<path d="M92595 54125 c-149 -33 -240 -85 -314 -178 l-30 -38 -15 29 c-24 46
-112 119 -169 141 -185 69 -443 49 -697 -55 -231 -94 -471 -284 -614 -486 -46
-66 -49 -68 -91 -68 -73 0 -121 -59 -104 -126 13 -48 49 -74 111 -81 l55 -6
61 -81 c234 -316 550 -570 865 -695 442 -176 906 -152 1336 69 252 129 512
350 705 598 44 56 86 104 95 106 9 2 37 7 63 11 67 9 102 51 95 114 -7 60 -41
91 -101 91 l-43 0 -51 83 c-181 297 -464 503 -776 568 -108 22 -291 24 -381 4z"/>
<path d="M47010 40479 c-347 -26 -701 -313 -752 -609 -22 -128 21 -250 125
-352 236 -233 654 -309 1532 -279 699 24 818 35 1010 97 233 76 386 211 430
379 32 124 9 227 -68 311 -58 64 -138 105 -304 157 -216 68 -410 107 -898 181
-93 14 -244 37 -335 51 -408 63 -569 77 -740 64z"/>
<path d="M53110 40253 c-19 -2 -107 -15 -195 -29 -88 -13 -313 -46 -500 -73
-518 -76 -710 -115 -945 -187 -219 -68 -316 -130 -363 -232 -18 -38 -22 -66
-22 -142 0 -88 3 -101 34 -164 22 -46 56 -91 96 -130 163 -161 399 -237 790
-256 841 -41 1161 -40 1455 6 290 44 490 131 614 265 87 93 117 164 117 275 0
260 -268 546 -604 646 -60 17 -103 21 -257 23 -102 2 -201 1 -220 -2z"/>
<path d="M49997 38789 c-45 -26 -45 -19 -92 -1078 -25 -555 -45 -1022 -45
-1038 0 -22 -33 -65 -156 -203 -207 -233 -256 -293 -315 -391 -121 -202 -134
-390 -39 -567 38 -71 120 -168 197 -234 121 -103 363 -248 415 -248 39 0 87
47 94 91 8 49 -23 83 -138 148 -338 192 -471 377 -414 575 32 111 105 215 304
438 187 209 241 275 247 300 5 23 95 2031 95 2116 0 36 -6 49 -31 73 -33 31
-86 39 -122 18z"/>
<path d="M47685 38550 c-217 -86 -354 -519 -241 -765 33 -73 118 -196 164
-237 83 -75 221 -89 335 -34 171 82 291 317 274 536 -26 330 -303 591 -532
500z"/>
<path d="M52563 38479 c-135 -26 -253 -167 -309 -369 -13 -46 -18 -102 -19
-190 0 -149 13 -199 83 -309 106 -166 178 -216 312 -215 96 0 171 35 250 114
107 107 164 255 162 420 -1 162 -60 308 -169 421 -69 72 -136 114 -198 124
-22 4 -47 8 -55 10 -8 1 -34 -1 -57 -6z"/>
<path d="M57005 38119 c-243 -16 -433 -64 -659 -166 -559 -251 -977 -772
-1095 -1363 -25 -128 -45 -327 -38 -387 8 -76 73 -120 137 -93 49 20 59 48 70
192 16 220 47 358 124 550 126 312 371 609 653 792 143 92 401 203 540 231 32
6 32 6 23 -22 -36 -109 -800 -2794 -800 -2811 0 -35 26 -77 55 -90 41 -19 72
-14 105 16 29 25 51 97 389 1277 197 688 385 1345 418 1460 l60 210 134 3
c632 13 1234 -343 1533 -908 121 -230 183 -453 201 -730 8 -125 21 -155 74
-171 32 -9 44 -9 73 5 45 22 58 51 58 132 0 251 -77 560 -202 809 -350 700
-1076 1117 -1853 1064z"/>
<path d="M81194 35036 c-28 -28 -34 -41 -34 -77 1 -67 365 -3847 372 -3854 5
-6 189 12 196 19 2 2 -80 875 -182 1941 -199 2075 -186 1967 -244 1994 -41 19
-72 13 -108 -23z"/>
<path d="M50754 34446 c-89 -17 -110 -24 -314 -101 -315 -120 -387 -123 -618
-31 -182 73 -242 84 -347 63 -142 -29 -236 -84 -470 -273 -164 -132 -260 -229
-293 -296 -18 -38 -28 -47 -57 -52 -20 -4 -44 -19 -59 -37 -48 -57 -25 -134
49 -160 30 -11 41 -26 89 -123 239 -479 779 -793 1427 -830 332 -19 692 73
949 242 222 147 488 446 610 686 41 81 49 90 85 103 56 18 85 54 85 104 0 45
-30 84 -74 95 -20 5 -28 17 -41 62 -43 148 -140 264 -318 379 -88 58 -255 137
-332 158 -82 22 -281 28 -371 11z"/>
<path d="M103383 33076 c-18 -15 -35 -35 -38 -45 -3 -10 -93 -546 -200 -1192
-107 -646 -263 -1584 -346 -2086 -94 -564 -149 -922 -145 -938 4 -15 18 -38
31 -51 42 -42 126 -28 155 27 13 23 700 4158 700 4211 0 51 -33 88 -86 95 -33
4 -45 1 -71 -21z"/>
<path d="M91439 33011 c-48 -48 -39 -84 66 -271 249 -446 494 -984 650 -1425
231 -656 335 -1226 335 -1844 1 -476 -56 -884 -185 -1327 -33 -114 -32 -146 3
-184 36 -40 77 -47 120 -20 40 25 49 46 101 233 265 969 222 2003 -128 3062
-159 481 -424 1079 -707 1590 -118 214 -113 207 -173 213 -46 4 -53 2 -82 -27z"/>
<path d="M111960 26123 c-209 -4 -2603 -39 -4295 -63 -885 -12 -1465 -24
-1488 -31 -21 -6 -44 -21 -54 -36 -17 -25 -26 -126 -11 -117 4 3 8 0 8 -6 0
-5 15 -18 34 -26 31 -15 148 -15 1487 5 3544 53 4081 61 4534 66 587 7 599 8
637 45 39 40 39 96 -1 139 l-29 31 -339 -2 c-186 -1 -403 -4 -483 -5z"/>
<path d="M106008 25873 c6 -2 18 -2 25 0 6 3 1 5 -13 5 -14 0 -19 -2 -12 -5z"/>
<path d="M105540 25866 c0 -2 11 -6 25 -8 14 -3 25 -1 25 3 0 5 -11 9 -25 9
-14 0 -25 -2 -25 -4z"/>
<path d="M105078 25853 c6 -2 18 -2 25 0 6 3 1 5 -13 5 -14 0 -19 -2 -12 -5z"/>
<path d="M104610 25846 c0 -2 11 -6 25 -8 14 -3 25 -1 25 3 0 5 -11 9 -25 9
-14 0 -25 -2 -25 -4z"/>
<path d="M104158 25833 c7 -3 16 -2 19 1 4 3 -2 6 -13 5 -11 0 -14 -3 -6 -6z"/>
<path d="M103720 25826 c0 -2 11 -6 25 -8 14 -3 25 -1 25 3 0 5 -11 9 -25 9
-14 0 -25 -2 -25 -4z"/>
<path d="M103278 25813 c6 -2 18 -2 25 0 6 3 1 5 -13 5 -14 0 -19 -2 -12 -5z"/>
<path d="M62015 25420 c-380 -27 -634 -85 -871 -202 -266 -131 -454 -383 -454
-609 0 -218 206 -450 505 -569 291 -117 611 -164 1285 -190 276 -11 467 -24
606 -40 325 -40 850 -51 1084 -24 429 49 783 192 973 393 69 73 102 134 119
217 45 225 -245 572 -635 759 -299 144 -638 217 -1182 255 -198 14 -1264 21
-1430 10z"/>
<path d="M70590 25304 c-8 -2 -91 -10 -185 -19 -911 -82 -1666 -120 -2464
-124 -224 -1 -370 -5 -382 -12 -71 -38 -213 -194 -263 -289 -52 -99 -69 -167
-64 -268 3 -73 8 -98 36 -156 142 -300 491 -471 1112 -545 110 -13 357 -28
695 -41 148 -6 373 -21 500 -35 126 -13 307 -29 402 -36 213 -15 657 -7 798
15 488 73 865 263 986 496 31 60 34 72 34 156 0 86 -2 94 -42 175 -45 91 -168
245 -250 315 -186 157 -412 273 -683 349 -80 23 -179 31 -230 19z"/>
<path d="M99105 24334 c-22 -2 -114 -11 -205 -19 -454 -42 -883 -135 -1350
-293 -341 -115 -570 -219 -753 -342 -352 -235 -556 -579 -534 -903 9 -137 56
-216 160 -267 114 -55 254 -64 466 -30 144 24 146 24 436 102 322 86 654 157
1150 247 537 98 678 129 865 191 326 107 572 249 761 440 56 56 86 97 115 155
37 75 39 84 39 175 0 94 -1 99 -44 185 -90 183 -245 289 -496 341 -68 15 -517
27 -610 18z"/>
<path d="M65988 24011 l-33 -29 -5 -1359 -5 -1358 -80 -95 c-357 -423 -539
-754 -576 -1048 -27 -216 35 -434 184 -650 94 -136 356 -391 509 -494 52 -36
97 -36 136 -3 65 54 49 115 -49 190 -93 72 -146 119 -247 218 -363 356 -424
655 -217 1067 80 160 262 413 471 658 45 52 76 97 79 116 3 17 4 644 3 1393
l-3 1362 -29 30 c-41 42 -92 43 -138 2z"/>
<path d="M92840 23279 c-680 -46 -1499 -258 -2037 -528 -322 -161 -545 -370
-663 -624 -114 -244 -111 -511 7 -618 83 -75 152 -94 338 -93 180 1 294 22
648 118 323 88 645 156 1312 276 672 121 1004 241 1306 471 287 218 368 422
258 648 -95 193 -314 321 -600 351 -115 11 -385 11 -569 -1z"/>
<path d="M63296 23044 c-164 -51 -298 -224 -347 -449 -19 -87 -16 -274 5 -365
80 -338 353 -529 585 -411 198 101 325 371 307 651 -18 289 -168 522 -371 575
-72 18 -115 18 -179 -1z"/>
<path d="M69232 23042 c-118 -43 -213 -134 -277 -267 -52 -108 -67 -175 -72
-325 -6 -160 15 -267 74 -390 51 -103 165 -218 249 -250 141 -53 280 -17 398
103 111 113 173 268 183 459 13 237 -56 438 -196 571 -108 103 -243 140 -359
99z"/>
<path d="M95739 22231 c-68 -36 -76 58 132 -1491 103 -773 192 -1418 196
-1435 6 -21 26 -42 68 -70 336 -222 547 -403 685 -586 138 -184 193 -360 170
-546 -33 -261 -182 -500 -513 -820 -103 -100 -127 -128 -133 -158 -8 -43 15
-81 61 -104 55 -27 90 -5 263 167 310 308 465 563 517 847 47 255 -33 527
-224 768 -129 162 -330 339 -575 506 l-131 89 -183 1373 c-115 858 -189 1388
-199 1412 -25 59 -78 78 -134 48z"/>
<path d="M98560 22005 c-163 -46 -313 -208 -398 -430 -114 -301 -69 -580 127
-775 124 -123 261 -181 426 -181 234 0 401 141 472 401 14 51 18 103 18 250 0
162 -3 195 -23 269 -58 211 -168 358 -327 437 -62 31 -85 37 -157 40 -55 3
-101 -1 -138 -11z"/>
<path d="M91960 20974 c-191 -51 -360 -261 -436 -542 -25 -93 -30 -255 -10
-346 64 -284 317 -498 591 -500 201 -1 365 109 445 301 49 116 63 214 57 392
-6 182 -28 277 -95 407 -121 232 -338 345 -552 288z"/>
<path d="M85850 20170 c-563 -32 -1133 -261 -1575 -633 -468 -394 -795 -944
-914 -1537 -50 -250 -67 -555 -33 -596 41 -51 109 -55 152 -9 22 23 25 38 32
163 9 164 22 273 49 407 180 896 859 1640 1734 1898 281 83 503 112 785 103
107 -3 217 -9 244 -12 44 -6 50 -10 63 -43 9 -20 316 -823 684 -1786 471
-1235 675 -1755 690 -1768 54 -44 128 -25 155 40 15 34 14 40 -10 107 -14 39
-311 818 -660 1731 -349 913 -633 1661 -632 1663 9 8 270 -77 381 -124 827
-352 1402 -1110 1515 -1994 6 -47 14 -147 18 -222 7 -125 10 -140 32 -163 43
-46 111 -42 152 9 31 38 21 288 -22 531 -74 421 -246 815 -508 1164 -101 135
-336 375 -472 483 -322 255 -670 423 -1078 522 -56 14 -116 35 -133 46 -32 24
-91 29 -113 11 -9 -7 -38 -8 -97 -1 -128 14 -300 18 -439 10z"/>
<path d="M67495 18320 c-117 -12 -247 -45 -420 -110 -302 -112 -388 -140 -484
-160 -117 -24 -245 -25 -386 -5 -390 57 -654 -33 -848 -290 -82 -108 -188
-320 -248 -492 -36 -105 -45 -123 -63 -123 -43 -1 -86 -54 -86 -109 0 -45 37
-81 96 -94 47 -11 57 -20 152 -127 402 -456 966 -740 1568 -791 336 -28 753
41 1127 187 537 209 955 533 1190 921 136 226 182 476 117 646 -20 54 -21 60
-6 82 24 36 20 87 -8 118 -34 37 -71 44 -128 23 l-48 -17 -114 45 c-62 24
-189 65 -282 91 -93 25 -239 66 -324 91 -354 103 -581 135 -805 114z"/>
<path d="M97129 16342 c-81 -27 -150 -70 -264 -162 -220 -179 -346 -259 -436
-275 -34 -6 -38 -4 -92 59 -306 348 -759 342 -1392 -19 -247 -141 -652 -436
-938 -683 l-48 -42 558 0 c307 0 1272 -3 2146 -7 l1587 -6 0 27 c0 46 -30 174
-62 264 -101 289 -321 565 -591 740 -165 108 -340 146 -468 104z"/>
<path d="M93971 15143 c41 -114 178 -380 259 -501 372 -553 952 -927 1620
-1043 485 -84 991 -18 1395 183 448 223 771 595 924 1063 38 117 88 332 79
341 -3 2 -45 -22 -94 -54 -493 -322 -1055 -525 -1619 -583 -141 -14 -519 -15
-655 0 -551 59 -1035 205 -1610 484 -85 42 -192 96 -238 122 l-82 46 21 -58z"/>
</g>
</svg>
