<?xml version="1.0" standalone="no"?>
<!DOCTYPE svg PUBLIC "-//W3C//DTD SVG 20010904//EN"
 "http://www.w3.org/TR/2001/REC-SVG-20010904/DTD/svg10.dtd">
<svg version="1.0" xmlns="http://www.w3.org/2000/svg"
 width="20736.000000pt" height="10368.000000pt" viewBox="0 0 20736.000000 10368.000000"
 preserveAspectRatio="xMidYMid meet">

<g transform="translate(0.000000,10368.000000) scale(0.100000,-0.100000)"
fill="#000000" stroke="none">
<path d="M197154 90185 c0 -13 5 -23 10 -22 6 1 10 -11 11 -28 0 -16 4 -35 8
-42 4 -6 3 -14 -3 -18 -5 -3 -10 -1 -10 6 0 7 -3 9 -6 6 -4 -4 -3 -12 3 -19
11 -15 11 -28 0 -45 -4 -6 -3 -15 3 -18 8 -5 7 -11 -1 -21 -6 -7 -16 -11 -23
-7 -8 5 -8 3 1 -8 14 -17 14 -30 2 -46 -7 -7 -6 -14 1 -18 6 -4 10 -3 9 2 -1
4 0 11 1 16 1 4 3 16 4 27 1 25 21 27 21 3 0 -10 4 -23 8 -30 4 -6 3 -14 -2
-17 -5 -4 -12 0 -15 6 -3 7 -3 1 -1 -14 2 -14 0 -29 -3 -33 -4 -4 -7 -11 -7
-16 0 -5 -4 -9 -10 -9 -5 0 -10 4 -10 9 0 5 -3 12 -7 16 -15 15 -1 -25 15 -43
9 -10 15 -21 12 -24 -3 -3 4 -13 14 -22 11 -10 17 -24 15 -31 -3 -7 0 -16 5
-20 8 -4 5 -16 -8 -34 -18 -24 -18 -31 -6 -54 7 -14 10 -29 7 -32 -4 -4 -7
-11 -7 -16 0 -17 -19 -4 -22 14 -2 12 1 16 9 11 7 -4 8 -3 4 5 -4 6 -12 9 -17
6 -13 -9 -6 -41 14 -63 16 -18 16 -20 -1 -35 -10 -10 -23 -14 -27 -10 -5 5 -3
0 4 -9 7 -10 10 -18 5 -18 -4 0 7 -15 24 -33 18 -18 30 -36 26 -39 -3 -3 -21
10 -41 30 l-35 37 36 -44 c19 -24 33 -48 29 -54 -3 -5 -9 -3 -14 4 -5 8 -9 10
-9 5 0 -5 7 -18 17 -28 14 -16 14 -22 3 -43 -10 -20 -11 -28 -2 -37 20 -20 13
-32 -7 -14 -14 13 -21 14 -27 5 -4 -7 -3 -10 3 -6 6 4 15 1 20 -6 11 -16 10
-53 -2 -49 -6 1 -10 11 -9 21 1 10 -5 18 -12 18 -10 0 -11 -4 -3 -14 6 -7 8
-13 3 -13 -4 0 4 -12 18 -27 16 -18 24 -36 22 -50 -2 -12 1 -25 6 -28 5 -3 7
-12 4 -20 -4 -8 -10 -12 -15 -9 -5 3 -7 9 -4 14 3 5 1 11 -4 15 -6 3 -8 13 -5
23 5 14 4 14 -4 2 -7 -9 -7 -18 -1 -26 11 -14 -13 -38 -27 -26 -5 4 4 -8 20
-26 31 -34 40 -58 25 -68 -8 -4 -13 8 -11 27 1 4 -11 17 -26 30 -26 23 -26 23
-7 1 19 -23 27 -43 26 -74 0 -10 4 -20 9 -23 5 -3 6 -18 4 -33 -5 -26 -5 -26
10 -7 14 19 15 19 21 2 7 -17 8 -17 22 0 11 14 14 14 10 2 -4 -12 4 -15 42
-14 25 0 45 4 44 8 -2 4 -3 10 -3 13 0 4 -8 0 -17 -7 -9 -8 -14 -9 -10 -3 4 7
-1 18 -10 25 -14 12 -15 11 -9 -11 5 -17 4 -21 -2 -11 -8 11 -11 11 -16 0 -3
-8 -3 -3 0 11 4 20 3 22 -5 10 -9 -12 -11 -12 -8 5 1 11 7 26 11 34 6 9 5 12
-1 8 -5 -3 -10 0 -10 8 0 8 3 12 7 10 3 -2 6 7 6 20 0 13 -3 22 -6 20 -4 -2
-7 2 -7 10 0 8 5 11 11 8 6 -4 4 2 -4 12 -13 17 -13 18 0 10 13 -8 13 -7 0 10
-8 11 -10 16 -3 11 9 -5 11 -2 7 9 -4 8 0 23 7 33 13 16 13 16 -5 2 -18 -13
-19 -13 -10 0 11 18 13 120 2 113 -5 -2 -3 8 4 22 9 21 9 31 0 46 -7 10 -12
24 -11 31 0 7 5 4 10 -7 7 -15 8 -12 4 15 -4 28 -3 31 5 15 9 -17 10 -17 4 5
-4 14 -7 43 -6 65 0 29 -2 34 -8 20 -5 -13 -7 -4 -7 30 0 43 1 46 7 20 5 -19
6 -8 3 30 -5 70 -6 106 -1 157 2 20 1 35 -2 33 -3 -2 -6 22 -6 53 -2 57 -2 57
5 12 6 -35 8 -24 7 49 0 51 -3 85 -6 75 -4 -11 -7 12 -7 50 0 39 3 61 7 50 5
-13 8 -5 8 24 0 26 -4 42 -11 42 -9 0 -9 2 -1 8 17 11 22 35 12 56 -7 13 -7
16 1 12 7 -5 8 -1 4 9 -4 12 -8 13 -13 5 -4 -7 -10 -8 -12 -4 -3 5 -3 3 -2 -3
2 -7 -1 -13 -6 -13 -6 0 -10 8 -10 18 0 10 -7 4 -16 -15 -9 -18 -21 -30 -26
-27 -5 3 -2 14 7 24 11 12 13 20 6 25 -11 6 -12 5 -15 -15 -1 -13 -21 -13 -21
-1 0 5 -2 12 -5 15 -4 3 -6 -5 -6 -19z m108 -20 c4 -5 1 -19 -7 -31 -10 -15
-11 -24 -3 -32 6 -6 7 -18 2 -29 -11 -26 -13 -136 -3 -149 10 -12 7 -36 -5
-66 -8 -19 -2 -111 9 -140 4 -10 3 -18 -3 -18 -10 0 -9 -45 1 -102 3 -16 1
-30 -4 -33 -9 -6 -10 -83 -1 -100 10 -17 10 -49 -1 -78 -6 -20 -6 -32 2 -40
13 -13 15 -47 2 -47 -6 0 -8 -10 -5 -22 10 -41 12 -108 4 -113 -5 -3 -6 -14
-3 -25 3 -11 1 -20 -4 -20 -8 0 -10 253 -2 294 2 10 -2 20 -9 22 -7 1 -8 0 -2
-3 5 -2 10 -9 10 -14 0 -6 -4 -7 -10 -4 -6 3 -7 -1 -4 -10 5 -11 2 -14 -11 -9
-11 5 -13 10 -6 17 8 8 3 19 -16 39 -35 36 -36 51 -7 79 l24 22 8 -24 c10 -26
4 -62 -8 -54 -5 3 -7 18 -5 33 2 15 2 21 -1 14 -3 -6 -9 -10 -13 -8 -4 3 -7
-6 -7 -19 0 -13 5 -23 11 -22 5 1 9 -3 8 -10 -3 -13 22 -12 34 2 4 4 2 5 -4 1
-10 -5 -11 -1 -4 17 6 14 8 27 6 29 -7 7 -14 58 -7 54 6 -3 8 49 2 64 -8 23
-7 59 2 54 7 -5 8 -2 3 6 -4 7 -2 16 6 21 8 5 9 9 3 9 -7 0 -10 13 -8 33 3 23
1 28 -6 17 -7 -10 -8 1 -4 35 12 119 5 215 -16 215 -4 0 -6 10 -3 23 3 12 3
19 0 16 -4 -3 -9 -16 -11 -30 -2 -13 -5 -25 -5 -27 -1 -2 -6 0 -11 3 -6 4 -7
12 -3 18 4 7 8 21 8 32 1 11 6 19 12 18 7 -2 10 6 8 17 -2 11 0 22 6 25 5 4 9
-13 9 -39 0 -25 3 -47 8 -49 4 -3 6 20 5 51 -1 43 3 61 15 71 16 13 16 13 0 8
-9 -3 -19 -3 -21 1 -2 4 -3 2 -1 -5 3 -14 -6 -24 -17 -17 -5 3 -5 13 1 24 10
19 40 22 52 5z m-62 -50 c-5 -6 -8 -15 -5 -18 3 -4 2 -5 -2 -2 -4 3 -8 17 -9
30 -1 20 2 23 13 14 9 -8 10 -15 3 -24z m22 -192 c-1 -37 -3 -89 -6 -115 -3
-26 -1 -50 4 -53 6 -4 7 -18 4 -33 -3 -15 -7 -36 -8 -47 0 -11 -5 -26 -9 -33
-6 -8 -4 -12 5 -10 8 2 12 -5 11 -17 -2 -11 -4 -30 -5 -41 -1 -13 -8 -21 -18
-19 -8 1 -13 6 -11 11 1 5 8 8 14 6 6 -2 5 3 -2 12 -10 12 -9 16 6 25 10 6 12
11 5 11 -25 0 -31 43 -11 72 13 18 16 29 8 33 -5 4 -8 13 -5 20 2 7 -4 21 -14
30 -11 10 -17 22 -14 26 8 14 25 -1 18 -14 -4 -7 -3 -8 1 -4 16 14 13 34 -6
33 -10 -1 -19 4 -19 9 0 6 9 10 19 9 12 -1 18 5 16 15 -1 9 2 21 7 28 6 7 5
14 -3 19 -7 4 -9 3 -5 -4 3 -6 2 -13 -3 -16 -16 -11 -22 11 -6 24 8 7 12 17 8
24 -11 16 -11 29 0 44 6 7 7 15 3 19 -3 3 -6 1 -6 -6 0 -7 -5 -9 -10 -6 -8 5
-7 11 1 21 21 25 31 0 31 -73z m-28 -74 c-3 -5 -10 -7 -15 -3 -5 3 -7 10 -3
15 3 5 10 7 15 3 5 -3 7 -10 3 -15z m27 -476 c0 -10 1 -71 2 -136 1 -68 6
-121 12 -125 6 -4 10 -18 10 -32 -1 -14 3 -30 7 -37 5 -6 5 -14 0 -17 -5 -3
-8 -18 -7 -33 3 -39 -13 -67 -29 -54 -7 6 -15 10 -17 8 -2 -1 -3 0 -2 2 2 2
-2 10 -8 18 -9 10 -8 17 2 29 21 25 19 41 -7 65 -22 20 -24 47 -3 33 5 -3 7
-10 3 -15 -3 -5 0 -8 8 -7 7 2 12 -3 10 -10 -1 -8 2 -11 9 -6 9 5 10 1 7 -14
-4 -12 -2 -25 3 -28 5 -3 7 -10 3 -15 -3 -5 -9 -7 -14 -4 -5 3 -4 -8 1 -25 13
-37 22 -40 13 -4 -4 16 -3 25 2 21 12 -7 11 110 -1 121 -5 4 -5 -1 -2 -10 3
-10 2 -20 -2 -22 -14 -9 -21 6 -11 25 7 12 7 20 0 24 -6 3 -8 17 -6 30 3 13
-2 29 -10 36 -15 12 -9 33 7 23 5 -3 6 -10 3 -16 -4 -7 -2 -8 5 -4 8 6 9 12 2
20 -6 7 -7 17 -3 21 4 5 1 5 -5 1 -16 -9 -17 6 -1 22 8 8 8 15 -2 27 -11 13
-11 20 0 40 10 18 10 28 2 38 -7 8 -9 17 -5 20 12 12 23 7 24 -10z"/>
<path d="M197241 90084 c0 -11 3 -14 6 -6 3 7 2 16 -1 19 -3 4 -6 -2 -5 -13z"/>
<path d="M197241 89904 c0 -11 3 -14 6 -6 3 7 2 16 -1 19 -3 4 -6 -2 -5 -13z"/>
<path d="M197241 89324 c0 -11 3 -14 6 -6 3 7 2 16 -1 19 -3 4 -6 -2 -5 -13z"/>
<path d="M197241 89224 c0 -11 3 -14 6 -6 3 7 2 16 -1 19 -3 4 -6 -2 -5 -13z"/>
<path d="M197203 89305 c0 -8 4 -12 9 -9 5 3 6 10 3 15 -9 13 -12 11 -12 -6z"/>
<path d="M197282 90175 c-1 -16 -2 -55 -3 -85 -1 -30 -4 -59 -7 -65 -11 -18
-13 -47 -3 -59 5 -6 7 -71 5 -146 -6 -159 -6 -164 1 -300 7 -132 7 -126 3
-243 -3 -54 0 -101 4 -103 5 -3 5 -11 0 -17 -5 -7 -8 -46 -7 -87 1 -41 -2 -80
-7 -87 -5 -7 -5 -14 2 -18 5 -3 10 -3 10 1 0 4 9 -1 20 -11 11 -10 20 -15 20
-10 0 4 7 2 15 -5 8 -7 12 -17 8 -22 -3 -6 0 -9 8 -6 8 3 14 10 14 16 0 5 3
14 7 18 4 3 6 -3 3 -14 l-4 -22 1163 0 c1126 0 1165 0 1240 20 177 45 337 171
413 325 61 122 76 198 77 375 0 99 -3 125 -26 187 -62 172 -199 301 -392 367
-60 20 -73 21 -1260 24 -959 2 -1202 0 -1214 -10 -9 -7 -13 -8 -9 -2 4 8 -7
11 -37 10 -41 -1 -44 -2 -44 -31z m43 15 c9 7 16 6 24 -4 9 -10 9 -16 1 -21
-8 -5 -8 -10 0 -20 8 -10 8 -15 0 -20 -8 -5 -8 -11 1 -21 6 -8 8 -14 4 -14 -4
0 -1 -8 6 -17 8 -10 9 -14 2 -10 -30 18 -39 -67 -11 -99 15 -16 15 -21 4 -21
-8 0 -14 3 -13 6 1 3 -2 7 -8 9 -5 1 -10 -6 -10 -15 1 -10 6 -17 11 -16 6 1
11 -4 11 -12 0 -8 -3 -13 -6 -12 -3 1 -6 -2 -6 -8 0 -5 3 -9 7 -8 8 3 5 -18
-5 -34 -4 -6 -3 -14 3 -18 6 -4 7 -12 3 -18 -8 -14 -11 -68 -4 -82 11 -20 7
-52 -5 -52 -10 0 -11 4 -3 13 6 7 6 14 1 18 -6 3 -8 22 -6 42 2 21 -3 45 -11
58 -11 15 -15 17 -15 5 0 -9 3 -19 7 -22 3 -4 6 -33 5 -64 0 -61 12 -98 30
-87 7 4 6 10 -3 16 -11 6 -9 8 6 6 21 -3 21 -7 12 99 -2 23 -1 47 3 53 4 6 7
-11 8 -37 0 -26 3 -62 5 -80 3 -23 -1 -37 -14 -49 -18 -17 -18 -18 -2 -38 18
-21 18 -21 -3 -3 -11 9 -24 14 -29 10 -4 -5 -6 -3 -2 2 3 6 -2 19 -10 30 -15
19 -15 18 -8 -10 4 -16 7 -39 7 -50 -1 -19 0 -19 12 -2 12 15 14 15 19 2 4 -8
12 -13 19 -11 7 1 10 1 5 -1 -4 -3 -4 -10 0 -16 3 -7 -3 -4 -14 6 -20 18 -21
18 -37 -5 -9 -12 -16 -29 -16 -38 1 -8 8 -2 16 13 12 23 18 26 29 17 12 -10
12 -16 1 -33 -7 -12 -12 -26 -12 -32 2 -19 17 -35 27 -29 5 3 6 11 2 17 -11
18 -12 36 -3 42 5 3 7 -3 5 -12 -1 -10 2 -23 7 -30 5 -7 5 -14 -1 -17 -5 -4
-8 -15 -6 -26 2 -12 0 -18 -6 -15 -5 4 -7 10 -4 15 3 4 -1 13 -9 19 -10 8 -16
8 -25 -3 -7 -9 -8 -17 -2 -20 5 -3 11 -3 14 1 2 5 3 3 1 -3 -1 -6 3 -17 9 -23
6 -6 7 -11 2 -11 -4 0 0 -9 11 -21 14 -15 15 -20 4 -17 -8 2 -14 -3 -12 -9 1
-7 -1 -12 -5 -10 -5 1 -8 -2 -8 -8 0 -5 5 -9 10 -7 6 2 0 -7 -13 -20 -12 -14
-19 -27 -16 -31 10 -9 49 45 46 63 -2 13 -1 13 7 1 7 -11 3 -23 -15 -44 -24
-28 -24 -54 -1 -41 7 4 9 4 5 -1 -4 -4 -3 -13 2 -20 7 -8 5 -12 -5 -12 -7 0
-13 3 -12 6 1 3 -2 7 -8 9 -5 1 -10 -6 -10 -15 0 -12 7 -17 20 -15 12 2 16 0
9 -5 -6 -4 -10 -16 -8 -26 1 -9 -1 -15 -6 -12 -4 3 -13 -2 -19 -9 -8 -9 -8
-17 -2 -20 5 -3 12 -1 14 4 3 6 4 5 3 -2 -2 -7 5 -22 15 -34 15 -16 16 -21 5
-21 -8 0 -14 3 -13 6 1 3 -1 7 -5 9 -5 1 -7 0 -5 -1 1 -2 -4 -11 -11 -19 -10
-12 -10 -18 2 -27 9 -7 17 -8 20 -2 3 5 0 11 -6 14 -7 3 -3 4 9 4 l23 -1 -21
-22 c-18 -19 -18 -22 -4 -34 11 -9 13 -16 6 -23 -7 -7 -7 -14 0 -23 7 -8 7
-14 -1 -19 -6 -4 -10 -3 -9 2 3 19 -2 25 -15 14 -10 -9 -16 -8 -26 4 -7 8 -17
12 -23 8 -6 -3 -7 -1 -3 6 4 6 12 9 17 6 5 -4 9 1 9 10 0 9 -4 14 -8 11 -5 -3
-9 1 -9 9 0 8 4 12 9 9 4 -3 8 2 8 11 0 9 -3 14 -8 12 -9 -6 -9 99 1 109 4 4
1 14 -6 22 -9 13 -9 14 1 8 7 -4 12 -1 12 9 0 9 -3 14 -7 12 -5 -3 -8 28 -8
68 0 42 4 71 9 67 5 -3 6 2 3 12 -4 9 0 30 8 46 9 18 11 31 5 35 -6 3 -10 -2
-10 -11 0 -24 -8 -14 -14 19 -3 16 -1 25 5 22 12 -8 11 2 -2 27 -6 11 -7 18
-2 15 5 -3 9 9 9 28 0 19 -3 32 -6 30 -4 -2 -7 2 -7 10 0 8 4 12 9 9 13 -8 9
9 -7 30 -8 11 -15 29 -15 41 0 12 7 30 15 41 8 10 14 35 15 54 0 26 -3 31 -10
20 -6 -9 -10 -10 -10 -3 0 6 4 14 8 17 10 6 7 59 -3 77 -5 8 -4 10 3 5 7 -4
12 -1 12 9 0 9 -5 13 -11 9 -8 -5 -8 -1 0 14 14 26 14 35 1 27 -6 -3 -7 1 -4
10 4 8 1 21 -5 29 -13 15 -10 41 7 73 15 26 15 36 2 28 -7 -4 -7 3 0 20 13 33
13 38 -1 29 -8 -4 -8 0 0 15 7 12 9 25 6 30 -3 5 -2 17 2 27 4 12 8 14 11 6 3
-9 8 -10 17 -2z m66 -3 c-6 -8 -7 -18 -3 -22 4 -5 1 -5 -6 -1 -10 6 -10 11 -1
22 6 8 14 14 16 14 3 0 0 -6 -6 -13z m-14 -72 c0 -8 -4 -12 -9 -9 -5 3 -6 10
-3 15 9 13 12 11 12 -6z m33 -51 c0 -8 -19 -13 -24 -6 -3 5 1 9 9 9 8 0 15 -2
15 -3z m-30 -19 c0 -2 -6 -8 -13 -14 -10 -8 -14 -7 -14 2 0 8 6 14 14 14 7 0
13 -1 13 -2z m11 -18 c-6 -8 -7 -18 -3 -22 4 -5 1 -5 -6 -1 -10 6 -10 11 -1
22 6 8 14 14 16 14 3 0 0 -6 -6 -13z m-25 -35 c-3 -3 0 -12 6 -21 10 -13 10
-14 -2 -4 -16 15 -23 46 -8 37 5 -3 7 -9 4 -12z m31 -47 c0 -8 -4 -12 -9 -9
-5 3 -6 10 -3 15 9 13 12 11 12 -6z m-6 -32 c13 -17 13 -17 -6 -3 -11 8 -22
16 -24 17 -2 2 0 3 6 3 6 0 17 -8 24 -17z m-15 -28 c1 -8 -1 -17 -5 -19 -4 -3
-7 6 -7 19 0 25 8 25 12 0z m24 -19 c0 -2 -8 -10 -17 -17 -16 -13 -17 -12 -4
4 13 16 21 21 21 13z m-113 -138 c-3 -8 -6 -5 -6 6 -1 11 2 17 5 13 3 -3 4
-12 1 -19z m94 -81 c-6 -8 -7 -18 -3 -22 4 -5 1 -5 -6 -1 -10 6 -10 11 -1 22
6 8 14 14 16 14 3 0 0 -6 -6 -13z m16 -42 c0 -8 -4 -12 -9 -9 -5 3 -6 10 -3
15 9 13 12 11 12 -6z m0 -40 c0 -8 -4 -12 -9 -9 -5 3 -6 10 -3 15 9 13 12 11
12 -6z m-8 -29 c9 -11 9 -16 -1 -22 -7 -4 -10 -4 -6 1 4 4 3 14 -3 22 -6 7 -9
13 -6 13 2 0 10 -6 16 -14z m-15 -142 c3 -8 2 -12 -4 -9 -6 3 -10 10 -10 16 0
14 7 11 14 -7z m16 -87 c0 -2 -10 -12 -22 -23 l-23 -19 19 23 c18 21 26 27 26
19z m16 -52 c-1 -8 -8 -21 -16 -28 -10 -10 -11 -9 -4 3 5 8 9 18 10 23 3 14 4
17 8 17 2 0 3 -7 2 -15z m-35 -68 c-10 -9 -11 -8 -5 6 3 10 9 15 12 12 3 -3 0
-11 -7 -18z m26 -12 c0 -8 -4 -12 -9 -9 -5 3 -6 10 -3 15 9 13 12 11 12 -6z
m-31 -27 c-2 -13 2 -30 8 -38 9 -13 9 -13 -6 -2 -9 7 -15 21 -13 30 2 9 4 20
4 25 1 4 3 7 6 7 3 0 3 -10 1 -22z m41 -95 c0 -9 -4 -10 -14 -2 -7 6 -13 12
-13 14 0 1 6 2 13 2 8 0 14 -6 14 -14z m-35 -15 c-9 -9 -9 -15 1 -27 11 -14
10 -14 -6 -2 -13 10 -15 17 -6 27 6 8 14 14 17 14 3 0 1 -5 -6 -12z m5 -63 c0
-8 -4 -12 -9 -9 -5 3 -6 10 -3 15 9 13 12 11 12 -6z"/>
<path d="M197326 90181 c-4 -5 -2 -12 3 -15 5 -4 12 -2 15 3 4 5 2 12 -3 15
-5 4 -12 2 -15 -3z"/>
<path d="M197305 90118 c1 -35 -3 -72 -9 -83 -16 -31 -16 -48 -2 -80 8 -16 13
-48 11 -70 -2 -41 18 -85 29 -66 4 5 -1 14 -10 19 -15 8 -15 10 1 16 17 6 17
8 1 25 -12 13 -14 21 -6 26 6 4 7 12 2 18 -7 11 -8 29 -2 42 1 3 3 22 4 43 0
22 6 45 12 53 13 17 12 40 -1 37 -5 -2 -9 -11 -9 -20 1 -10 -2 -15 -6 -13 -9
6 -7 31 3 41 4 4 2 13 -4 20 -7 8 -6 14 2 20 7 4 9 3 5 -4 -3 -6 -2 -13 3 -16
21 -13 19 13 -3 33 l-23 21 2 -62z m10 -102 c0 -13 -4 -22 -9 -19 -4 3 -5 -5
-2 -18 6 -20 5 -21 -4 -7 -7 11 -7 25 0 42 12 32 15 33 15 2z"/>
<path d="M197290 89691 c-14 -27 -13 -54 5 -77 14 -17 14 -17 4 12 -6 21 -7
39 0 57 12 31 6 36 -9 8z"/>
<path d="M197316 89524 c-9 -20 -14 -40 -10 -45 3 -5 0 -18 -7 -27 -12 -14
-10 -14 8 1 11 10 20 26 18 35 -1 9 3 27 11 39 8 12 10 24 6 27 -5 3 -16 -11
-26 -30z"/>
<path d="M197315 89402 c-15 -37 -21 -134 -11 -204 2 -21 1 -40 -3 -42 -8 -5
-7 -83 2 -106 3 -8 6 -28 5 -45 0 -47 1 -49 22 -30 19 17 19 19 4 37 -10 10
-13 18 -9 18 4 0 0 9 -9 19 -12 13 -14 21 -6 26 5 3 8 10 5 15 -3 5 0 12 5 15
8 5 6 13 -4 24 -15 16 -14 19 4 36 16 14 18 21 8 33 -16 18 -19 40 -6 48 5 4
3 13 -7 24 -14 15 -14 18 0 30 11 9 12 16 5 25 -7 8 -4 17 10 30 19 17 18 41
-1 29 -5 -3 -6 -10 -3 -16 5 -7 2 -8 -5 -4 -9 6 -8 12 4 26 9 10 12 21 7 24
-6 3 -13 -2 -17 -12z"/>
<path d="M197138 90136 c4 -6 7 -14 7 -18 0 -19 11 -14 11 6 0 12 -6 23 -13
23 -6 0 -9 -5 -5 -11z"/>
<path d="M197144 90056 c1 -8 5 -18 8 -22 4 -3 5 1 4 10 -1 8 -5 18 -8 22 -4
3 -5 -1 -4 -10z"/>
<path d="M197120 90035 c13 -14 26 -25 28 -25 3 0 -5 11 -18 25 -13 14 -26 25
-28 25 -3 0 5 -11 18 -25z"/>
<path d="M197100 89996 c0 -2 8 -10 18 -17 15 -13 16 -12 3 4 -13 16 -21 21
-21 13z"/>
<path d="M197154 89773 c11 -13 16 -23 12 -23 -4 0 -2 -8 3 -18 7 -14 6 -26
-5 -43 l-16 -24 21 23 c15 18 18 28 11 42 -5 9 -7 19 -5 22 3 3 -5 13 -17 24
l-23 19 19 -22z"/>
<path d="M197144 89726 c1 -8 5 -18 8 -22 4 -3 5 1 4 10 -1 8 -5 18 -8 22 -4
3 -5 -1 -4 -10z"/>
<path d="M197143 89562 c10 -10 14 -22 10 -27 -5 -4 -2 -5 5 -1 11 6 10 12 -4
27 -9 10 -19 19 -22 19 -3 0 2 -8 11 -18z"/>
<path d="M197142 89434 c13 -14 15 -23 7 -31 -8 -8 -7 -13 3 -18 7 -5 10 -5 6
0 -4 4 -3 14 2 20 7 8 3 18 -13 31 -22 19 -22 19 -5 -2z"/>
<path d="M197143 89351 c0 -11 5 -18 9 -15 4 3 5 11 1 19 -7 21 -12 19 -10 -4z"/>
<path d="M197167 89360 c10 -11 10 -17 -3 -31 -12 -14 -13 -18 -2 -25 7 -4 10
-3 5 1 -4 5 0 16 8 25 14 15 14 18 -2 31 -15 11 -16 11 -6 -1z"/>
<path d="M197143 89202 c12 -13 14 -21 6 -29 -8 -8 -8 -13 0 -18 7 -4 10 -1 9
7 -2 7 4 12 12 10 10 -2 6 6 -9 22 -27 29 -43 36 -18 8z"/>
<path d="M197120 89156 c0 -2 8 -10 18 -17 15 -13 16 -12 3 4 -13 16 -21 21
-21 13z"/>
<path d="M197100 89116 c0 -2 8 -10 18 -17 15 -13 16 -12 3 4 -13 16 -21 21
-21 13z"/>
<path d="M197145 88981 c-3 -5 -1 -12 4 -16 5 -3 8 -14 6 -25 -2 -11 0 -22 4
-24 7 -5 7 39 1 54 -1 3 -2 8 -1 13 1 10 -7 9 -14 -2z"/>
<path d="M169946 62594 c-422 -49 -823 -171 -1201 -368 -169 -88 -306 -176
-480 -306 -536 -403 -928 -976 -1090 -1592 -166 -632 -103 -1264 182 -1831
l44 -88 -103 -112 c-56 -62 -165 -177 -243 -257 -217 -223 -351 -389 -495
-615 -45 -71 -151 -233 -235 -360 -84 -126 -196 -304 -249 -395 -90 -154 -332
-620 -322 -620 5 0 292 362 707 890 105 135 214 271 241 303 48 55 52 57 100
57 43 0 54 -4 83 -33 37 -37 69 -129 80 -229 l6 -56 86 91 c237 252 455 452
525 481 32 14 37 13 66 -4 132 -80 206 -368 156 -607 -47 -231 -145 -400 -379
-658 -419 -461 -802 -1030 -1009 -1498 l-26 -59 61 53 c33 29 134 131 224 228
89 97 283 293 431 436 148 143 365 355 484 470 451 441 697 671 735 685 35 13
111 13 138 -1 44 -23 88 -74 108 -128 17 -43 23 -86 27 -187 4 -121 2 -139
-22 -225 -71 -249 -244 -521 -671 -1054 -305 -380 -534 -710 -790 -1137 -115
-191 -248 -459 -285 -575 -42 -131 -41 -187 6 -272 54 -98 175 -300 377 -631
908 -1488 1258 -2129 1351 -2472 26 -95 75 -416 98 -638 17 -165 17 -608 0
-723 -34 -233 -111 -439 -224 -604 -29 -43 -105 -131 -168 -196 l-115 -119 -6
-127 c-10 -178 -2 -1153 11 -1416 41 -862 120 -1608 261 -2457 14 -85 28 -138
35 -138 6 0 33 9 60 20 27 11 202 76 389 145 187 69 538 200 780 290 242 90
643 239 890 330 248 92 605 224 795 295 661 246 1288 479 2035 755 198 73 684
253 1080 400 396 147 765 283 819 302 245 85 1303 536 1353 576 19 14 7 170
-22 280 -30 117 -94 276 -179 444 l-66 132 -138 -94 c-981 -666 -2084 -797
-3312 -391 -576 190 -1249 543 -1841 966 -875 626 -1703 1443 -2241 2210 -521
743 -948 1669 -1142 2472 -6 26 -3 28 97 66 434 168 1079 530 1900 1067 204
133 1001 654 1102 720 559 364 1282 772 1675 945 52 23 109 48 125 55 257 118
663 244 934 291 316 54 639 -14 1096 -231 393 -186 517 -236 635 -255 118 -18
217 5 314 73 101 71 155 288 135 538 l-9 114 37 32 c61 51 139 94 226 126 70
25 101 30 212 34 146 6 256 -10 378 -54 657 -236 1187 -1008 1187 -1729 0
-341 -128 -623 -349 -769 -33 -22 -61 -43 -61 -46 0 -11 237 -430 353 -624
745 -1238 1938 -2816 3343 -4421 l202 -231 155 -101 c450 -295 971 -548 1457
-708 285 -94 475 -144 795 -209 973 -197 1899 -492 2955 -940 409 -174 1171
-532 1332 -626 652 -381 1341 -1339 1941 -2699 846 -1919 1513 -4399 1976
-7350 291 -1849 487 -3988 536 -5840 3 -113 7 -263 10 -335 19 -504 11 -1881
-14 -2585 -18 -478 -63 -1357 -76 -1450 -5 -37 3 -26 25 34 8 21 14 26 28 21
56 -24 53 -28 126 167 1414 3776 2188 7013 2381 9958 41 638 54 1622 27 2155
-66 1303 -233 2375 -537 3446 -619 2176 -1745 3966 -3325 5283 -685 571 -1466
1055 -2220 1374 -91 38 -205 93 -255 122 -300 174 -967 515 -1351 690 -681
311 -1387 592 -2633 1047 -879 320 -1221 453 -1606 623 -454 200 -808 406
-1034 600 -61 52 -84 81 -118 145 -95 180 -129 296 -203 705 -146 803 -328
1574 -540 2285 -724 2425 -1843 4262 -3306 5428 -942 750 -2024 1220 -3189
1386 -425 60 -750 81 -1152 75 l-262 -4 -32 58 c-209 371 -522 698 -891 931
-85 53 -346 191 -363 191 -3 0 -86 38 -183 84 -356 168 -704 267 -1082 306
-133 14 -532 10 -674 -6z m-998 -627 c-336 -215 -593 -449 -814 -744 -353
-468 -537 -1007 -536 -1568 0 -279 31 -481 114 -742 l41 -133 -59 -62 c-32
-35 -62 -64 -65 -66 -17 -8 -122 269 -164 432 -186 728 -5 1504 493 2123 195
242 512 515 777 668 75 44 309 164 319 165 5 0 -43 -33 -106 -73z m7394 -1855
c699 -335 1304 -773 1883 -1363 656 -669 1191 -1438 1665 -2394 411 -830 726
-1667 1000 -2660 73 -264 211 -817 206 -822 -1 -2 -29 70 -60 159 -168 476
-416 1110 -616 1578 -992 2320 -2132 3985 -3436 5020 -251 200 -572 417 -796
540 -43 23 -78 43 -78 45 0 6 54 -18 232 -103z m15283 -14522 c415 -423 923
-1088 1267 -1660 944 -1568 1499 -3413 1668 -5545 60 -764 66 -1753 15 -2605
-95 -1572 -369 -3264 -820 -5065 -111 -446 -267 -1027 -273 -1021 -2 2 15 84
37 183 688 3055 967 5815 826 8173 -136 2260 -651 4197 -1546 5810 -360 651
-807 1287 -1275 1815 -102 116 -70 89 101 -85z m1852 -15932 c-3 -8 -6 -5 -6
6 -1 11 2 17 5 13 3 -3 4 -12 1 -19z"/>
<path d="M113895 55408 c-318 -12 -520 -38 -776 -98 -339 -80 -700 -220 -1010
-391 -112 -61 -333 -199 -327 -204 2 -1 156 13 343 31 403 40 423 40 340 12
-150 -51 -719 -258 -890 -323 -257 -98 -416 -169 -630 -279 -445 -230 -897
-519 -1227 -784 -114 -91 -150 -200 -149 -452 0 -285 54 -570 177 -932 181
-532 361 -846 654 -1138 219 -219 521 -420 773 -515 l65 -24 -42 92 c-24 51
-71 147 -104 213 l-61 121 24 60 c50 124 60 179 60 343 0 131 -4 167 -23 235
-30 106 -138 322 -207 413 -30 39 -53 72 -51 72 2 0 29 -11 59 -25 85 -39 232
-73 374 -86 756 -69 1862 387 2678 1104 205 179 363 353 539 590 78 104 236
353 248 389 7 21 29 -2 96 -100 112 -165 156 -274 192 -480 22 -126 41 -331
34 -370 -3 -13 -6 -112 -7 -221 -2 -214 9 -293 75 -541 53 -199 181 -576 204
-599 14 -15 332 19 364 39 8 5 7 27 -4 83 -22 106 -21 265 3 349 45 164 202
333 477 516 l91 61 -23 154 c-101 682 -304 1337 -587 1904 -180 359 -339 584
-456 643 -223 112 -692 162 -1296 138z"/>
<path d="M173200 53683 c-41 -7 -1318 -625 -1356 -656 -52 -43 -78 -100 -78
-173 -1 -82 36 -144 114 -188 47 -27 64 -31 130 -31 l75 0 240 117 c975 472
1072 521 1103 551 97 93 102 215 13 307 -63 65 -144 90 -241 73z"/>
<path d="M174236 52719 c-14 -11 -49 -66 -78 -122 -153 -298 -365 -468 -686
-550 -76 -19 -112 -22 -292 -21 -174 0 -219 3 -300 22 -128 30 -145 29 -186
-12 -38 -38 -44 -77 -19 -126 19 -37 51 -53 140 -73 230 -51 503 -52 718 -2
357 83 642 314 827 670 61 117 64 149 16 199 -27 30 -40 36 -73 36 -26 0 -50
-8 -67 -21z"/>
<path d="M114035 52555 c-84 -21 -227 -93 -308 -155 -96 -73 -257 -230 -338
-330 -39 -48 -92 -129 -121 -187 -46 -92 -52 -111 -56 -183 -8 -133 28 -180
136 -180 92 0 133 28 332 224 256 252 378 365 537 498 79 65 147 127 153 138
13 24 13 55 0 100 -15 52 -36 74 -73 77 -161 12 -206 12 -262 -2z"/>
<path d="M169702 51585 c-29 -15 -63 -41 -76 -59 -13 -17 -132 -248 -265 -514
-261 -523 -263 -528 -225 -608 49 -104 205 -161 325 -119 94 33 91 30 360 568
l251 502 -4 57 c-8 115 -100 189 -243 196 -60 3 -78 -1 -123 -23z"/>
<path d="M113955 51556 c-17 -7 -45 -29 -62 -49 -106 -121 -39 -368 125 -464
67 -39 153 -39 204 -1 20 15 46 48 58 73 19 40 22 58 18 128 -6 97 -29 154
-94 227 -77 84 -175 118 -249 86z"/>
<path d="M111740 51224 c-298 -36 -482 -129 -589 -298 -22 -35 -45 -67 -51
-71 -16 -10 -12 -57 11 -100 39 -75 57 -78 231 -41 135 29 321 56 633 91 190
21 238 30 275 49 97 51 135 145 89 225 -41 74 -142 126 -283 147 -109 17 -165
16 -316 -2z"/>
<path d="M171141 50709 c-33 -32 -33 -34 -31 -164 2 -167 -33 -365 -87 -490
-94 -215 -297 -389 -513 -441 -84 -20 -109 -32 -126 -66 -24 -47 -18 -86 21
-125 35 -35 37 -36 98 -30 121 10 304 89 419 180 204 160 328 373 383 658 22
112 31 370 16 427 -23 82 -121 110 -180 51z"/>
<path d="M111945 50568 c-156 -55 -167 -300 -20 -457 58 -62 130 -95 196 -89
59 6 91 26 127 80 24 38 27 50 27 132 0 78 -4 99 -27 148 -63 136 -203 222
-303 186z"/>
<path d="M113445 49304 c-81 -28 -117 -93 -154 -274 -92 -443 -25 -724 187
-784 72 -20 102 -20 190 -1 180 37 470 189 566 296 90 99 103 200 43 323 -51
103 -102 155 -239 247 -262 175 -462 240 -593 193z"/>
<path d="M189682 42428 c-163 -521 -876 -1899 -1595 -3083 -595 -979 -1200
-1839 -1671 -2375 -65 -74 -75 -90 -57 -90 5 0 278 -120 608 -266 329 -146
603 -268 609 -271 21 -8 308 422 481 722 502 874 913 1904 1162 2920 111 453
295 1309 385 1796 63 338 118 719 104 719 -2 0 -14 -32 -26 -72z"/>
<path d="M172570 39580 c-102 -32 -340 -106 -530 -165 -190 -59 -421 -131
-515 -160 -93 -29 -325 -101 -515 -160 -190 -59 -451 -140 -580 -180 -129 -40
-347 -108 -485 -150 -137 -42 -326 -101 -420 -130 -93 -29 -282 -88 -420 -131
-137 -42 -253 -80 -257 -83 -6 -6 165 -387 181 -404 4 -4 106 4 227 18 120 14
298 35 394 46 96 11 191 22 210 24 19 3 98 11 175 20 77 8 152 17 167 20 25 4
31 -5 138 -208 666 -1257 1386 -2336 2239 -3352 146 -173 483 -557 517 -587
11 -9 334 -138 719 -286 693 -267 2502 -966 3120 -1206 176 -68 321 -123 323
-121 5 4 -28 297 -43 383 -38 223 -109 400 -187 466 -52 45 -65 48 -309 81
-515 68 -1029 237 -1444 474 -750 428 -1323 1058 -1766 1941 -311 622 -552
1400 -664 2150 -56 374 -58 397 -62 1098 -3 498 -7 662 -16 661 -7 0 -95 -27
-197 -59z"/>
<path d="M104045 36839 c-70 -10 -200 -52 -270 -87 -72 -35 -203 -125 -255
-174 -95 -90 -199 -227 -250 -328 -12 -25 -23 -46 -25 -48 -1 -1 -33 4 -71 12
-193 40 -316 51 -589 51 -297 -1 -438 -14 -695 -65 -442 -89 -954 -280 -1334
-499 -376 -217 -672 -519 -906 -926 -86 -149 -256 -505 -281 -587 l-20 -67
-45 19 c-196 84 -483 122 -694 90 -230 -34 -485 -172 -596 -323 -68 -91 -88
-171 -81 -316 11 -247 97 -443 460 -1049 290 -484 359 -643 360 -837 1 -114
-10 -162 -53 -227 -53 -79 -142 -123 -280 -137 l-75 -7 83 -27 c255 -83 509
-33 597 117 57 98 54 251 -10 441 -18 55 -32 101 -31 103 2 1 28 -44 58 -100
98 -181 138 -328 117 -428 -10 -49 -22 -64 -153 -199 -252 -262 -326 -402
-326 -614 0 -196 92 -367 234 -437 110 -54 220 -60 381 -18 l40 10 -75 27
c-158 56 -224 118 -223 211 1 70 36 129 93 157 25 12 92 31 150 43 239 47 395
174 515 415 72 143 89 221 88 405 0 139 -3 167 -30 270 -45 171 -110 305 -304
620 -259 421 -369 622 -455 832 -84 205 -106 354 -64 445 27 61 130 125 266
167 20 6 21 3 22 -126 3 -370 92 -751 269 -1148 143 -324 363 -676 569 -909
167 -190 411 -397 605 -514 274 -165 583 -276 854 -307 55 -7 102 -14 104 -16
2 -2 -10 -88 -27 -191 -16 -104 -29 -189 -27 -191 1 -2 33 49 70 113 37 63 73
119 80 123 11 6 6 42 -26 182 -22 96 -42 182 -45 190 -3 8 -33 38 -66 65 -34
28 -96 82 -138 120 -136 126 -125 119 -152 101 -90 -59 -281 -79 -402 -42
-175 52 -367 196 -510 380 -87 112 -130 188 -161 281 -23 67 -26 92 -23 155 6
103 31 148 116 210 131 96 247 120 392 79 135 -37 245 -118 497 -363 212 -205
312 -343 369 -504 28 -79 28 -71 10 133 -7 77 -12 141 -10 143 1 2 31 -52 66
-119 l63 -123 5 143 5 144 52 -109 c29 -60 92 -219 141 -354 49 -135 97 -261
105 -280 l16 -35 -5 60 c-11 120 -37 255 -94 480 -32 127 -74 308 -93 404 -34
164 -40 180 -111 325 -144 294 -411 676 -747 1071 -118 138 -242 372 -323 607
-14 42 -29 84 -33 94 -3 9 51 -31 122 -90 132 -109 270 -208 341 -244 57 -29
155 -59 254 -77 104 -19 410 -31 544 -20 95 7 98 8 80 25 -33 31 -194 88 -324
114 -151 31 -223 54 -304 100 -62 35 -181 125 -174 131 2 2 68 -16 148 -41
192 -59 486 -139 602 -165 67 -15 146 -22 286 -26 l193 -6 -32 -19 c-17 -10
-68 -58 -113 -106 -159 -171 -222 -227 -320 -287 -170 -104 -211 -176 -114
-200 20 -5 49 4 120 39 162 79 274 158 388 275 123 126 174 204 175 268 l0 43
72 0 c39 0 74 4 77 9 13 20 -126 221 -223 324 -96 101 -158 145 -328 231 -84
42 -153 80 -153 83 0 16 268 -29 373 -63 178 -59 295 -186 384 -419 l23 -60
-6 65 c-6 61 -50 251 -69 295 -8 18 -7 18 8 7 32 -27 109 -150 131 -213 l24
-64 31 98 c65 204 75 356 29 455 -29 63 -139 170 -213 207 -40 20 -54 31 -42
33 30 6 188 -18 226 -34 54 -23 136 -89 172 -139 32 -44 34 -45 42 -23 15 42
20 173 8 225 -14 59 -68 121 -133 154 -30 16 -38 23 -27 29 8 4 93 31 189 60
96 30 179 56 183 60 4 4 -42 29 -102 55 -61 27 -110 50 -108 51 1 1 50 34 109
72 l106 71 99 -82 c280 -233 541 -528 649 -732 83 -155 200 -431 286 -670 33
-92 259 -540 287 -568 5 -5 5 14 1 40 -5 27 -11 73 -15 103 -28 229 -192 979
-271 1238 -14 46 -24 85 -22 87 2 2 23 -53 47 -123 131 -379 237 -569 403
-728 126 -120 242 -188 403 -235 68 -20 102 -24 225 -24 94 0 163 5 195 14 79
22 174 76 260 147 44 36 97 74 117 85 48 25 111 24 164 -2 102 -49 118 -179
44 -345 -10 -24 -15 -44 -11 -44 16 0 87 58 138 112 73 79 115 165 121 253 6
94 -11 168 -56 246 -44 76 -148 183 -215 222 -147 86 -339 108 -644 72 -161
-18 -194 -14 -261 35 -74 53 -160 186 -221 343 -17 43 -31 80 -31 84 0 3 23
-30 51 -73 73 -112 113 -158 182 -210 79 -59 119 -75 192 -77 81 -2 174 41
256 119 85 82 141 174 190 313 l19 54 -61 -66 c-79 -87 -165 -132 -254 -132
-90 0 -187 50 -284 149 -134 134 -191 251 -386 781 -134 365 -172 460 -246
607 -161 323 -326 485 -529 517 -36 6 -69 10 -75 10 -5 -1 -37 -5 -70 -10z
m25 -1329 c6 -11 8 -20 6 -20 -3 0 -10 9 -16 20 -6 11 -8 20 -6 20 3 0 10 -9
16 -20z m54 -106 c3 -8 2 -12 -4 -9 -6 3 -10 10 -10 16 0 14 7 11 14 -7z"/>
<path d="M125120 36123 c-105 -59 -402 -195 -590 -271 -645 -259 -1401 -436
-2165 -507 -379 -35 -527 -40 -1115 -40 -631 0 -707 3 -1230 56 -168 17 -572
76 -735 108 -82 16 -151 28 -153 26 -12 -11 -132 -646 -191 -1013 -28 -172
-60 -340 -72 -374 -65 -195 -234 -506 -649 -1198 -981 -1635 -1548 -2762
-1993 -3960 -614 -1654 -878 -3190 -827 -4795 50 -1539 353 -3276 911 -5225
277 -965 683 -2160 1050 -3086 l99 -251 80 14 c302 52 638 55 825 8 158 -41
370 -181 487 -322 l52 -63 399 0 c355 0 398 2 393 15 -3 9 -48 154 -100 323
-1028 3336 -1681 6169 -1835 7967 -35 397 -44 914 -22 1180 84 1004 626 2696
1473 4600 161 361 155 349 395 755 115 195 330 560 478 810 476 807 726 1231
826 1400 l97 165 122 -7 c68 -4 124 -9 126 -10 1 -2 -31 -95 -72 -208 -695
-1903 -1232 -3783 -1553 -5440 -170 -873 -271 -1622 -333 -2460 -19 -259 -16
-888 5 -1120 71 -758 226 -1469 510 -2331 514 -1558 1477 -3415 2665 -5134 69
-99 126 -182 128 -183 1 -2 15 5 31 16 32 23 206 54 406 73 164 15 427 7 527
-16 171 -39 408 -188 522 -330 l53 -65 448 0 449 0 -20 33 c-11 17 -75 136
-142 262 -723 1353 -1373 2707 -1892 3938 -680 1616 -1128 3072 -1235 4012
-24 210 -23 723 0 965 84 847 316 1725 732 2775 248 624 490 1156 909 1992
212 425 320 633 746 1448 235 448 508 1002 600 1220 267 626 419 1448 470
2535 19 416 9 1414 -18 1682 l-7 68 -65 -37z"/>
<path d="M154754 35238 c-1303 -1831 -2902 -4771 -4716 -8668 -1132 -2430
-2424 -5428 -3498 -8115 -162 -404 -171 -430 -153 -443 10 -7 92 -52 183 -99
176 -92 607 -320 1120 -593 173 -92 767 -407 1320 -700 553 -293 1088 -578
1189 -633 139 -75 189 -97 200 -90 46 28 993 1175 1592 1928 548 689 1171
1495 1652 2140 140 187 207 270 203 250 -24 -117 -405 -2524 -526 -3325 -240
-1592 -311 -2072 -307 -2076 2 -2 433 -148 958 -325 525 -176 1091 -367 1259
-424 168 -57 694 -234 1170 -395 476 -161 957 -323 1069 -361 112 -38 208 -69
211 -69 23 0 840 1822 1357 3025 1129 2628 2011 4904 2684 6926 l192 577 383
-767 c1766 -3532 3249 -5955 4793 -7836 503 -613 1109 -1249 1626 -1706 404
-357 825 -670 1270 -946 194 -120 564 -310 784 -403 759 -319 1829 -543 2941
-617 319 -21 1149 -23 1525 -4 l260 13 130 -72 c653 -361 1308 -615 1970 -764
1054 -238 2039 -378 3030 -432 378 -20 1272 -15 1566 10 580 48 974 101 1384
186 806 166 1483 395 2150 725 804 398 1442 856 2091 1500 426 424 746 814
1098 1344 606 909 1079 1963 1410 3141 80 284 118 442 109 450 -4 4 -114 39
-243 79 -485 151 -1869 617 -2341 790 -90 33 -245 89 -344 124 -2554 918
-4953 1961 -6660 2895 -2252 1232 -3601 2388 -4041 3463 -38 93 -57 125 -133
217 -49 59 -182 222 -297 362 -524 641 -1194 1426 -1753 2055 -454 510 -630
704 -993 1096 -209 225 -246 261 -320 306 -1146 699 -1751 1078 -2821 1770
-1003 649 -2832 1868 -3762 2508 -121 83 -283 194 -360 246 l-140 95 -345 53
c-190 29 -572 88 -850 131 -487 76 -1817 282 -3030 469 -1097 170 -1944 301
-2432 377 l-488 76 -117 -63 c-194 -102 -372 -208 -468 -277 -49 -36 -135 -98
-191 -138 -242 -175 -439 -274 -617 -310 -110 -22 -319 -15 -432 16 -98 26
-213 79 -266 121 -109 86 -119 201 -25 272 45 35 311 264 504 435 85 75 161
142 170 148 15 11 15 13 2 18 -22 7 -492 76 -515 76 -11 0 -81 -45 -155 -100
-211 -155 -357 -226 -543 -266 -103 -21 -291 -18 -397 7 -187 44 -370 172
-370 260 0 31 72 116 177 211 82 72 83 73 55 81 -15 4 -247 41 -517 82 -269
41 -500 77 -512 80 -19 4 -35 -13 -109 -117z"/>
<path d="M103311 34088 c-105 -39 -29 -110 176 -164 176 -46 412 -41 573 13
43 14 57 24 64 46 22 62 -27 81 -174 67 -151 -15 -220 -12 -357 16 -161 32
-238 38 -282 22z"/>
<path d="M103950 33654 c-54 -23 -89 -63 -106 -120 -40 -140 86 -272 224 -235
54 15 117 71 133 118 51 155 -104 301 -251 237z"/>
<path d="M102405 33081 c-74 -34 -115 -95 -115 -172 0 -56 20 -98 68 -141 100
-90 257 -45 298 87 23 71 7 132 -47 186 -58 58 -133 73 -204 40z"/>
<path d="M103984 32115 c-146 -73 -229 -227 -204 -380 22 -132 105 -205 234
-205 137 0 240 111 207 223 -7 23 -19 49 -26 57 -9 11 -11 31 -5 69 8 63 3
143 -11 188 -24 74 -104 94 -195 48z"/>
<path d="M56791 30008 l1 -453 77 -69 c232 -210 963 -956 1266 -1293 l119
-131 50 20 c77 30 239 113 329 170 226 140 498 383 668 598 210 267 397 599
499 886 32 92 35 104 21 104 -5 0 -26 8 -47 17 -43 19 -47 20 -70 22 -8 0 -12
5 -9 11 3 5 0 7 -8 4 -20 -7 -364 133 -577 237 -192 94 -311 158 -491 265
l-107 64 -861 0 -861 0 1 -452z"/>
<path d="M83690 30403 c-289 -139 -632 -289 -907 -398 l-123 -49 0 -42 c0 -77
31 -266 65 -399 78 -302 207 -568 406 -835 99 -134 356 -400 489 -507 106 -85
282 -204 297 -201 7 2 228 184 493 406 l480 402 0 840 0 840 -542 -1 -543 0
-115 -56z"/>
<path d="M80925 28742 c-336 -198 -441 -305 -647 -657 -37 -64 -188 -370 -188
-382 0 -7 -4 -13 -8 -13 -8 0 -159 -92 -179 -110 -7 -5 -15 -10 -19 -10 -4 0
-30 -14 -58 -32 -126 -79 -158 -99 -266 -168 -63 -41 -116 -78 -118 -82 -2 -4
-8 -8 -13 -8 -9 0 -87 -48 -99 -60 -3 -3 -45 -32 -95 -66 -257 -172 -376 -270
-402 -331 -33 -80 -6 -242 52 -309 14 -16 25 -32 25 -36 0 -15 106 -77 151
-89 33 -9 59 -10 90 -3 l44 10 -65 1 c-77 1 -126 20 -181 70 -85 77 -121 212
-84 310 36 94 116 161 506 421 213 142 753 481 999 627 154 91 180 109 201
142 25 38 24 85 -2 109 -20 18 -21 18 -64 -5 -25 -13 -83 -55 -131 -93 l-86
-70 7 33 c11 50 72 183 117 258 120 197 298 375 539 541 91 63 79 63 -26 2z"/>
<path d="M60190 27750 c93 -78 283 -166 457 -212 113 -30 128 -32 337 -34
l219 -2 46 -89 c71 -136 117 -201 211 -293 131 -130 257 -194 408 -204 61 -5
63 -4 16 3 -123 20 -213 63 -309 146 -112 98 -241 291 -317 478 -30 73 -34 78
-58 73 -14 -3 -54 -13 -90 -21 -94 -22 -298 -30 -402 -16 -171 23 -331 76
-476 158 -64 36 -71 38 -42 13z"/>
<path d="M60714 27401 c-116 -53 -158 -229 -90 -378 76 -164 337 -434 538
-554 89 -54 192 -95 253 -103 l50 -6 -60 18 c-135 40 -306 155 -469 318 -174
173 -250 281 -281 401 -30 114 -9 202 65 276 53 53 52 54 -6 28z"/>
<path d="M80300 27026 c-470 -298 -948 -570 -1090 -619 -10 -4 -10 -6 -2 -6
28 -2 257 96 442 189 196 97 328 169 538 293 62 37 117 67 123 67 5 0 9 -8 9
-18 0 -35 61 -140 102 -177 55 -50 135 -85 221 -97 71 -10 72 -11 91 -51 29
-61 120 -151 184 -183 51 -26 68 -29 157 -29 79 0 107 4 128 18 34 22 37 22
37 -5 0 -39 43 -89 119 -139 56 -37 83 -49 112 -49 51 0 49 7 -3 20 -60 16
-114 53 -143 100 -41 65 -42 93 -6 136 17 21 29 40 26 42 -2 2 -24 -10 -49
-27 -96 -66 -265 -78 -370 -27 -87 43 -183 167 -159 205 84 135 82 149 -9 63
l-46 -45 -72 7 c-179 18 -262 91 -296 262 -5 26 2 38 56 97 34 37 58 67 53 66
-4 0 -73 -42 -153 -93z"/>
<path d="M60353 27044 c-77 -51 -121 -155 -109 -258 14 -112 92 -230 258 -393
191 -188 395 -305 526 -302 l47 1 -44 9 c-66 13 -216 90 -306 158 -140 106
-304 280 -368 391 -36 62 -61 163 -53 218 8 60 41 131 78 170 39 39 26 41 -29
6z"/>
<path d="M59979 26890 c-46 -24 -94 -84 -115 -142 -14 -41 -18 -161 -5 -183 3
-5 7 -19 8 -29 4 -26 54 -116 65 -116 4 0 8 -5 8 -11 0 -11 52 -83 74 -104 6
-5 31 -34 55 -63 24 -29 78 -80 120 -114 98 -79 121 -94 51 -33 -126 110 -265
275 -315 374 -13 26 -29 74 -35 107 -28 143 64 300 189 325 34 6 33 7 -14 7
-31 1 -64 -6 -86 -18z"/>
<path d="M72994 26828 c-141 -149 -297 -392 -396 -618 -47 -106 -100 -263
-113 -332 -4 -22 -13 -38 -21 -38 -7 0 -80 15 -161 34 -272 64 -434 85 -696
93 l-198 6 43 26 c208 124 456 336 473 403 11 42 2 71 -27 87 -24 14 -32 13
-81 -2 -107 -34 -301 -166 -498 -340 l-97 -85 -78 121 c-175 270 -346 468
-446 515 -62 29 -121 29 -149 1 -64 -64 55 -281 281 -510 l115 -117 -55 14
c-168 42 -535 95 -795 115 -162 12 -644 15 -784 4 -450 -33 -884 -113 -1235
-225 l-98 -32 -56 40 c-132 92 -286 158 -457 198 -112 26 -394 27 -515 1 -118
-25 -246 -69 -359 -124 l-95 -45 -76 25 c-145 49 -232 62 -410 61 -221 0 -380
-37 -587 -134 -473 -223 -805 -661 -924 -1220 -19 -86 -23 -142 -25 -311 l-2
-206 -30 -59 c-44 -88 -89 -222 -113 -337 -68 -337 6 -688 202 -952 74 -100
214 -222 315 -273 l41 -21 7 -80 c8 -93 33 -182 70 -245 25 -42 78 -96 96 -96
5 0 12 20 16 46 5 34 10 44 23 42 13 -3 16 -14 14 -58 -14 -367 12 -653 93
-1020 102 -461 307 -939 511 -1192 29 -38 58 -68 62 -68 5 0 -16 57 -46 126
-131 305 -225 655 -275 1017 -31 224 -33 703 -4 905 10 73 20 131 21 130 2 -2
6 -52 9 -113 31 -501 137 -943 311 -1300 116 -237 248 -418 436 -599 l112
-109 211 6 c185 5 409 23 530 43 l38 6 -39 42 c-103 107 -223 280 -311 446
-148 281 -246 658 -257 990 l-5 145 15 -80 c88 -467 354 -963 762 -1422 l73
-82 -34 -11 c-39 -13 -88 -63 -205 -213 -97 -125 -196 -221 -331 -321 -112
-84 -323 -210 -444 -265 -83 -39 -105 -53 -68 -45 9 2 79 15 156 29 436 82
757 250 959 505 127 159 139 258 38 306 l-44 21 51 7 c140 18 500 118 712 196
238 89 570 245 570 268 0 4 -37 54 -81 110 -283 364 -540 845 -689 1292 -107
323 -171 693 -169 985 l0 110 34 -115 c87 -300 226 -613 372 -835 274 -416
644 -745 1100 -977 142 -73 365 -166 486 -204 l57 -18 -34 -28 c-75 -61 -63
-140 37 -242 177 -181 531 -323 855 -343 51 -3 95 -10 98 -14 3 -5 -7 -9 -21
-9 -44 0 -145 -30 -222 -65 -285 -132 -503 -442 -564 -804 -17 -102 -15 -322
5 -424 34 -178 101 -331 203 -465 81 -106 242 -232 296 -232 16 0 7 9 -30 29
-180 99 -312 258 -386 465 -143 398 -12 872 306 1112 80 60 194 117 282 140
95 25 266 25 355 -1 283 -80 487 -306 571 -632 31 -117 33 -328 5 -448 -24
-105 -66 -214 -116 -299 -42 -72 -45 -102 -5 -52 75 94 163 315 191 480 25
147 16 376 -20 511 -87 324 -298 570 -561 655 -53 16 -110 31 -128 31 -17 1
40 7 128 14 254 20 257 22 74 60 -466 96 -722 209 -1060 467 -53 40 -110 80
-126 90 -18 9 -56 54 -92 107 -65 97 -201 329 -201 343 0 5 26 -11 58 -36 103
-78 273 -185 402 -250 341 -174 696 -276 1135 -328 122 -14 691 -18 766 -5
l46 8 -59 182 c-109 333 -192 697 -237 1035 -57 426 -52 923 13 1247 l14 70 1
-63 c2 -102 30 -344 57 -490 180 -975 665 -1694 1408 -2088 104 -55 309 -144
332 -144 7 0 14 27 18 63 23 204 93 454 176 620 212 423 533 572 860 401 183
-96 357 -310 471 -581 25 -58 46 -97 50 -90 4 6 15 111 25 232 14 165 19 315
18 598 0 207 2 377 3 377 2 0 22 -10 45 -21 137 -70 275 -100 453 -98 162 2
209 13 90 21 -168 13 -353 79 -496 179 -60 42 -73 57 -41 44 91 -36 319 -46
445 -20 377 78 662 388 702 767 7 62 10 70 44 95 173 132 359 378 440 584 59
148 82 253 88 401 10 233 -34 405 -141 558 -30 43 -31 48 -24 105 5 33 9 130
9 215 4 604 -260 1133 -724 1451 -393 271 -914 309 -1341 98 l-85 -42 -49 45
c-120 113 -297 213 -452 258 -93 27 -314 38 -416 21 -262 -45 -514 -200 -707
-436 -95 -117 -210 -333 -262 -495 -16 -47 -29 -87 -31 -88 -1 -2 -19 1 -38 8
-47 15 -50 31 -43 199 15 333 127 649 314 879 19 23 33 42 31 42 -2 0 -22 -19
-44 -42z m529 -239 c39 -21 49 -49 17 -49 -24 0 -63 37 -55 50 8 13 12 12 38
-1z m-132 -88 l23 -19 -56 -61 c-31 -33 -79 -96 -107 -138 -83 -129 -111 -164
-129 -161 -29 6 -21 85 17 162 36 74 181 236 211 236 10 0 28 -8 41 -19z
m-306 -2395 c116 -328 353 -623 617 -766 l73 -39 18 -93 c27 -135 89 -282 162
-384 11 -15 12 -21 3 -21 -167 -9 -243 5 -373 67 -90 43 -208 124 -268 184
-13 12 -47 51 -77 87 -30 35 -57 66 -60 69 -29 27 -125 199 -170 305 -11 25
-33 95 -36 114 -2 7 -8 36 -16 65 -12 50 -17 280 -7 321 19 70 36 115 58 148
l25 39 16 -22 c9 -13 25 -46 35 -74z m-7596 -551 c-81 -200 -193 -537 -272
-823 -36 -128 -68 -236 -71 -239 -17 -17 -17 17 -2 113 51 330 155 660 318
1003 51 110 60 123 73 110 13 -13 8 -32 -46 -164z m7051 -1852 c111 -206 213
-351 413 -586 53 -63 97 -117 97 -121 0 -17 -26 1 -99 70 -154 145 -319 378
-432 610 -38 78 -69 145 -69 149 0 4 6 5 13 3 6 -3 41 -59 77 -125z m-5636
-763 c54 -148 121 -284 215 -434 82 -130 99 -169 44 -99 -101 128 -223 359
-287 541 -20 57 -36 109 -36 115 0 30 30 -28 64 -123z m6277 10 c21 -12 26
-50 6 -50 -16 0 -57 37 -57 50 0 13 26 13 51 0z"/>
<path d="M61745 26671 c11 -13 47 -44 80 -70 33 -25 69 -53 80 -63 39 -32 132
-104 245 -190 63 -48 127 -96 141 -107 61 -48 271 -187 356 -238 168 -98 239
-110 373 -61 85 32 134 74 193 165 4 6 -17 -13 -48 -42 -69 -67 -142 -98 -240
-99 -64 -1 -79 3 -170 47 -163 78 -476 280 -815 525 -80 58 -161 116 -180 130
-33 24 -34 25 -15 3z"/>
<path d="M74520 20739 c-43 -5 -92 -22 -146 -48 -140 -70 -240 -200 -279 -362
-27 -114 -15 -294 28 -414 13 -38 14 -34 20 110 15 361 132 568 392 691 39 18
66 33 60 32 -5 0 -39 -4 -75 -9z"/>
<path d="M74392 20200 c14 -63 21 -134 21 -210 1 -133 -16 -190 -83 -277 -43
-57 -40 -64 18 -34 125 65 188 225 148 381 -20 79 -55 153 -95 200 l-29 35 20
-95z"/>
<path d="M61847 19919 c56 -62 78 -170 49 -249 -11 -30 -20 -37 -67 -50 l-54
-16 34 -7 c18 -4 43 -7 55 -7 41 0 147 -59 200 -113 74 -74 99 -143 94 -255
-3 -54 -9 -87 -19 -96 -8 -8 -44 -24 -81 -36 -38 -12 -68 -24 -68 -27 0 -3 35
-3 78 0 l79 6 54 -48 c105 -93 141 -230 91 -341 -34 -76 -39 -79 -137 -92 -60
-7 -83 -14 -70 -19 11 -4 125 -21 253 -39 509 -69 952 -149 1127 -205 12 -4 9
0 -7 9 -15 9 -37 18 -50 20 -13 3 -24 5 -25 7 -2 1 -6 2 -10 4 -5 1 -16 5 -25
9 -9 4 -22 8 -30 10 -7 1 -18 5 -24 8 -36 23 -524 130 -829 183 -82 14 -155
28 -162 30 -9 3 -6 17 9 52 17 36 22 68 22 128 1 71 -3 88 -33 149 -18 38 -53
90 -76 115 -43 46 -44 47 -33 91 5 25 8 81 5 125 -6 96 -35 168 -96 237 -40
45 -128 98 -162 98 -16 0 -16 3 -3 28 42 82 -11 263 -91 304 -18 10 -18 9 2
-13z"/>
<path d="M70890 19831 c-30 -10 -75 -28 -100 -41 -45 -23 -154 -120 -171 -152
-8 -16 -7 -17 16 -8 69 26 151 5 202 -53 101 -115 41 -278 -114 -311 -71 -16
-160 34 -194 108 l-17 39 -9 -49 c-4 -27 -7 -89 -7 -139 5 -342 251 -615 554
-615 99 0 180 25 266 81 85 55 146 125 194 224 54 109 70 180 71 305 0 128
-16 195 -76 317 -74 151 -192 252 -344 297 -73 21 -201 20 -271 -3z m120 -544
c0 -8 -3 -17 -7 -20 -9 -9 -34 13 -27 24 8 14 34 11 34 -4z"/>
<path d="M58656 19554 c1 -185 -14 -425 -36 -554 -6 -36 -13 -78 -16 -95 -34
-218 -84 -446 -148 -679 -20 -71 -34 -131 -32 -133 4 -5 110 230 143 315 47
127 94 297 120 440 24 132 27 172 27 382 0 236 -7 312 -47 464 -12 45 -13 32
-11 -140z"/>
<path d="M67200 19405 c-252 -57 -452 -273 -517 -557 -22 -99 -22 -296 2 -408
40 -197 145 -401 279 -543 50 -53 142 -133 169 -148 37 -21 14 10 -39 52 -78
62 -177 188 -229 294 -121 243 -128 536 -20 758 120 247 358 389 625 374 82
-5 215 -33 169 -36 -26 -2 -130 -83 -172 -134 -38 -47 -38 -47 -10 -36 117 45
245 -44 245 -170 0 -57 -19 -98 -66 -139 -87 -76 -229 -44 -276 61 l-18 40 -9
-49 c-12 -71 -7 -200 11 -278 41 -173 159 -328 306 -399 182 -88 390 -57 539
82 l53 49 -6 -40 c-15 -90 -70 -219 -132 -305 -9 -13 -12 -23 -8 -23 13 0 87
126 112 190 38 97 53 172 59 290 14 286 -99 585 -301 797 -119 126 -257 214
-411 263 -91 29 -262 36 -355 15z m626 -706 c10 -17 -13 -36 -27 -22 -12 12
-4 33 11 33 5 0 12 -5 16 -11z"/>
<path d="M77120 18910 c-6 -23 -9 -73 -7 -111 6 -91 58 -201 119 -253 77 -66
371 -164 781 -260 352 -82 625 -133 427 -80 -454 122 -603 165 -783 225 -268
88 -405 153 -448 212 -58 77 -73 123 -73 219 -1 49 -2 88 -3 88 -1 0 -7 -18
-13 -40z"/>
<path d="M82124 18663 c-138 -216 -283 -570 -360 -878 -58 -235 -77 -391 -77
-625 -1 -294 28 -495 110 -762 4 -15 18 -18 72 -19 36 0 73 -2 81 -4 9 -1 90
-6 180 -10 91 -4 172 -8 180 -10 8 -1 71 -6 140 -9 69 -4 141 -9 160 -11 19
-2 73 -7 120 -10 623 -45 1343 -134 1748 -215 204 -42 364 -76 394 -86 17 -5
18 41 18 920 l0 926 -117 0 c-439 1 -1089 144 -1623 358 -301 121 -721 328
-878 433 -44 30 -97 59 -106 59 -3 0 -22 -26 -42 -57z"/>
<path d="M56790 18421 c0 -161 -14 -141 115 -161 350 -54 1026 -230 1535 -399
l114 -38 -34 29 c-97 81 -324 221 -505 311 -275 137 -680 286 -902 332 -10 2
-58 12 -108 23 -49 11 -108 23 -129 26 -21 4 -50 9 -62 12 l-24 6 0 -141z"/>
<path d="M74010 18474 c-6 -14 -10 -29 -10 -34 0 -23 -97 -318 -147 -450 -199
-522 -466 -983 -811 -1400 -129 -155 -440 -463 -587 -581 -135 -109 -414 -300
-550 -378 -355 -204 -785 -358 -1188 -426 -251 -42 -355 -48 -671 -40 -380 9
-386 9 -386 16 0 3 -48 14 -107 23 -60 10 -146 26 -193 37 -47 11 -96 22 -110
25 -71 14 -314 95 -453 150 -379 152 -769 390 -1085 663 -77 67 -117 85 -117
54 0 -26 246 -263 410 -394 380 -303 749 -511 1156 -650 148 -50 185 -66 175
-76 -3 -3 0 -10 5 -17 5 -6 30 -53 54 -104 53 -110 120 -216 182 -289 24 -29
43 -53 41 -53 -2 0 -51 6 -110 14 -184 25 -471 20 -653 -11 -88 -15 -86 -15
-106 64 -26 104 -58 173 -80 173 -23 0 -36 -45 -46 -160 l-8 -84 -35 -8 c-150
-35 -241 -74 -364 -157 -167 -113 -362 -297 -444 -421 -52 -78 -99 -200 -112
-292 -6 -39 -12 -74 -15 -76 -8 -8 -34 99 -45 193 -12 88 -9 198 5 295 l6 35
-15 -26 c-45 -78 -81 -308 -70 -449 5 -72 2 -101 -19 -188 -14 -57 -37 -127
-51 -157 -25 -54 -109 -155 -130 -155 -6 0 -18 -4 -26 -10 -12 -8 -12 -11 1
-27 50 -57 100 -182 119 -294 l12 -66 141 -6 c304 -14 537 -76 782 -209 l100
-54 33 19 c18 11 35 17 38 15 2 -3 -9 -11 -26 -18 -31 -13 -37 -24 -19 -35 6
-4 19 2 30 14 10 11 38 25 62 32 37 10 47 9 82 -10 22 -12 92 -71 155 -133
115 -112 192 -169 309 -227 74 -38 89 -36 29 4 -170 112 -391 310 -443 398
-27 47 -30 84 -10 131 7 15 5 17 -6 11 -8 -5 -11 -5 -6 1 5 5 14 9 20 9 7 1
10 7 9 15 -2 8 0 12 3 8 4 -4 25 2 46 12 75 39 93 32 236 -91 153 -133 241
-193 354 -241 92 -40 196 -65 223 -55 15 6 15 9 2 34 -8 16 -25 36 -38 47
-192 155 -285 265 -310 362 -16 65 -28 77 -21 23 12 -99 78 -197 232 -347 l86
-84 -59 6 c-126 14 -295 115 -495 297 -25 23 -56 52 -69 63 -12 11 -41 23 -65
27 -36 6 -38 7 -10 8 l31 1 -45 68 c-96 142 -138 278 -131 423 6 120 34 186
109 253 65 58 142 87 234 88 87 0 141 -14 227 -59 189 -99 388 -399 478 -723
24 -83 31 -98 59 -115 309 -194 439 -318 536 -515 21 -41 39 -76 40 -78 2 -2
42 -7 89 -11 95 -9 249 1 371 24 65 13 258 67 320 91 11 4 12 -2 4 -33 -48
-210 -61 -658 -25 -883 20 -130 63 -303 99 -401 l24 -67 -36 -5 c-20 -3 -81
-12 -136 -21 -218 -33 -471 -49 -700 -43 -338 10 -573 46 -831 128 -69 22
-127 39 -128 37 -1 -2 -35 -61 -74 -133 -39 -71 -83 -149 -97 -171 l-25 -41
118 -43 c668 -242 1187 -621 1507 -1100 130 -195 227 -397 277 -578 15 -52 29
-84 39 -87 9 -3 71 -34 137 -70 221 -117 480 -286 737 -480 50 -38 110 -77
134 -88 58 -26 133 -20 198 16 111 62 214 107 274 122 233 54 474 -42 541
-217 l23 -58 45 6 c115 15 640 106 768 132 l144 30 10 -24 c14 -31 6 -40 -136
-151 -252 -196 -528 -353 -786 -446 -52 -19 -98 -41 -102 -48 -3 -8 -32 -68
-63 -133 -97 -207 -227 -380 -374 -498 -294 -235 -564 -228 -1059 28 -244 126
-546 333 -792 542 l-95 81 -50 -48 c-79 -77 -210 -177 -317 -243 -85 -52 -99
-64 -94 -82 10 -32 73 -351 86 -433 7 -45 17 -73 24 -73 25 0 364 90 450 119
50 17 93 31 97 31 3 0 9 -27 11 -60 5 -71 43 -133 98 -161 37 -19 144 -37 385
-66 117 -14 228 -18 510 -17 385 0 499 8 815 60 545 89 1098 286 1537 548 159
95 145 70 128 216 -29 248 -71 509 -100 621 l-6 26 133 -36 c133 -35 133 -35
348 -36 238 0 298 9 488 71 177 58 350 147 523 269 91 64 300 238 352 293 l29
30 64 -29 c94 -43 208 -79 248 -79 70 0 121 68 196 260 42 106 77 160 182 279
189 213 231 283 231 381 0 81 -34 135 -109 173 -26 13 -39 34 -75 119 -57 137
-228 474 -314 618 -112 189 -383 584 -425 620 -3 3 -37 43 -75 90 -275 337
-632 678 -920 879 -11 8 39 -46 112 -120 151 -153 247 -267 416 -494 440 -590
842 -1329 864 -1587 8 -87 -9 -118 -65 -118 -132 1 -526 372 -1085 1023 -96
111 -181 213 -190 227 -44 68 -150 468 -182 683 -35 244 -40 573 -11 767 44
296 113 506 238 725 161 282 291 621 363 940 30 134 71 419 83 575 12 146 12
531 1 675 -19 246 -63 523 -119 750 -28 114 -85 298 -75 245 10 -58 35 -275
42 -371 13 -165 9 -739 -5 -879 -87 -846 -346 -1514 -800 -2064 -41 -50 -136
-152 -211 -226 -653 -651 -1600 -1114 -2739 -1339 -188 -38 -474 -79 -567 -83
l-69 -3 -13 85 c-38 261 -45 579 -18 767 50 346 156 528 440 756 357 287 912
582 1840 977 268 114 398 178 389 191 -9 15 -87 10 -165 -11 -140 -39 -253
-61 -276 -55 -17 4 -23 13 -23 33 0 40 27 77 144 200 139 145 142 173 12 107
-93 -47 -128 -46 -176 4 -52 54 -71 135 -77 331 -8 224 29 669 91 1105 8 55
13 101 11 103 -5 6 -43 -167 -69 -318 -31 -178 -54 -376 -62 -535 -3 -66 -8
-129 -9 -140 -2 -11 -4 -131 -4 -267 l-1 -247 -87 41 c-80 37 -359 145 -393
152 -8 1 -40 10 -71 20 -31 9 -65 19 -75 21 -47 12 -152 35 -183 40 -18 3 -36
7 -40 9 -3 2 -34 7 -68 11 -34 3 -72 8 -85 10 -36 7 -198 20 -255 20 -29 0
-53 3 -53 7 0 4 22 36 49 72 158 209 265 479 306 768 6 46 6 46 136 139 770
548 1354 1361 1679 2339 91 271 134 438 119 456 -6 8 -16 14 -21 14 -5 0 -24
10 -41 23 -37 26 -57 38 -110 66 l-38 21 -9 -26z m-2013 -2861 c-3 -10 -5 -2
-5 17 0 19 2 27 5 18 2 -10 2 -26 0 -35z m-10 -65 c-3 -8 -6 -5 -6 6 -1 11 2
17 5 13 3 -3 4 -12 1 -19z m-10 -50 c-3 -8 -6 -5 -6 6 -1 11 2 17 5 13 3 -3 4
-12 1 -19z m-10 -50 c-3 -8 -6 -5 -6 6 -1 11 2 17 5 13 3 -3 4 -12 1 -19z
m-82 -235 c-86 -205 -285 -441 -482 -571 -243 -159 -573 -240 -834 -203 -373
53 -681 276 -853 618 -33 66 -48 108 -27 74 12 -18 207 -64 381 -90 239 -34
390 -44 605 -38 444 13 777 80 1223 246 1 1 -5 -16 -13 -36z m-3212 -2568 c-3
-9 -8 -14 -10 -11 -3 3 -2 9 2 15 9 16 15 13 8 -4z m27 -120 c11 -13 8 -15
-16 -14 -17 1 -22 3 -11 6 9 2 15 9 12 14 -10 15 1 10 15 -6z m-67 -2 c-7 -2
-21 -2 -30 0 -10 3 -4 5 12 5 17 0 24 -2 18 -5z m-66 -9 c-3 -3 -12 -4 -19 -1
-8 3 -5 6 6 6 11 1 17 -2 13 -5z m5642 -3709 c32 -16 48 -45 30 -55 -6 -4 -33
-10 -59 -13 -26 -3 -102 -24 -168 -47 -126 -43 -168 -47 -186 -17 -17 28 56
91 130 113 116 33 212 41 253 19z m-511 -159 c2 -10 -3 -16 -16 -16 -23 0 -46
25 -38 39 9 14 50 -3 54 -23z"/>
<path d="M78585 18470 c66 -88 191 -166 322 -202 119 -32 340 -30 486 4 l108
25 26 -41 c121 -193 330 -380 541 -486 89 -44 257 -103 275 -97 7 2 -13 12
-43 22 -145 47 -336 170 -461 296 -93 94 -186 225 -234 329 -16 36 -30 66 -31
68 0 1 -19 -4 -40 -12 -76 -26 -279 -67 -380 -76 -238 -21 -432 35 -553 160
-19 19 -26 24 -16 10z"/>
<path d="M63537 18289 c39 -25 90 -99 104 -153 28 -102 -13 -232 -93 -300 -72
-62 -168 -74 -418 -52 -96 9 -193 18 -215 21 -22 3 -134 16 -248 30 -233 28
-816 112 -1035 149 -143 23 -182 23 -230 -3 -23 -12 -38 -51 -28 -76 10 -26
57 -37 191 -44 l130 -6 -75 -42 c-142 -81 -327 -140 -505 -162 -112 -14 -387
-14 -479 -1 -113 17 -86 4 41 -19 413 -75 650 -35 1177 198 l139 62 276 -41
c584 -85 1043 -131 1166 -115 87 10 158 73 207 181 17 38 22 67 22 134 0 84
-3 95 -50 183 -15 27 -79 77 -99 77 -5 0 4 -10 22 -21z"/>
<path d="M66299 17876 c4 -446 -7 -713 -39 -998 -55 -484 -179 -835 -355
-1010 -49 -49 -80 -69 -165 -106 l-25 -11 25 0 c56 -1 165 31 242 71 201 104
362 329 478 664 74 215 139 525 174 829 l13 120 -42 85 c-100 201 -208 464
-274 666 l-36 112 4 -422z"/>
<path d="M70569 18237 c15 -18 51 -23 51 -7 0 6 -6 10 -14 10 -8 0 -23 3 -33
7 -16 6 -16 5 -4 -10z"/>
<path d="M68920 18155 c35 -73 49 -132 50 -206 l0 -55 -72 18 c-182 48 -335
-12 -400 -156 -19 -42 -23 -68 -23 -151 0 -89 3 -106 27 -150 79 -151 284
-246 443 -205 29 7 29 8 -10 9 -184 6 -356 141 -381 299 -16 103 58 245 144
273 53 18 145 16 229 -5 40 -10 80 -16 88 -12 11 4 15 21 15 68 0 108 -40 218
-105 293 l-35 40 30 -60z"/>
<path d="M79705 17839 c-32 -191 -218 -289 -520 -274 -314 17 -577 86 -707
185 l-43 34 40 -43 c74 -79 280 -162 490 -197 130 -21 375 -30 460 -15 179 31
305 147 305 278 0 68 -16 87 -25 32z"/>
<path d="M80368 17663 c7 -3 16 -2 19 1 4 3 -2 6 -13 5 -11 0 -14 -3 -6 -6z"/>
<path d="M79661 17389 c-2 -69 -33 -133 -91 -190 -79 -78 -143 -99 -311 -106
-274 -12 -553 52 -717 165 -41 27 -59 36 -47 22 82 -96 210 -160 405 -204 173
-40 437 -50 545 -21 144 38 236 143 234 267 0 57 -17 117 -18 67z"/>
<path d="M79744 17048 c29 -44 32 -133 7 -199 -28 -74 -105 -148 -184 -177
-71 -27 -250 -45 -377 -38 -85 4 -89 4 -40 -5 30 -6 129 -9 220 -6 142 3 173
7 223 26 126 49 198 136 205 246 5 75 -9 123 -45 156 l-26 24 17 -27z"/>
<path d="M67000 16820 c0 -19 -14 -102 -30 -184 -88 -432 -247 -720 -443 -798
-37 -15 -39 -17 -15 -17 77 -2 213 47 303 109 95 65 196 187 282 340 37 64
123 272 123 294 0 14 -75 115 -190 256 l-29 35 -1 -35z"/>
<path d="M69271 16786 c-84 -28 -130 -98 -131 -200 l0 -60 28 25 c129 118 369
139 682 59 63 -16 116 -27 118 -25 8 8 -271 136 -371 170 -127 43 -252 55
-326 31z"/>
<path d="M78968 16663 c7 -3 16 -2 19 1 4 3 -2 6 -13 5 -11 0 -14 -3 -6 -6z"/>
<path d="M79020 16650 c14 -4 36 -8 50 -8 22 0 22 1 -5 8 -16 4 -39 8 -50 8
-16 0 -15 -2 5 -8z"/>
<path d="M66383 15813 c9 -2 25 -2 35 0 9 3 1 5 -18 5 -19 0 -27 -2 -17 -5z"/>
<path d="M65598 15753 c6 -2 18 -2 25 0 6 3 1 5 -13 5 -14 0 -19 -2 -12 -5z"/>
<path d="M103661 13134 c-29 -59 -71 -161 -93 -228 -34 -101 -42 -138 -46
-224 -4 -97 -3 -104 21 -141 30 -45 83 -73 188 -96 142 -33 1317 -26 1577 9
204 28 320 73 362 141 42 69 14 192 -63 273 -57 61 -181 141 -265 173 -30 11
-27 8 36 -40 52 -41 79 -86 61 -107 -6 -7 -28 -18 -48 -24 -22 -6 -285 -12
-637 -14 -639 -5 -740 0 -884 43 -146 45 -180 98 -160 249 6 46 9 86 7 88 -2
2 -27 -44 -56 -102z"/>
<path d="M107816 12973 c-3 -21 -6 -97 -6 -169 0 -147 17 -225 53 -248 41 -27
322 -64 757 -101 102 -8 210 -17 240 -20 349 -31 983 -67 1195 -68 322 -2 475
41 475 134 0 80 -151 169 -540 319 -169 65 -176 67 -95 24 114 -59 144 -97 83
-107 -38 -6 -358 -1 -415 7 -21 2 -87 8 -148 11 -60 4 -117 8 -125 10 -21 4
-104 12 -245 25 -66 6 -131 13 -145 15 -14 2 -50 6 -80 10 -119 14 -138 16
-210 26 -103 14 -315 48 -375 59 -233 45 -367 80 -389 101 -17 16 -23 10 -30
-28z"/>
<path d="M148875 12455 c-38 -23 -171 -102 -295 -175 -1276 -754 -2481 -1499
-3353 -2074 -482 -318 -825 -520 -1192 -704 -577 -288 -1114 -427 -1625 -421
-337 4 -652 55 -965 155 -213 69 -333 172 -432 369 -75 148 -111 282 -184 675
-22 118 -51 259 -65 312 -101 401 -258 589 -559 669 -88 24 -307 31 -440 16
-336 -40 -707 -163 -1140 -379 -156 -78 -174 -88 -365 -201 -292 -174 -598
-394 -841 -606 -132 -115 -403 -393 -492 -506 -319 -400 -429 -698 -388 -1054
77 -661 631 -1304 1383 -1607 491 -197 1318 -286 2028 -218 683 65 1295 242
2000 579 230 110 374 186 785 415 561 312 660 367 840 462 505 268 913 448
1321 582 414 136 775 204 1589 300 585 70 722 88 909 122 532 97 743 195 977
455 176 196 294 369 404 594 264 537 350 1201 249 1920 -18 128 -62 347 -72
356 -4 4 -38 -13 -77 -36z"/>
<path d="M67046 12425 c-45 -16 -96 -62 -96 -87 0 -20 29 -38 62 -38 69 0 168
60 168 101 0 38 -63 50 -134 24z"/>
<path d="M67366 12343 c-74 -21 -142 -111 -153 -202 -10 -85 41 -236 97 -286
17 -15 15 -9 -9 27 -44 65 -62 122 -63 199 -2 239 252 320 434 138 39 -40 88
-114 88 -135 0 -3 -17 8 -37 26 -49 43 -92 60 -153 60 -172 0 -279 -175 -201
-328 11 -21 27 -44 35 -51 9 -7 13 -18 9 -24 -3 -6 -1 -7 5 -3 7 4 12 2 12 -4
0 -6 6 -13 13 -15 6 -2 25 -9 40 -15 l29 -10 -59 -44 c-127 -97 -228 -251
-294 -448 -36 -108 -49 -245 -30 -325 14 -59 61 -120 107 -139 67 -28 221 -7
359 50 184 75 292 163 321 263 22 75 14 245 -16 358 -40 151 -138 315 -187
315 -13 0 -9 8 14 33 61 64 80 134 62 227 -6 34 -16 57 -21 54 -6 -4 -8 1 -4
12 8 26 -46 117 -101 171 -66 64 -134 95 -213 99 -36 2 -74 0 -84 -3z m108
-369 c23 -23 20 -51 -8 -69 -34 -23 -66 -5 -66 35 0 44 44 65 74 34z m42 -439
c11 -27 -5 -59 -61 -127 -57 -69 -74 -79 -94 -55 -8 10 0 31 35 88 60 98 105
133 120 94z m-196 -250 c7 -9 10 -18 7 -21 -9 -9 -45 6 -51 21 -7 20 28 20 44
0z"/>
<path d="M60495 12120 c-19 -8 -18 -9 4 -9 82 -3 185 -78 211 -155 11 -34 10
-39 -12 -69 -51 -67 -48 -70 20 -20 86 64 269 81 366 34 56 -28 127 -95 154
-147 l20 -38 -25 -40 c-14 -22 -32 -56 -40 -75 -14 -35 -13 -35 45 23 l60 59
89 -5 c137 -6 211 -52 264 -163 40 -83 38 -110 -14 -170 -23 -28 -49 -59 -57
-69 -20 -26 -27 -31 240 149 461 312 814 530 939 582 31 12 50 23 42 23 -37 0
-452 -200 -488 -236 -8 -8 -19 -14 -25 -14 -15 0 -478 -278 -498 -300 -8 -8
-72 -41 -75 -38 -1 2 -15 31 -30 65 -53 120 -174 202 -310 211 l-72 4 -31 53
c-38 63 -107 127 -176 163 -42 21 -67 26 -142 29 -79 2 -97 0 -136 -20 l-46
-23 -11 36 c-11 36 -59 91 -103 116 -89 52 -123 61 -163 44z"/>
<path d="M62840 12041 c-17 -5 -5 -7 40 -7 115 -1 199 -55 252 -161 55 -113
42 -221 -39 -309 -103 -111 -514 -408 -1194 -860 -409 -272 -429 -288 -429
-351 0 -22 35 -63 53 -63 20 0 86 48 170 122 42 38 77 64 77 56 -1 -29 -61
-184 -103 -261 -111 -208 -282 -396 -542 -595 -46 -36 4 -9 99 53 155 101 303
230 363 319 16 23 33 46 39 53 9 10 26 36 81 128 53 87 134 247 194 381 l71
159 67 44 c333 220 867 594 901 631 3 4 25 21 50 38 68 49 189 174 197 202 10
37 9 162 -1 185 -5 11 -10 26 -12 34 -1 8 -12 27 -23 42 -12 16 -21 33 -21 38
0 16 -82 81 -130 103 -49 23 -120 31 -160 19z"/>
<path d="M67370 11796 c0 -2 8 -10 18 -17 15 -13 16 -12 3 4 -13 16 -21 21
-21 13z"/>
<path d="M66630 11015 c-113 -32 -212 -114 -241 -202 -6 -19 -9 -59 -7 -89 11
-131 148 -226 322 -223 l71 2 -75 7 c-318 31 -386 348 -102 478 63 28 164 39
227 24 l40 -10 -40 -1 c-55 -2 -136 -41 -172 -85 -121 -147 -21 -364 169 -367
l53 -1 -30 -13 c-16 -8 -24 -14 -17 -15 24 0 127 59 159 92 67 69 90 168 57
246 -28 67 -124 149 -160 135 -11 -4 -15 -3 -11 4 10 16 -20 25 -108 29 -53 3
-99 -1 -135 -11z m132 -147 c24 -20 28 -44 12 -67 -18 -25 -41 -27 -66 -4 -24
22 -23 49 4 67 27 19 30 19 50 4z"/>
<path d="M66117 10963 c-4 -3 -7 -28 -7 -55 0 -76 50 -158 97 -158 59 0 47
125 -20 198 -20 21 -56 29 -70 15z"/>
<path d="M66788 10513 c7 -3 16 -2 19 1 4 3 -2 6 -13 5 -11 0 -14 -3 -6 -6z"/>
<path d="M78926 10357 c-64 -97 -61 -296 5 -390 52 -75 211 -186 514 -360 218
-124 520 -284 600 -316 63 -26 54 -20 -135 87 -478 272 -868 535 -944 635 -57
75 -74 221 -37 317 21 54 20 63 -3 27z"/>
<path d="M156588 9998 c-229 -356 -645 -767 -1143 -1128 -384 -278 -812 -534
-1315 -785 -394 -198 -1076 -512 -1430 -660 -30 -12 -152 -63 -270 -112 -269
-112 -508 -204 -860 -332 -322 -116 -452 -167 -575 -226 -206 -99 -464 -261
-795 -499 -188 -135 -305 -199 -440 -240 -263 -79 -518 -93 -840 -46 -211 31
-442 98 -655 191 -337 146 -491 295 -760 733 -232 378 -325 504 -442 597 -179
142 -363 180 -618 126 -40 -9 -128 -22 -215 -32 -97 -11 -124 -14 -190 -20
-36 -4 -76 -8 -90 -10 -14 -2 -52 -6 -85 -9 -33 -4 -76 -8 -95 -11 -19 -2 -57
-7 -85 -10 -27 -3 -70 -8 -95 -11 -25 -3 -56 -7 -70 -9 -14 -2 -45 -7 -70 -10
-25 -4 -85 -13 -135 -21 -122 -19 -144 -23 -185 -31 -19 -3 -42 -7 -50 -9 -21
-3 -108 -23 -210 -46 -488 -111 -881 -299 -1138 -543 -113 -108 -192 -213
-257 -344 -73 -146 -89 -218 -88 -396 0 -129 3 -163 26 -247 79 -295 243 -560
528 -853 406 -416 946 -762 1598 -1025 322 -129 774 -259 1081 -309 749 -124
1584 -102 2431 65 858 168 1637 433 2956 1005 440 191 770 325 944 383 75 25
341 98 590 161 562 144 830 215 1164 311 838 240 1426 500 1735 767 129 111
193 198 280 380 177 368 254 771 253 1332 0 247 -18 580 -37 683 -2 9 -7 46
-10 82 -4 36 -11 90 -16 120 -6 30 -12 72 -16 94 -3 21 -8 48 -10 60 -2 11 -7
41 -10 66 -3 25 -8 53 -10 62 -3 10 -7 30 -10 45 -11 70 -38 197 -61 293 -13
58 -27 116 -29 130 -8 44 -95 364 -103 378 -5 9 -29 -21 -73 -90z"/>
<path d="M58240 9848 c0 -2 36 -41 81 -87 129 -134 239 -270 382 -467 l36 -51
-47 22 c-192 91 -413 124 -667 101 -87 -8 -271 -46 -375 -78 -227 -70 -496
-205 -757 -380 l-103 -68 0 -1022 c0 -972 1 -1020 18 -1006 428 367 952 698
1753 1107 272 139 494 244 793 377 80 35 120 58 122 70 3 21 -107 236 -172
337 -94 146 -266 343 -351 402 -13 9 -61 73 -107 143 -143 216 -289 375 -472
512 -68 52 -134 95 -134 88z"/>
<path d="M68080 9507 c0 -29 -3 -76 -7 -106 l-6 -54 59 38 c32 20 68 45 78 56
19 18 19 19 -14 48 -19 16 -39 27 -44 24 -5 -3 -6 -1 -2 5 3 6 -4 17 -16 24
-43 23 -48 19 -48 -35z m49 16 c-3 -21 2 -33 13 -27 7 5 8 3 3 -6 -6 -10 -11
-9 -21 5 -7 10 -11 22 -8 26 6 11 14 12 13 2z m37 -80 c2 -27 1 -27 -14 3 -8
15 -8 21 1 21 7 0 13 -11 13 -24z"/>
<path d="M80226 9517 c3 -10 9 -15 12 -12 3 3 0 11 -7 18 -10 9 -11 8 -5 -6z"/>
<path d="M80246 9478 c28 -50 96 -125 148 -164 147 -111 314 -164 563 -180
l101 -7 21 -66 c34 -105 135 -298 206 -392 101 -134 258 -276 380 -344 59 -33
52 -25 -30 37 -85 64 -229 219 -288 308 -85 130 -162 315 -182 435 -3 22 -9
52 -11 68 l-6 27 -146 0 c-323 0 -540 69 -690 218 -41 40 -70 67 -66 60z"/>
<path d="M70055 8981 c-3 -5 -2 -12 3 -15 5 -3 9 1 9 9 0 17 -3 19 -12 6z"/>
<path d="M70074 8949 c-4 -8 -3 -9 4 -5 7 4 12 1 12 -7 0 -8 10 -22 23 -33 22
-19 22 -19 5 2 -10 11 -18 26 -18 32 0 16 -18 24 -26 11z"/>
<path d="M70133 8859 c11 -17 14 -16 20 7 1 4 -6 8 -15 10 -14 2 -15 -1 -5
-17z"/>
<path d="M79925 8855 c95 -153 368 -316 679 -406 140 -41 212 -51 289 -40 121
17 203 70 243 156 24 51 32 115 14 115 -5 0 -10 -7 -10 -15 0 -26 -36 -88 -72
-122 -52 -50 -121 -76 -214 -81 -108 -6 -190 9 -353 64 -228 77 -396 171 -526
293 -45 44 -63 56 -50 36z"/>
<path d="M70163 8832 c0 -9 9 -30 20 -47 10 -16 16 -21 12 -10 -4 11 -8 25 -8
32 0 7 -5 9 -10 6 -6 -4 -8 0 -4 10 3 9 3 19 -2 21 -4 3 -8 -3 -8 -12z"/>
<path d="M83609 8713 c-519 -533 -830 -1230 -833 -1866 l-1 -167 325 -109
c693 -232 1230 -432 1654 -615 72 -31 131 -56 133 -56 2 0 3 31 3 69 l0 69
-142 70 c-601 294 -995 638 -1193 1037 -112 226 -152 386 -159 643 l-4 102 65
107 c92 155 237 344 338 446 32 32 -5 8 -75 -49 -71 -57 -218 -205 -264 -267
-16 -21 -31 -36 -33 -33 -2 2 9 55 25 118 49 187 130 374 233 540 26 43 47 78
45 78 -1 0 -54 -53 -117 -117z"/>
<path d="M70207 8755 c-4 -8 -1 -14 6 -12 7 1 11 -6 9 -15 -3 -21 4 -24 11 -5
3 7 -1 21 -8 30 -11 15 -13 16 -18 2z"/>
<path d="M70236 8703 c-4 -10 -4 -14 0 -10 4 4 13 2 21 -4 10 -9 11 -15 1 -26
-9 -11 -8 -13 2 -11 8 2 15 -3 16 -9 1 -7 3 -15 4 -18 1 -3 4 -9 5 -15 1 -5 4
-13 5 -17 1 -5 2 -11 1 -15 0 -5 4 -7 11 -5 7 1 13 -4 14 -10 1 -7 3 -15 4
-18 1 -3 3 -8 4 -12 1 -5 8 -19 16 -33 8 -14 15 -34 15 -45 1 -11 6 -19 13
-17 7 1 13 -5 13 -13 1 -8 2 -24 3 -34 0 -11 6 -25 13 -32 6 -6 10 -17 9 -23
-2 -6 -1 -8 1 -3 3 4 9 4 14 1 6 -4 6 -11 -1 -19 -8 -10 -8 -15 2 -21 7 -4 10
-3 5 1 -4 5 1 17 10 27 14 15 14 19 3 16 -10 -2 -14 4 -12 17 2 16 1 17 -7 5
-6 -8 -11 -12 -12 -7 -5 26 -4 34 5 46 8 11 8 13 -2 7 -12 -7 -21 6 -26 37 -1
8 -7 21 -14 29 -6 8 -8 19 -4 23 4 5 1 4 -7 0 -11 -6 -13 -4 -8 8 3 8 -1 21
-9 28 -8 6 -12 14 -9 17 3 3 -2 14 -12 24 -9 10 -12 18 -8 18 4 0 0 9 -11 21
-10 12 -18 23 -16 25 1 2 1 6 1 9 -1 3 -2 8 -3 13 0 4 -11 20 -22 35 -19 23
-23 25 -28 10z m139 -242 c3 -5 2 -12 -3 -15 -5 -3 -9 1 -9 9 0 17 3 19 12 6z"/>
<path d="M79832 8387 c70 -139 316 -303 578 -386 155 -49 181 -54 266 -54 67
1 93 6 143 28 111 50 169 139 161 245 -1 19 -5 15 -15 -20 -19 -60 -70 -119
-136 -155 -45 -24 -68 -30 -143 -33 -125 -6 -257 25 -448 108 -147 63 -245
127 -340 221 -79 79 -85 83 -66 46z"/>
<path d="M70445 8310 c-3 -5 -8 -23 -10 -40 -3 -26 -1 -29 11 -19 9 7 14 8 14
1 0 -6 -5 -14 -10 -17 -7 -4 -7 -12 0 -24 5 -10 6 -22 2 -27 -4 -5 3 0 16 10
26 23 29 11 5 -17 -10 -11 -12 -17 -5 -13 9 6 11 1 8 -18 -4 -23 14 -52 26
-40 3 2 6 -7 6 -20 0 -14 -4 -23 -9 -20 -5 3 -6 -2 -2 -11 4 -12 8 -13 13 -5
5 8 10 9 14 2 3 -6 2 -14 -4 -17 -11 -7 -7 -62 6 -73 4 -4 4 1 1 10 -7 21 9
34 16 14 3 -7 -1 -23 -9 -34 -12 -17 -12 -22 1 -32 18 -15 20 -34 3 -24 -6 4
-4 -3 5 -17 20 -28 22 -43 5 -33 -7 4 -5 -2 5 -13 18 -20 23 -38 9 -29 -5 3
-9 -2 -9 -10 0 -13 2 -13 15 0 9 8 11 19 6 27 -4 8 -9 23 -11 34 -5 35 -10 60
-13 63 -8 8 -5 30 8 51 8 13 10 21 4 17 -15 -9 -22 20 -9 33 7 7 8 12 2 11
-22 -5 -27 1 -15 16 11 12 11 15 0 12 -7 -2 -15 3 -18 11 -2 8 0 11 5 8 5 -3
10 0 10 8 0 8 -5 11 -10 8 -6 -4 -8 1 -4 11 5 11 3 15 -5 10 -7 -5 -9 -2 -6 8
4 8 2 21 -3 29 -8 12 -10 12 -8 -1 3 -28 -1 -41 -10 -35 -6 3 -8 14 -5 25 2
11 6 29 9 41 2 11 -4 34 -15 51 -10 17 -16 38 -13 47 4 11 1 10 -10 -4 -19
-23 -21 -17 -7 19 9 26 7 35 -5 16z m28 -103 c-3 -5 -9 -3 -14 4 -4 7 -5 17
-2 22 3 5 9 3 14 -4 4 -7 5 -17 2 -22z m62 -186 c3 -5 1 -12 -5 -16 -5 -3 -10
1 -10 9 0 18 6 21 15 7z"/>
<path d="M70565 7935 c3 -16 8 -45 10 -64 3 -19 10 -40 15 -46 6 -7 2 -21 -10
-40 -13 -20 -16 -34 -10 -45 5 -10 6 -21 2 -26 -4 -5 1 -2 11 5 15 12 17 11
13 -10 -3 -13 -5 -26 -5 -29 -1 -3 -6 2 -11 10 -8 12 -10 11 -7 -5 3 -26 16
-46 26 -41 4 3 8 -10 8 -29 0 -30 -2 -33 -16 -22 -14 10 -14 10 -5 -3 6 -8 10
-25 9 -37 -1 -12 2 -20 7 -17 5 4 7 12 4 20 -3 7 -1 16 5 20 6 3 8 12 5 20 -3
7 -1 16 4 19 10 6 15 -10 10 -30 -2 -5 -3 -17 -4 -25 -1 -9 -5 -21 -10 -28 -4
-7 -2 -19 4 -27 13 -15 4 -59 -10 -50 -10 6 -6 -43 5 -53 4 -4 4 4 1 18 -7 23
-6 24 8 7 14 -18 14 -18 20 0 3 10 6 23 7 28 0 6 5 15 9 20 5 6 4 17 -2 25 -8
12 -9 12 -4 -2 3 -10 1 -20 -4 -23 -15 -9 -17 29 -2 47 15 18 7 43 -10 32 -8
-5 -9 -1 -4 12 5 10 8 25 7 32 -3 36 -5 41 -13 36 -12 -8 -10 10 5 26 10 12 9
12 -5 1 -15 -11 -16 -9 -14 16 4 31 -10 66 -23 58 -5 -2 -8 7 -8 22 l0 26 18
-24 c10 -13 19 -28 19 -33 0 -5 3 -7 6 -3 3 3 -3 19 -15 35 -11 16 -18 32 -15
34 9 10 13 48 3 43 -5 -4 -10 2 -10 12 -3 34 -8 58 -18 88 l-11 30 5 -30z m39
-269 c-3 -9 -10 -13 -16 -10 -5 3 -4 12 3 20 15 18 22 13 13 -10z m36 -141
c-7 -9 -15 -13 -18 -10 -3 2 1 11 8 20 7 9 15 13 18 10 3 -2 -1 -11 -8 -20z
m4 -80 c-4 -8 -10 -13 -15 -10 -4 3 -6 12 -3 20 4 8 10 13 15 10 4 -3 6 -12 3
-20z"/>
<path d="M80968 7837 c6 -53 -23 -137 -63 -185 -77 -90 -185 -124 -333 -105
-104 14 -238 52 -347 99 -44 19 -75 30 -69 24 19 -19 191 -89 281 -114 238
-66 378 -51 480 50 67 67 98 196 60 248 -12 16 -13 14 -9 -17z"/>
<path d="M70590 7512 c0 -6 5 -14 10 -17 6 -4 7 -11 4 -17 -4 -7 -2 -8 5 -4 9
6 9 12 -1 24 -7 10 -14 19 -15 21 -2 2 -3 -1 -3 -7z"/>
<path d="M68728 7247 c-124 -112 -255 -250 -303 -323 -38 -56 -40 -63 -40
-136 0 -70 2 -79 31 -115 16 -21 46 -46 65 -55 37 -18 161 -40 334 -58 61 -6
121 -13 134 -14 22 -4 23 -2 17 43 -3 25 -9 183 -13 351 l-6 305 -58 43 c-31
23 -59 42 -62 42 -3 0 -47 -38 -99 -83z"/>
</g>
</svg>
