<?xml version="1.0" standalone="no"?>
<!DOCTYPE svg PUBLIC "-//W3C//DTD SVG 20010904//EN"
 "http://www.w3.org/TR/2001/REC-SVG-20010904/DTD/svg10.dtd">
<svg version="1.0" xmlns="http://www.w3.org/2000/svg"
 width="20736.000000pt" height="10368.000000pt" viewBox="0 0 20736.000000 10368.000000"
 preserveAspectRatio="xMidYMid meet">

<g transform="translate(0.000000,10368.000000) scale(0.100000,-0.100000)"
fill="#000000" stroke="none">
<path d="M0 102332 l0 -1347 2768 -1976 c3289 -2349 7391 -5279 11220 -8012
l2784 -1987 46 33 c150 107 3434 2490 5351 3881 387 281 1287 934 2000 1451
713 518 1922 1395 2686 1950 1701 1234 3228 2341 4765 3457 641 464 1815 1316
2610 1893 795 577 1552 1125 1682 1219 130 94 237 174 237 178 1 3 -72 59
-162 124 -89 65 -274 201 -411 301 l-249 183 -17663 0 -17664 0 0 -1348z"/>
<path d="M40180 103677 c0 -2 11 -37 25 -78 14 -41 36 -117 48 -169 l22 -95 3
-11430 c2 -8374 0 -11457 -8 -11529 -45 -395 -259 -773 -575 -1012 -44 -33
-422 -310 -840 -616 -418 -305 -911 -665 -1095 -799 -184 -135 -661 -483
-1060 -774 -399 -291 -1375 -1003 -2170 -1584 -795 -580 -2034 -1485 -2755
-2011 -2004 -1463 -4817 -3516 -5625 -4106 -1068 -780 -3098 -2262 -4523
-3302 -689 -503 -1847 -1349 -2575 -1880 -727 -532 -1365 -997 -1418 -1034
-164 -115 -351 -195 -557 -240 -139 -30 -467 -33 -594 -5 -188 41 -400 131
-536 225 -37 26 -309 225 -605 443 -295 218 -1021 752 -1612 1186 -5084 3733
-6258 4595 -7180 5273 -481 354 -1363 1002 -1960 1440 -998 733 -4416 3242
-4538 3332 l-52 39 1 -31998 c0 -30659 1 -31996 18 -31943 35 110 100 204 184
268 29 22 943 684 2032 1472 1089 789 2093 1515 2230 1615 277 201 2742 1986
3285 2379 190 137 372 262 405 277 138 65 305 62 445 -8 45 -23 329 -223 705
-499 347 -253 788 -575 980 -715 193 -141 760 -555 1260 -920 845 -617 3181
-2323 4270 -3119 259 -188 478 -345 488 -348 10 -2 50 -20 89 -38 88 -43 183
-135 227 -222 66 -131 61 232 61 -4242 0 -3591 -2 -4073 -15 -4124 -25 -95
-66 -166 -135 -236 -40 -40 -313 -246 -710 -535 -355 -258 -1121 -817 -1704
-1242 l-1058 -773 97151 0 97151 0 0 51840 0 51840 -83590 0 c-45974 0 -83590
-1 -83590 -3z m152175 -6211 c229 -72 401 -265 445 -497 6 -33 10 -979 10
-2600 l0 -2549 2558 -2 2557 -3 74 -23 c88 -27 139 -52 207 -102 96 -72 170
-175 203 -285 7 -22 15 -47 18 -55 10 -26 9 -254 0 -268 -6 -7 -7 -15 -4 -19
4 -3 1 -13 -6 -21 -8 -11 -8 -14 0 -9 8 5 7 -2 -2 -20 -8 -16 -16 -39 -18 -53
-5 -27 -77 -181 -77 -165 0 6 -10 -6 -21 -25 -42 -70 -183 -182 -265 -212 -19
-7 -34 -16 -34 -21 0 -4 -3 -6 -7 -4 -5 3 -37 -1 -73 -9 -54 -11 -492 -14
-2605 -14 l-2541 0 1 -2487 c0 -1369 -3 -2517 -7 -2553 -16 -150 -80 -282
-194 -395 -112 -113 -240 -170 -404 -181 -243 -17 -456 93 -595 306 -16 25
-30 50 -32 55 -1 6 -15 44 -30 85 l-28 75 -3 2555 c-1 1405 -4 2561 -7 2567
-3 10 -539 13 -2572 15 l-2568 3 -73 27 c-209 78 -363 243 -417 448 -23 85
-20 262 6 346 61 200 220 363 422 431 l82 28 2582 3 2583 2 2 2563 3 2562 28
80 c34 97 66 153 126 224 90 108 243 195 383 221 82 14 203 4 293 -24z
m-123770 -16618 c-6 -84 -105 -1976 -105 -2010 0 -17 -26 -18 -612 -16 l-613
3 -46 760 c-26 418 -54 877 -63 1021 -9 144 -16 275 -16 293 l0 31 731 0 730
0 -6 -82z m3622 -732 c668 -80 1176 -304 1539 -678 209 -215 333 -420 424
-697 57 -174 110 -458 110 -591 l0 -30 -985 0 -985 0 0 43 c-1 114 -56 263
-130 349 -74 85 -201 155 -325 179 -91 18 -246 12 -315 -11 -197 -66 -301
-232 -288 -460 14 -238 223 -416 723 -613 77 -30 274 -103 439 -162 900 -321
1258 -520 1565 -870 200 -228 290 -406 351 -692 28 -128 38 -446 20 -601 -77
-675 -455 -1204 -1086 -1520 -271 -136 -554 -216 -924 -264 -163 -20 -699 -17
-870 5 -166 22 -274 42 -410 73 -644 151 -1186 507 -1461 962 -63 102 -148
282 -182 382 -55 162 -102 393 -113 556 l-7 94 964 0 964 0 17 -104 c30 -186
103 -330 207 -412 120 -94 250 -135 432 -136 198 -1 341 53 448 168 76 81 102
147 109 271 5 114 -18 202 -81 295 -104 156 -366 285 -1032 511 -843 285
-1187 455 -1477 727 -158 148 -286 313 -365 471 -104 210 -152 425 -160 721
-11 374 43 651 183 933 144 293 376 545 675 732 216 135 545 262 839 322 93
19 371 57 480 65 111 8 589 -4 707 -18z m8291 -1 c499 -63 925 -209 1342 -458
710 -425 1232 -1134 1441 -1958 70 -278 102 -553 102 -879 -1 -253 -13 -406
-48 -625 -169 -1029 -806 -1896 -1736 -2361 -504 -252 -1035 -367 -1624 -351
-392 10 -701 64 -1042 181 -718 246 -1317 721 -1713 1357 -133 213 -274 524
-344 759 -195 654 -195 1420 1 2070 203 677 651 1291 1233 1691 498 342 1083
548 1680 589 167 12 565 4 708 -15z m34615 0 c619 -78 1140 -286 1627 -649
159 -118 424 -376 550 -536 436 -550 675 -1200 709 -1924 31 -679 -98 -1285
-388 -1821 -457 -846 -1229 -1420 -2191 -1629 -350 -76 -812 -96 -1175 -52
-1007 124 -1884 677 -2404 1515 -280 452 -433 926 -482 1499 -22 267 -3 668
45 947 147 841 626 1592 1326 2077 479 332 1015 524 1628 583 180 17 583 12
755 -10z m15117 0 c660 -78 1161 -300 1530 -674 138 -140 227 -263 314 -431
124 -240 192 -492 221 -817 l6 -73 -984 0 -984 0 -7 70 c-23 226 -139 386
-339 467 -81 33 -145 44 -262 44 -231 0 -389 -109 -441 -306 -18 -67 -18 -209
1 -272 42 -140 190 -275 445 -403 95 -48 401 -169 630 -249 575 -203 979 -379
1210 -528 194 -126 423 -343 549 -519 175 -247 261 -544 261 -909 0 -783 -412
-1428 -1133 -1770 -262 -125 -506 -194 -847 -241 -183 -26 -711 -26 -900 -1
-223 30 -358 55 -498 92 -597 158 -1071 472 -1354 895 -191 286 -293 606 -331
1033 l-5 47 966 -2 966 -3 11 -80 c54 -374 270 -565 642 -567 189 -1 317 42
429 145 161 147 178 423 37 609 -57 74 -141 133 -308 214 -191 92 -309 138
-680 264 -766 261 -1152 439 -1410 650 -93 76 -256 246 -330 345 -182 243
-271 505 -294 867 -47 729 237 1326 808 1703 351 230 829 379 1341 415 161 12
590 3 740 -15z m20115 0 c434 -54 776 -158 1155 -351 838 -425 1445 -1212
1654 -2145 97 -431 112 -947 41 -1394 -158 -1005 -758 -1859 -1643 -2340 -661
-359 -1457 -486 -2232 -356 -428 72 -831 222 -1198 447 -601 368 -1074 941
-1323 1602 -293 780 -287 1743 18 2517 236 601 657 1121 1197 1480 494 328
1009 501 1666 559 96 9 551 -4 665 -19z m-89665 -3320 l0 -3245 -905 0 -905 0
0 3245 0 3245 905 0 905 0 0 -3245z m5910 2525 l0 -720 -865 0 -865 0 0 -2525
0 -2525 -905 0 -905 0 0 2525 0 2525 -855 0 -855 0 0 720 0 720 2625 0 2625 0
0 -720z m19412 -671 l3 -1391 614 854 c338 469 788 1095 1000 1390 l386 537
1043 1 c573 0 1042 -3 1042 -7 0 -4 -33 -50 -73 -102 -74 -96 -236 -311 -1027
-1356 -233 -308 -465 -614 -515 -680 -104 -137 -397 -523 -614 -812 l-148
-195 1240 -1657 c682 -911 1244 -1662 1250 -1669 8 -10 -209 -12 -1088 -10
l-1098 3 -569 795 c-313 437 -766 1071 -1006 1407 l-437 612 -3 -1409 -2
-1410 -905 0 -905 0 0 3245 0 3245 905 0 905 0 2 -1391z m9391 -39 c1382
-3805 1826 -5026 1832 -5043 7 -16 -41 -17 -951 -15 l-957 3 -175 523 -174
522 -1147 0 -1147 0 -172 -525 -173 -525 -949 0 c-570 0 -950 4 -950 9 0 5 50
146 111 313 61 167 421 1156 801 2198 1067 2928 1425 3913 1437 3943 l11 27
1042 -2 1043 -3 518 -1425z m4213 975 c549 -1203 822 -1801 872 -1913 31 -67
59 -119 62 -115 4 5 157 337 340 738 183 402 436 958 564 1237 l231 508 1018
0 c630 0 1017 -4 1017 -9 0 -6 -56 -117 -123 -248 -68 -131 -167 -321 -219
-423 -53 -102 -242 -470 -422 -817 -179 -348 -473 -918 -652 -1265 -180 -348
-447 -867 -595 -1154 l-269 -521 0 -1026 0 -1027 -910 0 -910 0 0 1031 0 1032
-96 186 c-53 102 -127 245 -164 316 -119 231 -225 435 -328 635 -55 107 -204
398 -332 645 -128 248 -275 533 -327 635 -53 102 -124 239 -158 305 -34 66
-109 210 -165 320 -56 110 -133 259 -170 330 -37 72 -114 220 -170 330 -57
110 -163 316 -237 457 -73 142 -133 260 -133 263 0 3 466 4 1036 3 l1035 -3
205 -450z m11302 -267 l2 -718 -865 0 -865 0 0 -2525 0 -2525 -910 0 -910 0 0
2525 0 2525 -850 0 -850 0 0 720 0 720 2623 -2 2622 -3 3 -717z m14314 -1068
c357 -982 871 -2397 1143 -3145 272 -748 510 -1404 529 -1457 l36 -98 -958 0
-958 0 -173 525 -172 525 -1149 0 -1149 0 -6 -22 c-4 -13 -81 -249 -172 -525
l-166 -503 -953 0 -954 0 11 28 c18 45 437 1195 922 2527 1096 3008 1428 3918
1433 3926 3 5 442 8 1046 7 l1042 -3 648 -1785z m9798 393 c0 -1319 1 -1396
17 -1373 36 53 1869 2600 1930 2683 l65 87 1039 0 c571 0 1039 -4 1039 -8 0
-5 -62 -90 -137 -189 -76 -100 -259 -342 -408 -538 -148 -196 -388 -513 -533
-703 -144 -191 -320 -423 -391 -517 -189 -250 -562 -742 -730 -963 -80 -106
-152 -203 -160 -215 -13 -22 45 -101 1226 -1677 682 -910 1243 -1661 1247
-1667 6 -10 -214 -13 -1087 -13 l-1095 0 -412 578 c-227 317 -681 952 -1009
1411 l-596 834 -3 -1412 -2 -1411 -905 0 -905 0 0 3245 0 3245 905 0 905 0 0
-1397z m11030 677 l0 -720 -1295 0 -1295 0 0 -570 0 -570 955 0 955 0 0 -690
0 -690 -955 0 -955 0 0 -1265 0 -1265 -910 0 -910 0 0 3245 0 3245 2205 0
2205 0 0 -720z m11290 693 c595 -75 1040 -270 1388 -607 169 -164 283 -323
383 -533 126 -266 185 -519 196 -839 15 -441 -86 -826 -303 -1157 -232 -354
-545 -595 -979 -753 -71 -26 -131 -48 -133 -49 -2 -2 1260 -2186 1432 -2477
l28 -48 -1014 0 -1013 0 -276 513 c-152 281 -442 819 -644 1195 l-368 682 -94
0 -93 0 0 -1195 0 -1195 -905 0 -905 0 0 3245 0 3246 1568 -4 c1513 -4 1573
-4 1732 -24z m6350 -1193 l0 -1220 1095 0 1095 0 0 1220 0 1220 905 0 905 0 0
-3245 0 -3245 -905 0 -905 0 0 1300 0 1300 -1095 0 -1095 0 0 -1300 0 -1300
-905 0 -905 0 0 3245 0 3245 905 0 905 0 0 -1220z m9180 495 l0 -725 -1175 0
-1175 0 0 -525 0 -525 1035 0 1035 0 0 -690 0 -690 -1035 0 -1035 0 0 -580 0
-580 1175 0 1175 0 0 -725 0 -725 -2080 0 -2080 0 0 3245 0 3245 2080 0 2080
0 0 -725z m2690 -1830 l0 -2555 1010 0 1010 0 0 -690 0 -690 -1915 0 -1915 0
0 3245 0 3245 905 0 905 0 0 -2555z m5820 2532 c367 -44 619 -114 905 -252
623 -300 992 -828 1097 -1570 8 -53 13 -186 13 -325 -1 -199 -4 -256 -24 -370
-85 -498 -305 -902 -651 -1195 -383 -324 -821 -499 -1395 -556 -60 -6 -365
-13 -677 -16 l-568 -5 0 -1089 0 -1089 -905 0 -905 0 0 3245 0 3246 1483 -4
c1324 -3 1497 -5 1627 -20z m-50565 -11732 c957 -105 1844 -567 2484 -1292
820 -929 1149 -2196 881 -3398 -103 -462 -284 -895 -533 -1274 -168 -256 -292
-407 -517 -631 -193 -193 -250 -243 -414 -365 -376 -280 -770 -479 -1217 -614
-141 -42 -399 -104 -489 -116 -242 -33 -334 -39 -610 -40 -178 0 -339 5 -405
13 -382 44 -745 135 -1061 265 -109 45 -388 180 -454 219 -244 147 -382 241
-521 356 -35 30 -75 63 -89 74 -14 12 -48 42 -75 67 -28 25 -66 60 -85 77 -48
43 -150 151 -245 259 -43 50 -81 92 -85 95 -16 14 -205 277 -252 350 -184 289
-335 610 -437 930 -56 178 -128 492 -146 640 -32 270 -40 695 -17 905 22 190
60 404 102 572 393 1567 1735 2735 3340 2908 165 18 684 18 845 0z m-100954
-179 c196 -45 407 -135 557 -238 42 -30 628 -457 1302 -949 674 -492 1743
-1273 2375 -1734 633 -461 1249 -911 1370 -1000 121 -89 803 -587 1515 -1106
712 -520 1837 -1341 2500 -1825 663 -484 1747 -1275 2410 -1759 663 -483 1804
-1316 2535 -1850 2594 -1895 3868 -2824 5310 -3877 803 -585 1629 -1188 1836
-1340 358 -261 381 -276 470 -307 524 -182 870 -569 1002 -1123 l22 -93 3
-11445 c2 -10324 1 -11456 -13 -11553 -37 -252 -129 -478 -282 -686 -109 -148
-215 -240 -628 -542 -465 -340 -956 -698 -2500 -1825 -638 -466 -1799 -1313
-2580 -1884 -781 -570 -1996 -1457 -2700 -1970 -704 -514 -1797 -1312 -2430
-1774 -2724 -1989 -3843 -2806 -4995 -3646 -674 -492 -1657 -1209 -2185 -1595
-528 -386 -1462 -1068 -2075 -1515 -613 -448 -1382 -1009 -1709 -1248 -326
-238 -637 -458 -691 -488 -380 -213 -863 -240 -1279 -71 -156 63 -226 108
-643 415 -207 152 -955 702 -1663 1222 -707 520 -1350 992 -1428 1049 -526
387 -8154 5989 -9347 6865 -300 220 -1080 793 -1735 1275 -654 481 -1611 1184
-2125 1561 -514 377 -1155 848 -1425 1046 -269 198 -1280 940 -2245 1649
-2125 1560 -1965 1441 -2064 1539 -217 216 -369 509 -421 810 -13 78 -15 1338
-15 11378 l0 11289 21 102 c52 257 170 497 343 696 86 99 170 170 366 311 91
65 350 253 577 417 680 492 2724 1973 5058 3663 1210 877 2893 2095 3740 2708
847 613 1614 1169 1705 1235 91 66 719 521 1395 1010 677 490 1408 1019 1625
1177 217 157 762 552 1210 876 448 325 1324 959 1945 1409 622 450 1758 1273
2525 1828 767 556 1523 1103 1680 1217 735 535 745 541 920 613 94 39 255 83
352 97 93 13 430 4 509 -14z m57524 -3931 c55 -22 235 -70 415 -110 343 -75
440 -99 625 -157 105 -32 201 -62 215 -66 30 -9 75 -86 204 -347 273 -554 451
-1172 521 -1815 35 -317 30 -804 -11 -1090 -49 -342 -164 -597 -360 -800 -127
-132 -282 -221 -471 -271 l-83 -22 0 -46 c0 -25 5 -120 10 -210 24 -396 83
-589 238 -782 116 -144 289 -258 503 -331 l96 -32 7 -81 c9 -125 7 -608 -4
-798 -47 -784 -190 -1724 -412 -2696 l-21 -95 -16 35 c-110 248 -274 545 -434
784 -528 791 -1487 1757 -2565 2584 -46 35 -79 67 -75 71 4 3 44 36 88 72 280
231 454 506 523 833 23 107 26 143 26 325 0 351 -14 398 -315 1010 -109 223
-216 450 -238 505 l-40 100 -48 6 c-51 5 -154 63 -313 175 -249 174 -432 396
-471 570 -22 100 19 226 106 322 118 130 264 167 509 127 143 -23 259 -22 322
2 65 25 201 115 277 181 31 28 102 81 157 117 219 145 433 411 603 750 110
222 170 394 232 670 15 66 46 185 70 265 24 80 51 171 60 203 8 31 20 57 26
57 5 0 25 -7 44 -15z m63122 -590 c66 -99 146 -225 178 -280 136 -233 264
-402 433 -570 251 -251 495 -414 722 -484 134 -41 139 -43 241 -85 177 -72
311 -92 416 -61 27 8 106 42 175 75 68 32 151 66 183 75 204 53 408 -38 506
-225 20 -38 24 -60 24 -135 0 -208 -131 -467 -384 -763 -99 -116 -113 -125
-258 -162 -45 -11 -96 -49 -114 -83 -20 -36 -28 -146 -33 -417 -5 -324 -28
-544 -182 -1705 -46 -345 -50 -497 -15 -620 36 -131 85 -217 182 -319 101
-106 180 -165 419 -311 96 -59 231 -147 300 -195 169 -119 262 -175 442 -269
310 -161 902 -417 1041 -450 129 -31 228 -67 347 -126 305 -154 535 -400 704
-757 97 -204 163 -430 200 -688 16 -107 38 -422 31 -443 -2 -7 -6 -68 -9 -137
-24 -589 -215 -1677 -473 -2695 -465 -1841 -1144 -3587 -1848 -4755 l-87 -145
16 -50 c8 -27 31 -88 50 -135 l34 -85 -124 -61 c-68 -34 -159 -72 -202 -85
l-78 -23 -100 -125 c-313 -392 -625 -667 -929 -818 -128 -64 -215 -92 -455
-147 -1203 -277 -2185 -429 -3106 -480 -210 -12 -1006 -13 -1139 -2 -27 2
-117 7 -200 11 -165 7 -576 44 -840 76 -1133 134 -1429 156 -1985 146 -477 -9
-618 -23 -871 -86 -299 -74 -784 -181 -819 -181 -4 0 -49 71 -100 157 -156
262 -307 444 -490 589 -47 37 -86 70 -87 73 -7 16 329 147 525 205 347 103
726 179 1206 241 659 84 1281 127 2706 185 636 26 947 40 1090 48 l114 7 13
35 c6 19 49 159 94 310 45 151 97 320 116 375 53 159 67 364 51 785 -30 793
-183 1556 -440 2195 -75 185 -203 454 -288 600 -72 126 -250 418 -259 425 -4
3 -15 22 -26 42 l-19 37 -53 -111 c-29 -61 -53 -112 -53 -115 0 -5 -263 -530
-322 -643 -364 -689 -757 -1313 -1139 -1808 -337 -436 -738 -850 -1094 -1129
-199 -156 -383 -272 -607 -385 -248 -124 -442 -193 -687 -244 -236 -49 -497
-57 -621 -19 -151 46 -323 159 -468 307 -240 244 -483 638 -701 1137 -545
1243 -1034 3133 -1475 5706 -36 209 -92 536 -125 728 l-59 347 -55 88 c-183
292 -395 699 -496 955 -223 561 -208 910 46 1044 172 92 374 81 560 -28 94
-56 269 -237 356 -369 136 -207 239 -422 346 -722 31 -90 635 -1589 1340
-3333 706 -1743 1286 -3178 1290 -3189 11 -28 425 553 641 898 340 544 723
1357 1080 2291 40 105 78 204 85 220 7 17 75 197 150 400 205 550 306 787 505
1185 344 688 739 1267 1233 1810 198 218 487 485 622 576 63 42 178 82 264 90
59 6 77 14 171 72 182 115 501 268 750 362 173 66 327 106 475 125 276 36 574
96 800 162 313 90 539 262 657 498 92 183 125 377 144 846 l6 166 -50 -5 c-78
-7 -248 17 -352 50 -289 93 -535 326 -709 675 -311 623 -478 1448 -458 2263 6
248 25 466 57 665 30 188 69 370 80 373 10 4 63 40 312 211 51 36 203 128 338
204 235 134 358 210 445 276 22 16 43 27 46 23 4 -4 61 -88 126 -187z m-58362
-6610 c434 -578 946 -1703 1416 -3115 260 -781 429 -1384 651 -2313 l9 -37
357 2 c397 3 391 4 530 -65 137 -68 237 -174 295 -313 52 -123 59 -223 33
-449 -8 -71 -17 -157 -21 -190 -3 -33 -8 -76 -10 -95 -9 -76 -14 -128 -20
-185 -3 -33 -8 -76 -10 -95 -11 -82 -15 -121 -25 -220 -6 -58 -13 -116 -15
-130 -2 -14 -6 -54 -10 -90 -4 -36 -8 -76 -10 -90 -2 -14 -6 -52 -10 -85 -3
-33 -8 -78 -11 -100 -2 -22 -24 -224 -49 -450 -56 -507 -55 -504 -60 -535 -2
-14 -7 -59 -10 -100 -4 -41 -9 -82 -10 -91 -2 -9 -6 -52 -10 -95 -3 -43 -8
-86 -10 -94 -2 -8 -7 -44 -10 -80 -4 -36 -8 -76 -10 -90 -2 -14 -7 -54 -10
-90 -4 -36 -26 -240 -50 -455 -25 -214 -41 -392 -37 -396 4 -3 38 -18 77 -34
193 -80 358 -246 433 -435 63 -160 74 -367 28 -544 -75 -288 -268 -519 -502
-601 l-66 -23 54 -15 c29 -9 66 -19 82 -23 20 -5 25 -9 15 -15 -19 -10 -160
-29 -222 -29 -29 0 -62 -3 -74 -6 -23 -6 -27 -19 -39 -144 -3 -36 -7 -72 -9
-80 -1 -8 -6 -51 -10 -94 -4 -43 -8 -86 -10 -95 -1 -9 -6 -50 -10 -91 -4 -41
-8 -82 -10 -90 -2 -8 -6 -49 -10 -90 -4 -41 -8 -82 -10 -90 -1 -8 -6 -46 -10
-85 -3 -38 -17 -164 -30 -280 -12 -115 -23 -217 -23 -225 -1 -8 -14 -132 -31
-275 -34 -288 -38 -323 -46 -410 -3 -33 -8 -71 -10 -85 -2 -14 -7 -54 -10 -90
-4 -36 -8 -76 -10 -90 -2 -14 -6 -54 -10 -90 -4 -36 -8 -76 -10 -90 -2 -14 -6
-54 -10 -90 -21 -219 -69 -327 -205 -461 -86 -84 -164 -128 -283 -158 -78 -20
-219 -24 -1257 -37 -272 -3 -497 -7 -499 -9 -1 -2 4 -70 13 -152 220 -2022
400 -5589 441 -8748 3 -220 7 -506 10 -635 19 -881 26 -4099 12 -5340 -23
-2019 -39 -2950 -83 -4820 -12 -532 -52 -1829 -60 -1979 l-7 -113 -33 -14
c-18 -8 -68 -19 -111 -25 -43 -6 -81 -14 -85 -18 -4 -4 -12 -216 -18 -471 -45
-2078 -125 -3790 -255 -5460 -40 -507 -68 -823 -181 -2010 -154 -1634 -213
-2207 -299 -2925 -76 -635 -80 -684 -79 -1065 0 -308 2 -360 22 -488 80 -507
250 -820 581 -1070 94 -71 304 -197 404 -242 42 -19 76 -38 77 -41 1 -19 -621
-31 -915 -18 -664 29 -1243 121 -1947 311 -31 9 -37 14 -33 32 28 127 70 414
89 601 57 567 91 2126 58 2695 -50 867 -166 1786 -377 3005 -106 608 -150 840
-533 2780 -306 1548 -443 2347 -562 3285 -29 236 -100 877 -100 913 0 6 -23 5
-210 -5 -96 -5 -182 -10 -190 -10 -8 0 -107 -4 -220 -9 -858 -38 -1833 -38
-2534 1 -94 5 -171 8 -173 6 -2 -1 -50 -225 -107 -497 -536 -2538 -1050 -4639
-1611 -6584 -463 -1604 -964 -3279 -1160 -3875 -179 -547 -224 -707 -265 -945
-58 -336 -44 -693 37 -949 99 -315 281 -508 637 -676 75 -36 136 -68 136 -72
0 -12 -610 -9 -800 2 -518 33 -1035 110 -1495 225 -329 82 -605 167 -605 186
0 4 28 82 61 171 166 443 224 650 398 1433 55 248 113 509 130 580 157 691
272 1537 326 2405 42 689 54 1261 49 2300 -2 443 -6 1156 -8 1585 -4 784 3
1306 23 1815 50 1225 165 2449 335 3582 l13 87 -56 22 c-31 12 -75 30 -98 40
-24 11 -49 19 -56 19 -7 0 -17 4 -22 9 -6 4 -73 34 -150 65 -77 32 -233 103
-347 158 l-207 101 29 36 c104 132 392 801 822 1906 240 616 586 1559 642
1745 22 71 137 636 152 740 3 19 23 136 44 260 197 1116 329 2377 395 3765 17
367 36 904 35 1015 0 41 3 230 6 420 7 412 7 1952 -1 2165 -2 83 -7 296 -10
475 -6 360 -25 1070 -55 2110 -22 777 -37 1312 -45 1640 -3 124 -7 299 -10
390 -3 91 -7 361 -10 600 -16 1320 -14 1549 20 1945 48 554 149 1116 301 1672
56 205 170 577 186 606 6 12 10 22 9 22 -1 0 0 7 3 15 120 344 271 722 419
1045 60 130 285 581 357 712 59 110 60 113 38 118 -184 44 -739 183 -853 215
-323 88 -772 224 -847 255 -296 125 -458 360 -508 735 -16 118 -14 452 5 650
27 298 73 849 160 1920 246 3036 348 4164 505 5590 76 689 139 1004 272 1348
l40 102 39 -29 c76 -55 265 -230 414 -383 323 -328 696 -771 1107 -1313 l106
-140 135 -310 c75 -170 197 -447 272 -615 l137 -305 -96 -305 c-227 -725 -398
-1404 -521 -2060 -26 -140 -97 -493 -157 -785 -283 -1371 -384 -1933 -395
-2192 l-6 -142 544 -272 c299 -149 586 -291 637 -315 l92 -43 117 147 c206
261 412 500 566 660 l70 73 101 -50 c132 -66 237 -104 421 -151 198 -52 426
-93 676 -124 228 -28 274 -33 499 -51 41 -3 95 -8 120 -10 25 -3 86 -7 136
-10 l92 -6 5 33 c3 18 16 125 27 238 17 161 26 211 41 232 22 32 24 51 6 66
-10 9 26 363 189 1849 111 1011 209 1872 217 1913 36 187 166 353 343 439 133
65 170 67 1219 76 347 3 707 8 800 10 94 2 397 7 675 10 803 8 1074 16 1086
29 16 16 231 363 304 490 368 641 440 1123 260 1742 -46 157 -116 333 -269
678 -214 481 -275 657 -344 991 -53 251 -89 518 -103 755 -5 79 -1 121 21 235
28 149 152 720 161 745 7 18 19 5 139 -155z m31831 -5792 c37 -65 87 -148 111
-185 23 -37 67 -117 97 -177 149 -296 296 -499 527 -729 199 -197 452 -365
629 -418 30 -9 96 -35 145 -59 110 -53 230 -94 310 -106 81 -12 140 1 305 68
177 72 249 87 348 73 42 -6 99 -21 126 -34 69 -31 153 -111 199 -187 34 -59
37 -69 37 -142 0 -203 -144 -467 -409 -748 -102 -108 -116 -119 -173 -138 -35
-11 -82 -23 -106 -27 -23 -4 -60 -19 -82 -35 -44 -32 -44 -33 -86 -244 -49
-253 -53 -279 -53 -379 -1 -89 -4 -104 -26 -135 -50 -73 -130 -771 -142 -1236
-11 -477 41 -841 153 -1055 166 -318 602 -530 1309 -634 255 -38 663 -64 958
-62 123 1 127 0 127 -20 0 -19 7 -22 58 -26 389 -32 769 -696 1330 -2323 177
-511 604 -1864 746 -2359 391 -1362 520 -2747 354 -3806 -12 -77 -22 -197 -24
-280 -4 -226 -12 -317 -34 -431 -57 -294 -194 -551 -385 -719 -106 -92 -196
-125 -335 -123 -124 1 -237 34 -390 114 -164 86 -317 206 -528 414 l-184 180
6 -45 c17 -126 33 -498 28 -633 -1 -21 -8 -39 -14 -42 -7 -2 -91 -31 -186 -64
-652 -229 -1383 -390 -2087 -460 -396 -39 -555 -46 -1050 -46 -516 0 -745 12
-1190 61 -978 107 -2017 346 -2810 646 -71 27 -149 56 -173 65 -24 8 -46 21
-48 28 -3 7 18 59 47 116 250 499 348 1132 294 1905 -18 255 -61 646 -81 733
-4 19 -36 -42 -142 -270 -354 -757 -816 -1464 -1310 -2002 -398 -434 -768
-668 -1057 -669 -152 -1 -262 47 -381 166 -166 167 -283 392 -339 651 -9 44
-32 125 -51 180 -67 202 -94 417 -94 749 0 549 100 1195 311 2016 158 617 315
1117 683 2187 97 282 256 752 355 1045 473 1408 629 1844 811 2268 128 299
277 564 393 698 239 275 497 344 1422 377 571 21 761 39 845 79 252 121 444
492 565 1090 29 145 43 230 79 492 4 31 4 32 -60 47 -219 55 -435 207 -600
426 -120 160 -253 461 -343 779 -254 900 -252 1905 5 2830 4 13 24 32 48 44
22 11 86 50 141 86 151 98 170 109 504 278 171 86 350 183 398 214 49 32 91
59 95 59 3 1 37 -52 74 -116z m-12884 -2588 c207 -511 353 -1178 409 -1865 19
-231 16 -814 -5 -1030 -41 -423 -99 -733 -202 -1083 -99 -333 -238 -567 -450
-756 -180 -160 -391 -247 -657 -270 -195 -17 -404 7 -716 81 -27 6 -124 -331
-171 -592 -100 -562 -46 -1156 145 -1589 19 -42 32 -77 30 -79 -1 -2 -70 6
-151 17 -393 54 -718 72 -1279 70 -840 -3 -1422 -44 -1760 -124 -55 -13 -101
-22 -102 -21 -2 1 27 36 64 76 344 383 628 881 868 1525 94 252 170 505 276
917 l9 36 53 -29 c112 -62 332 -118 554 -140 146 -15 198 -7 318 51 293 142
698 607 936 1076 133 261 158 387 93 455 -38 40 -59 50 -254 126 -198 77 -284
126 -370 213 -113 113 -166 249 -177 450 -6 126 15 306 52 436 132 467 480
578 987 317 l108 -56 47 18 c89 33 262 126 350 188 167 118 369 340 492 540
174 285 319 693 381 1072 32 199 28 189 57 125 13 -30 43 -100 65 -155z
m22363 -135 c164 -238 409 -502 628 -677 396 -317 832 -470 1250 -438 l96 7
35 51 c53 81 90 126 179 215 207 210 425 271 637 179 228 -99 507 -479 527
-717 8 -89 -13 -162 -96 -339 -80 -170 -95 -215 -116 -335 -19 -111 -19 -190
0 -297 46 -262 179 -485 441 -739 127 -123 220 -198 519 -420 291 -216 365
-278 520 -434 193 -196 298 -353 393 -593 91 -230 125 -366 252 -1022 86 -439
147 -647 256 -864 181 -363 476 -627 957 -857 146 -69 372 -167 602 -261 585
-236 863 -405 1160 -703 274 -275 501 -652 650 -1079 21 -59 41 -104 45 -100
4 4 65 80 135 168 205 257 287 347 571 630 99 99 236 229 305 288 68 60 133
117 144 126 11 10 76 61 145 115 69 53 130 100 135 105 50 39 197 141 204 141
5 0 11 4 13 9 5 14 220 151 378 241 317 180 684 343 1030 456 102 34 419 117
490 129 19 3 42 8 50 10 8 2 26 6 40 9 14 2 63 11 110 20 190 36 336 45 665
42 336 -4 448 -13 723 -61 558 -97 1118 -325 1546 -628 335 -237 642 -548 842
-852 559 -851 758 -2119 583 -3725 -57 -526 -151 -1058 -350 -1980 -397 -1841
-470 -2301 -514 -3270 -37 -810 -86 -1316 -270 -2805 -51 -418 -95 -776 -97
-795 l-3 -35 260 -27 c143 -15 422 -41 620 -58 197 -17 360 -32 361 -33 1 -1
4 -148 8 -327 6 -310 20 -681 31 -875 43 -721 63 -979 165 -2135 119 -1351
141 -1760 134 -2480 -11 -1222 -128 -2369 -404 -3965 -89 -510 -187 -1026
-425 -2230 -275 -1388 -350 -1785 -454 -2400 l-59 -350 19 -175 c10 -96 21
-206 24 -245 3 -38 12 -124 20 -190 7 -66 16 -152 19 -190 4 -39 10 -102 16
-140 5 -39 12 -102 15 -140 3 -39 9 -102 15 -140 5 -39 12 -99 15 -135 3 -36
21 -193 40 -350 19 -157 37 -312 40 -345 3 -33 12 -109 20 -170 8 -60 17 -137
20 -170 3 -33 10 -87 15 -120 6 -33 11 -67 11 -75 1 -31 111 -906 116 -920 3
-8 7 -40 9 -70 2 -30 11 -95 19 -145 8 -49 17 -110 19 -135 10 -94 38 -296 44
-310 3 -8 4 -20 4 -26 -4 -26 178 -1256 293 -1984 66 -418 77 -487 206 -1345
39 -258 73 -477 76 -485 4 -8 5 -19 4 -23 -2 -10 93 -590 118 -722 11 -55 25
-131 31 -170 7 -38 15 -77 18 -85 3 -8 5 -18 4 -22 -1 -4 16 -98 38 -210 48
-241 101 -450 128 -507 l20 -41 -627 0 -627 0 -16 62 c-8 35 -36 140 -62 233
-50 179 -240 942 -276 1105 -140 633 -254 1193 -309 1505 -114 661 -184 1060
-186 1063 -2 2 -83 -13 -181 -32 -318 -62 -647 -106 -984 -131 -300 -22 -1150
-19 -1150 4 0 3 60 36 133 73 579 293 823 644 919 1323 9 60 13 206 12 440 0
374 -7 465 -74 1005 -102 821 -378 3648 -475 4875 -144 1821 -228 3789 -268
6260 l-2 130 -2277 3 -2277 2 -4 -112 c-5 -162 0 -2080 7 -2353 3 -126 8 -329
11 -450 16 -648 29 -1016 60 -1730 155 -3548 576 -7779 1105 -11128 17 -103
30 -192 30 -197 0 -6 -202 -10 -549 -10 -515 0 -550 1 -555 18 -3 9 -30 148
-61 307 -31 160 -60 313 -66 340 -50 254 -200 1149 -268 1605 -76 506 -158
1118 -236 1755 -163 1327 -332 3283 -425 4890 -11 193 -22 386 -25 430 -7 103
-41 820 -55 1130 -5 132 -12 285 -15 340 -2 55 -7 179 -10 275 -3 96 -8 211
-10 255 -2 44 -7 184 -11 310 -3 127 -7 239 -9 250 -1 11 -6 180 -10 375 -4
195 -9 362 -10 370 -2 9 -6 241 -10 515 -4 275 -9 516 -11 535 -2 29 -17 2205
-15 2263 1 16 -31 17 -581 15 l-583 -3 -7 -50 c-12 -80 -48 -458 -47 -485 0
-14 -1 -34 -4 -45 -2 -11 -7 -65 -11 -120 -4 -55 -9 -129 -11 -165 -10 -130
-26 -429 -26 -472 0 -24 -3 -131 -6 -238 -14 -466 -17 -633 -17 -1290 0 -648
4 -1053 17 -1615 8 -338 22 -808 31 -1055 3 -80 7 -206 10 -280 2 -74 7 -191
9 -260 3 -69 8 -181 10 -250 3 -69 8 -177 11 -240 13 -291 15 -341 20 -430 2
-52 7 -147 10 -210 5 -116 10 -220 19 -405 3 -55 8 -170 11 -255 4 -85 8 -168
11 -185 3 -16 7 -95 10 -175 3 -80 7 -165 10 -190 3 -25 8 -83 10 -130 2 -47
5 -125 8 -175 3 -49 8 -148 11 -220 3 -71 9 -152 13 -180 3 -27 6 -59 5 -70
-2 -11 4 -121 13 -245 16 -245 20 -313 30 -495 3 -66 11 -172 16 -235 5 -63
10 -131 9 -150 0 -19 4 -91 10 -160 14 -179 20 -261 20 -295 0 -16 11 -183 25
-370 14 -187 27 -365 29 -395 2 -30 6 -93 10 -140 3 -47 6 -92 7 -100 0 -8 4
-73 9 -145 5 -71 12 -173 15 -225 3 -52 8 -110 11 -129 3 -19 7 -61 9 -95 2
-34 5 -92 8 -131 3 -38 8 -117 11 -175 3 -58 9 -120 12 -139 3 -19 7 -61 9
-95 11 -204 17 -292 21 -297 2 -4 6 -62 10 -130 3 -68 7 -127 10 -130 2 -3 6
-55 9 -114 3 -60 10 -152 15 -204 6 -53 13 -145 16 -206 3 -60 7 -112 10 -116
2 -3 6 -51 9 -105 3 -55 12 -169 21 -254 8 -85 15 -162 15 -170 1 -37 40 -528
44 -555 3 -16 7 -73 10 -125 3 -52 7 -106 10 -120 3 -14 8 -68 10 -120 3 -52
12 -160 20 -240 21 -211 25 -262 25 -290 0 -14 9 -117 20 -230 11 -113 22
-243 25 -290 3 -47 10 -123 16 -170 5 -47 10 -94 10 -104 0 -10 6 -82 14 -160
8 -78 17 -184 20 -236 4 -52 8 -97 11 -101 2 -4 7 -54 10 -110 3 -57 7 -107
10 -110 2 -4 7 -53 10 -109 3 -56 9 -111 13 -122 4 -10 5 -35 3 -54 l-4 -34
-549 0 c-302 0 -549 1 -549 3 -6 27 -72 604 -76 657 -3 41 -9 104 -14 140 -5
36 -12 99 -15 140 -3 41 -12 131 -20 200 -8 69 -16 152 -18 185 -5 66 -9 114
-38 405 -11 107 -20 206 -20 220 -1 14 -5 72 -10 130 -5 58 -11 139 -15 180
-3 41 -14 172 -24 290 -21 239 -24 279 -34 430 -3 58 -13 177 -21 265 -7 88
-16 189 -18 225 -14 218 -17 261 -22 320 -3 36 -10 128 -15 205 -14 191 -18
258 -35 490 -8 110 -17 247 -20 305 -3 58 -8 128 -12 155 -4 28 -6 54 -4 59 2
8 -30 516 -44 706 -3 36 -12 187 -20 335 -9 149 -17 286 -20 305 -2 19 -7 94
-10 165 -3 72 -7 153 -10 180 -2 28 -7 102 -10 165 -3 63 -8 147 -10 185 -2
39 -7 115 -10 170 -3 55 -8 132 -10 170 -3 39 -10 165 -16 280 -5 116 -12 226
-15 245 -4 37 -12 204 -13 280 -1 25 -8 151 -16 280 -8 129 -16 276 -19 325
-2 50 -7 135 -9 190 -3 55 -8 141 -10 190 -11 202 -15 275 -20 375 -5 114 -13
263 -21 405 -3 50 -6 101 -6 115 -5 129 -21 498 -25 545 -3 33 -7 107 -9 165
-4 109 -10 224 -19 395 -10 194 -24 500 -31 675 -13 317 -18 437 -22 465 -2
17 -5 86 -8 155 -2 69 -6 170 -8 225 -5 95 -10 221 -23 562 -3 81 -8 175 -11
208 -2 33 -6 110 -8 170 -3 61 -7 164 -10 230 -3 66 -6 127 -6 135 -9 264 -21
562 -25 620 -3 41 -7 129 -9 195 -4 113 -8 237 -19 505 -3 63 -8 212 -11 330
-4 118 -9 231 -11 250 -3 19 -7 127 -10 240 -3 113 -8 225 -10 250 -5 45 -8
139 -19 535 -3 116 -8 239 -11 275 -3 36 -7 128 -10 205 -3 123 -8 229 -17
460 l-3 60 -685 47 c-3045 207 -3110 211 -3118 203 -4 -4 -7 -102 -6 -218 0
-241 13 -324 85 -545 69 -210 150 -380 310 -645 93 -154 113 -213 107 -306
-11 -148 -121 -291 -357 -462 -56 -40 -101 -78 -101 -83 0 -6 34 -163 76 -351
490 -2202 893 -4867 1249 -8255 25 -239 53 -475 62 -525 32 -183 105 -359 226
-551 l64 -102 -77 -102 c-119 -156 -172 -216 -335 -377 -442 -438 -997 -762
-1591 -931 l-72 -20 53 112 c97 204 166 436 196 666 16 121 16 446 0 570 -53
410 -482 1993 -1251 4615 -82 278 -425 1432 -494 1660 l-54 180 4 -75 c2 -41
11 -235 19 -430 85 -2004 267 -4631 535 -7720 102 -1178 134 -1531 150 -1645
6 -38 21 -189 35 -335 14 -146 28 -286 31 -313 l6 -47 -553 2 -554 3 -11 100
c-7 55 -15 123 -18 150 -17 142 -69 665 -100 1000 -134 1451 -253 3353 -351
5570 -13 314 -27 622 -30 685 -6 138 -31 765 -45 1160 -5 157 -12 341 -15 410
-2 69 -7 195 -10 280 -3 85 -7 211 -10 280 -3 69 -7 208 -10 310 -3 102 -7
241 -10 310 -3 69 -7 208 -10 310 -16 542 -25 869 -30 1080 -3 129 -8 273 -10
320 -3 47 -8 238 -11 425 -4 187 -8 347 -10 355 -1 8 -3 75 -3 149 l-1 134
-30 -6 c-16 -4 -136 -9 -267 -13 l-238 -7 -1 -796 c-2 -2282 -166 -4771 -551
-8341 -28 -266 -4 -457 93 -722 43 -119 52 -154 41 -159 -7 -4 -45 -35 -85
-68 -346 -290 -702 -493 -1138 -649 -264 -95 -590 -168 -854 -191 -224 -20
-250 -22 -250 -16 0 3 31 44 69 93 178 225 315 502 385 780 54 210 70 328 70
497 -1 145 -11 235 -108 965 -455 3434 -749 5788 -991 7954 -25 219 -45 404
-45 410 0 8 -40 16 -113 23 -63 7 -137 21 -169 33 -150 56 -263 282 -307 615
-9 68 -241 2514 -356 3755 -83 888 -67 1462 56 2115 39 207 59 284 126 489
171 523 380 883 697 1202 78 78 188 179 246 224 260 206 625 417 1045 605 77
35 176 80 220 100 102 47 576 234 810 318 558 203 1300 433 2275 707 1222 343
1704 487 2310 689 1044 349 1465 559 1782 889 272 284 361 556 337 1033 -15
303 -39 673 -54 824 -29 288 -105 701 -133 722 -8 7 -17 12 -18 10 -1 -1 -23
-74 -49 -162 -96 -329 -276 -905 -325 -1038 -101 -279 -232 -562 -336 -727
-122 -191 -272 -357 -403 -444 -100 -66 -749 -384 -1071 -524 -947 -412 -1797
-668 -2860 -862 -415 -76 -1397 -227 -1590 -245 -61 -6 -362 -50 -1005 -146
-381 -57 -539 -94 -835 -194 -281 -96 -555 -215 -1038 -451 -578 -283 -765
-355 -994 -384 -154 -19 -295 18 -378 99 -167 161 -29 447 437 902 l169 165
-115 22 c-204 39 -443 127 -786 290 -102 48 -250 108 -340 138 -384 126 -1075
277 -2280 499 -137 25 -358 66 -490 90 -132 24 -319 58 -415 75 -1789 319
-3171 602 -3915 800 -706 189 -1073 309 -1405 459 -687 313 -1890 1288 -3216
2607 -729 726 -1308 1354 -1926 2091 -287 341 -756 943 -947 1215 -366 520
-587 874 -782 1253 -255 496 -385 903 -434 1365 -26 243 -14 549 30 760 150
713 647 1231 1250 1301 170 19 407 -11 517 -67 15 -8 35 -15 45 -17 46 -9 247
-143 331 -221 81 -76 169 -185 394 -486 463 -622 1586 -2205 2938 -4140 321
-459 733 -1049 915 -1310 465 -665 1182 -1698 1604 -2310 l162 -235 56 -22
c81 -32 643 -227 1253 -434 374 -127 1443 -468 1970 -628 91 -27 270 -82 399
-121 481 -146 1144 -339 1636 -475 596 -165 1161 -353 1770 -590 336 -130 883
-390 1166 -553 321 -185 564 -359 741 -530 166 -160 252 -285 287 -412 l16
-57 125 94 c145 110 353 217 685 353 560 229 1522 562 2730 945 237 75 495
158 575 185 80 27 327 106 550 175 1084 337 2121 683 2490 830 139 55 312 142
347 174 34 31 36 39 83 366 25 174 170 1299 170 1320 0 18 -260 -29 -388 -70
-42 -13 -78 -23 -80 -21 -2 2 12 35 31 72 94 187 177 504 252 966 30 188 76
520 89 648 2 25 16 155 30 290 75 715 126 1431 221 3130 99 1773 101 1797 150
2085 116 690 346 1266 703 1765 82 115 237 302 301 364 22 22 52 62 65 90 29
57 132 181 306 366 151 160 675 680 893 885 l167 159 0 86 c0 216 -40 533 -94
756 -34 138 -117 376 -160 462 l-22 43 -87 -71 c-526 -431 -1011 -509 -1505
-243 -174 94 -304 202 -486 403 -351 386 -645 827 -897 1345 -295 607 -482
1181 -599 1840 -38 215 -75 673 -53 650 5 -5 36 -48 68 -95z m-30655 -12854
c14 -2 63 -7 110 -11 47 -4 92 -8 100 -10 8 -1 42 -5 75 -9 420 -50 920 -178
1290 -331 648 -268 1097 -627 1444 -1154 408 -622 613 -1405 650 -2483 3 -106
6 -284 5 -395 0 -178 -2 -205 -18 -222 -41 -45 -108 -30 -120 26 -3 15 -24
172 -46 348 -106 839 -160 1164 -255 1531 -356 1385 -1103 2065 -2593 2359
-267 53 -417 77 -1007 160 -297 41 -550 80 -563 85 -19 8 -23 17 -20 43 4 47
32 55 204 63 82 4 151 9 154 11 6 6 555 -5 590 -11z m59615 -5101 c50 -9 214
-48 365 -87 347 -89 361 -92 560 -122 205 -31 503 -61 910 -91 176 -13 590
-56 725 -76 524 -77 920 -198 1404 -431 147 -71 276 -143 511 -287 96 -60 247
-148 335 -196 556 -307 767 -539 769 -846 1 -81 -1 -90 -38 -163 -57 -112
-144 -185 -416 -351 -309 -188 -653 -509 -837 -780 -134 -198 -259 -419 -306
-541 -80 -208 -84 -347 -13 -452 83 -123 268 -133 434 -22 36 24 202 184 414
399 412 417 508 509 684 650 252 204 516 356 759 441 89 31 129 40 155 35 19
-3 73 -7 120 -9 180 -7 334 -75 510 -224 373 -316 742 -934 930 -1555 99 -331
141 -626 120 -851 -28 -286 -109 -415 -365 -573 -71 -44 -146 -89 -165 -98
-42 -21 -131 -75 -216 -130 -102 -67 -254 -199 -254 -222 0 -7 -5 -13 -11 -13
-5 0 -24 -30 -42 -67 -29 -61 -32 -77 -31 -153 4 -285 193 -370 544 -245 259
93 786 435 1046 679 55 51 60 53 68 29 152 -496 218 -954 187 -1293 -39 -419
-186 -746 -455 -1013 -152 -151 -278 -242 -478 -346 -292 -152 -560 -233 -920
-275 -104 -13 -340 -30 -373 -27 -5 0 -66 3 -135 7 -69 4 -214 16 -322 28
-109 12 -198 20 -198 18 0 -5 99 -193 233 -442 22 -41 70 -131 107 -200 86
-161 131 -243 140 -255 4 -5 19 -30 32 -55 14 -25 36 -63 48 -85 13 -22 35
-60 49 -85 13 -25 30 -48 35 -52 6 -4 7 -8 2 -8 -5 0 -4 -6 1 -12 6 -7 22 -33
35 -58 14 -25 36 -63 48 -85 13 -22 34 -59 47 -83 13 -24 36 -67 52 -95 16
-29 45 -83 66 -122 21 -38 45 -78 53 -87 8 -10 12 -18 8 -18 -5 0 3 -19 17
-42 25 -43 99 -186 198 -378 29 -58 58 -108 64 -112 5 -4 7 -8 3 -8 -4 0 43
-100 103 -222 61 -123 125 -253 143 -290 27 -55 43 -75 97 -114 147 -107 337
-287 439 -414 324 -407 421 -815 300 -1272 l-20 -77 50 -128 c28 -70 55 -137
59 -148 5 -11 19 -47 31 -80 13 -33 29 -73 36 -90 22 -54 210 -553 317 -845
514 -1398 910 -2617 1206 -3710 40 -146 74 -271 76 -278 3 -9 -28 -12 -133
-12 l-138 0 -41 123 c-22 67 -91 277 -153 467 -203 626 -260 800 -415 1265
-233 699 -464 1371 -632 1835 -80 221 -280 762 -318 860 -54 139 -102 262
-108 283 -4 9 -10 17 -15 17 -16 0 -321 -635 -367 -765 -86 -239 -137 -458
-164 -705 -11 -104 -8 -266 9 -505 13 -178 5 -360 -17 -399 -6 -10 -36 19
-118 117 -267 319 -619 711 -865 962 -127 130 -139 145 -159 205 -37 114 -60
241 -72 392 -21 256 9 509 130 1108 43 213 48 247 35 260 -20 20 -26 11 -83
-122 -127 -295 -204 -589 -242 -913 -17 -147 -14 -274 10 -420 11 -71 21 -134
21 -138 0 -5 -24 12 -52 38 -345 304 -602 499 -1193 905 -297 204 -401 276
-417 290 -4 3 -15 46 -23 95 -25 142 -60 272 -145 530 -114 348 -130 446 -130
765 0 139 8 293 25 480 14 151 28 339 32 417 7 154 2 173 -43 173 -19 0 -30
-13 -58 -68 -88 -174 -136 -342 -162 -563 -13 -116 -15 -194 -10 -404 9 -416
20 -483 132 -829 72 -222 118 -386 110 -394 -5 -4 -117 82 -336 259 -380 305
-798 590 -1254 856 -139 81 -411 216 -714 353 -188 85 -391 192 -485 254 -30
20 -57 36 -61 36 -16 0 118 -152 215 -244 221 -210 489 -386 1081 -710 495
-270 715 -429 1226 -885 89 -79 162 -148 162 -151 0 -4 -51 -20 -112 -34 -444
-107 -980 -342 -1366 -600 -230 -153 -321 -225 -486 -386 -200 -195 -353 -395
-471 -613 -41 -77 -46 -92 -37 -113 8 -17 20 -24 38 -24 28 0 18 -10 439 401
320 313 427 405 648 563 371 264 871 464 1486 596 l94 20 86 -69 c125 -99 228
-171 596 -421 317 -215 520 -362 670 -484 76 -63 405 -356 405 -362 0 -1 -114
-88 -252 -192 -397 -297 -612 -485 -781 -681 -274 -320 -394 -605 -388 -928 1
-55 14 -70 27 -30 22 74 129 284 210 414 249 398 577 725 1187 1183 l138 103
155 -154 c86 -85 220 -224 299 -309 255 -277 603 -686 591 -697 -3 -3 -49 -25
-103 -48 -250 -107 -401 -235 -761 -640 -255 -287 -251 -282 -367 -403 -194
-202 -397 -361 -595 -466 -79 -41 -242 -112 -279 -122 -9 -2 -54 -17 -101 -34
-47 -17 -96 -32 -110 -35 -14 -3 -34 -7 -45 -10 -11 -2 -47 -11 -80 -20 -33
-8 -80 -17 -105 -20 -25 -3 -52 -7 -60 -10 -14 -4 -158 -16 -210 -17 -118 -2
-347 31 -377 55 -7 5 -13 7 -13 3 0 -3 -28 5 -63 18 -244 92 -463 278 -566
481 -38 76 -50 129 -46 208 5 127 25 160 224 357 223 222 301 313 484 563 209
285 300 495 300 692 1 193 -81 326 -228 367 -68 19 -182 13 -260 -13 -102 -35
-247 -119 -387 -224 -405 -304 -733 -748 -894 -1210 -13 -38 -27 -77 -31 -85
-9 -22 -13 -37 -20 -70 -3 -18 -12 -31 -22 -32 -9 0 -27 -2 -41 -4 -200 -24
-457 -24 -610 0 -14 2 -47 7 -75 11 -27 4 -54 9 -58 12 -5 3 -23 7 -40 10
-108 16 -320 111 -442 198 -80 58 -209 193 -266 281 -119 180 -215 426 -268
689 -18 90 -25 133 -36 230 -2 17 -6 53 -9 81 -38 320 -42 902 -11 1444 3 47
7 123 10 170 22 400 22 905 0 1135 -2 17 -6 62 -10 100 -4 39 -9 84 -11 100
-3 17 -7 41 -9 55 -55 356 -168 670 -324 905 -138 207 -266 312 -560 459 -83
42 -151 80 -151 85 0 14 103 106 150 134 74 43 196 85 300 103 14 2 48 9 75
14 109 20 287 31 645 40 206 5 382 11 390 14 8 2 49 7 90 11 104 8 172 16 189
21 10 3 -24 43 -98 116 -439 431 -648 924 -540 1274 43 140 124 261 200 299
79 41 216 71 480 109 363 52 548 101 735 193 172 85 298 203 344 322 23 59 45
195 35 212 -4 5 -8 33 -10 62 -4 61 -37 172 -71 239 -49 97 -203 163 -464 198
-108 15 -349 15 -462 0 -109 -13 -267 -53 -333 -84 -47 -22 -238 -175 -267
-213 -7 -10 -32 -33 -54 -51 -52 -40 -281 -289 -369 -401 -36 -47 -95 -128
-130 -181 -35 -53 -76 -105 -91 -115 -59 -38 -131 -28 -192 29 -13 11 -61 77
-106 146 -400 606 -672 1246 -768 1805 -29 173 -32 477 -4 603 23 109 55 200
100 290 66 131 139 159 476 177 240 13 266 18 417 87 441 199 613 335 613 483
0 53 -14 84 -65 146 -107 128 -256 208 -445 238 -127 21 -437 8 -530 -21 -77
-24 -222 -101 -339 -179 -110 -75 -127 -83 -169 -83 -73 1 -104 23 -142 101
-116 243 -207 544 -253 833 -18 115 -21 179 -22 430 0 366 5 406 140 1175 188
1067 260 1577 295 2090 6 88 12 180 15 205 2 25 7 207 11 405 4 198 11 365 16
370 32 36 364 42 543 10z m-5949 -3185 c128 -761 257 -1344 644 -2895 131
-528 266 -1075 299 -1215 470 -2004 743 -4006 831 -6095 25 -608 31 -1186 23
-2320 -14 -2013 -6 -2626 47 -3420 61 -906 163 -1634 336 -2390 30 -132 81
-361 114 -510 156 -711 219 -939 394 -1414 32 -84 56 -154 54 -155 -10 -7
-285 -91 -409 -126 -403 -111 -918 -204 -1354 -244 -281 -26 -512 -36 -811
-36 -264 0 -325 6 -261 26 43 13 257 123 325 167 141 91 270 234 343 379 92
184 128 345 136 623 11 384 -39 651 -235 1245 -234 707 -471 1499 -1147 3815
-509 1744 -986 3647 -1461 5835 -286 1315 -538 2561 -929 4590 -256 1330 -399
2045 -681 3404 -68 330 -123 600 -121 602 1 1 146 4 322 8 1028 20 1944 101
2795 247 227 38 517 95 630 123 30 8 59 13 64 12 5 -1 28 -117 52 -256z
m-41176 -905 c140 -9 316 -20 390 -26 74 -5 360 -25 635 -44 890 -63 1674
-135 2170 -200 556 -73 818 -113 1123 -175 703 -141 1098 -324 1442 -669 152
-153 237 -271 329 -456 216 -434 279 -967 190 -1602 -35 -255 -76 -443 -174
-798 -196 -712 -569 -1481 -1067 -2200 -111 -160 -510 -710 -1407 -1939 -273
-375 -519 -712 -546 -751 -43 -60 -609 -829 -1350 -1834 -198 -268 -1772
-2370 -1782 -2381 -5 -5 2 204 12 340 2 36 7 119 10 185 3 66 7 158 10 205 2
47 7 139 10 205 3 66 8 161 10 210 3 50 14 279 25 510 11 231 22 470 25 530
14 282 21 426 35 755 5 124 12 277 15 340 3 63 10 216 15 340 14 321 20 450
25 570 3 58 7 157 10 220 2 63 7 169 10 235 3 66 12 284 20 485 8 201 17 421
20 490 2 69 7 190 10 270 3 80 7 188 10 240 8 174 15 349 45 1125 16 424 32
842 36 930 13 337 -48 604 -195 850 -170 287 -416 494 -726 615 -33 13 -61 24
-63 26 -2 1 12 23 31 48 67 86 91 178 131 486 90 697 132 1336 133 2030 0 267
-10 705 -20 820 l-3 45 75 -7 c42 -4 191 -15 331 -23z m58195 -2931 c178 -46
291 -186 365 -449 119 -425 129 -915 40 -1845 -11 -115 -14 -151 -35 -445 -39
-548 -45 -1350 -12 -1496 43 -185 174 -302 341 -303 121 0 218 57 274 161 53
100 63 189 72 643 5 223 14 443 20 490 32 250 135 489 249 579 51 41 171 96
239 110 87 18 211 14 288 -10 60 -19 77 -30 134 -88 186 -190 296 -578 301
-1056 2 -213 -38 -575 -92 -825 -118 -553 -335 -1062 -719 -1685 -145 -234
-275 -460 -301 -523 -11 -26 -31 -71 -45 -99 -13 -29 -38 -94 -55 -145 -26
-78 -30 -104 -26 -164 5 -88 30 -133 95 -172 41 -23 57 -27 124 -26 146 2 229
67 362 284 109 179 139 240 236 470 220 522 357 712 602 835 294 147 498 41
578 -299 83 -355 27 -1006 -123 -1421 -60 -166 -328 -479 -627 -733 -69 -59
-127 -109 -130 -112 -3 -3 -41 -34 -85 -70 -99 -81 -109 -89 -166 -136 -25
-22 -72 -61 -104 -89 -172 -145 -312 -286 -469 -470 -110 -129 -189 -248 -257
-385 l-49 -98 16 -54 c24 -80 52 -123 96 -148 35 -20 50 -22 121 -18 96 6 167
31 261 91 53 35 86 68 168 173 192 245 483 560 627 679 220 179 395 241 573
201 192 -43 327 -189 390 -421 18 -69 21 -107 21 -270 0 -536 -144 -935 -479
-1325 -96 -111 -340 -344 -694 -660 -189 -169 -225 -202 -355 -320 -107 -98
-216 -202 -392 -375 -96 -93 -179 -173 -186 -177 -16 -10 -1964 -10 -1970 0
-3 4 4 79 14 167 26 217 35 596 20 805 -41 555 -153 1057 -397 1770 -42 124
-81 236 -87 250 -6 14 -11 27 -11 30 -1 3 -9 25 -18 50 -9 25 -37 101 -61 170
-25 69 -68 186 -95 260 -140 375 -263 738 -347 1015 -31 104 -121 437 -130
483 -2 10 -17 85 -34 167 -37 178 -81 449 -115 705 -120 893 -108 1466 41
1960 89 296 205 428 408 460 87 14 193 -1 251 -35 120 -71 196 -245 225 -520
13 -123 16 -447 11 -1125 -2 -358 -1 -381 22 -521 86 -513 202 -660 348 -444
138 204 188 448 193 930 7 740 -31 1093 -225 2085 -94 480 -147 798 -180 1065
-6 50 -13 106 -15 126 -25 198 -26 770 -1 979 50 423 120 706 231 935 114 237
267 379 460 426 89 22 194 23 270 3z m-65771 -926 c19 -32 86 -674 111 -1068
3 -52 8 -115 10 -140 2 -25 7 -110 10 -190 4 -80 8 -155 10 -167 30 -193 25
-2209 -5 -2288 -21 -55 -90 -71 -136 -32 -25 21 -28 33 -39 148 -7 68 -23 246
-34 394 -28 362 -29 382 -36 515 -3 63 -8 140 -10 170 -2 30 -7 143 -10 250
-3 107 -8 230 -11 274 -6 88 -6 1272 0 1326 2 19 7 131 11 249 4 118 8 222 10
230 1 9 6 81 10 161 7 163 17 190 65 190 20 0 34 -7 44 -22z m6515 -1513 c53
-514 85 -1100 101 -1815 7 -351 4 -1996 -4 -2050 -3 -14 -7 -203 -11 -420 -3
-217 -8 -413 -10 -435 -2 -22 -7 -152 -10 -290 -3 -137 -8 -279 -10 -315 -3
-36 -7 -144 -10 -240 -9 -264 -37 -920 -50 -1170 -3 -47 -7 -141 -10 -210 -3
-69 -7 -163 -10 -210 -5 -94 -7 -129 -35 -645 -33 -602 -80 -1377 -86 -1422
-3 -24 -16 -55 -28 -70 -82 -98 -378 -533 -538 -788 -281 -450 -516 -881 -874
-1600 -134 -269 -243 -487 -244 -482 0 4 16 40 36 80 l37 72 -17 300 c-9 165
-32 523 -51 795 -69 992 -85 1306 -90 1824 l-4 370 77 49 c42 27 109 82 147
121 230 237 523 765 775 1396 120 299 299 764 296 767 -9 9 -1034 -1373 -1166
-1572 -194 -292 -220 -328 -420 -570 -186 -226 -328 -405 -331 -420 -2 -5 -32
-29 -68 -53 -143 -93 -259 -253 -342 -469 -13 -35 -27 -63 -31 -63 -3 0 -4
-10 -1 -22 3 -17 2 -19 -5 -9 -7 10 -25 -9 -73 -80 -468 -692 -886 -1445
-1384 -2494 -55 -115 -114 -239 -131 -275 l-32 -65 -6 85 c-3 47 -13 207 -21
355 -9 149 -31 493 -50 765 -41 597 -63 979 -74 1280 -9 258 -10 851 -2 1048
4 85 2 132 -4 132 -5 0 26 15 70 34 243 100 357 190 506 396 222 310 419 688
634 1220 217 538 536 1385 750 1995 204 580 558 1616 655 1920 190 594 274
828 389 1090 81 182 134 280 307 567 227 376 490 831 786 1358 42 74 108 191
146 260 l71 125 208 45 c204 45 208 45 215 25 4 -11 16 -110 27 -220z m-6962
-3217 c-3 -8 -6 -5 -6 6 -1 11 2 17 5 13 3 -3 4 -12 1 -19z m0 -1470 c-3 -8
-6 -5 -6 6 -1 11 2 17 5 13 3 -3 4 -12 1 -19z m-90 -2970 c-3 -8 -6 -5 -6 6
-1 11 2 17 5 13 3 -3 4 -12 1 -19z m5063 -1103 c-14 -8 -29 -14 -35 -14 -5 0
1 6 15 14 14 8 30 14 35 14 6 0 -1 -6 -15 -14z m-60 -25 c-8 -5 -19 -10 -25
-10 -5 0 -3 5 5 10 8 5 20 10 25 10 6 0 3 -5 -5 -10z m-63 -26 c-3 -3 -12 -4
-19 -1 -8 3 -5 6 6 6 11 1 17 -2 13 -5z m-247 -79 c-46 -18 -64 -17 -25 0 17
8 37 14 45 14 8 0 -1 -7 -20 -14z m-110 -40 c-14 -8 -29 -14 -35 -14 -5 0 1 6
15 14 14 8 30 14 35 14 6 0 -1 -6 -15 -14z m-2751 -58 c-2 -1 -13 -9 -24 -17
-19 -14 -19 -14 -6 3 7 9 18 17 24 17 6 0 8 -1 6 -3z m-49 -31 c0 -2 -8 -10
-17 -17 -16 -13 -17 -12 -4 4 13 16 21 21 21 13z m-50 -39 c0 -2 -15 -16 -32
-33 l-33 -29 29 33 c28 30 36 37 36 29z m-90 -101 c0 -2 -8 -10 -17 -17 -16
-13 -17 -12 -4 4 13 16 21 21 21 13z m-80 -116 c-6 -11 -13 -20 -16 -20 -2 0
0 9 6 20 6 11 13 20 16 20 2 0 0 -9 -6 -20z m-39 -73 c-10 -9 -11 -8 -5 6 3
10 9 15 12 12 3 -3 0 -11 -7 -18z m-30 -64 c-12 -20 -14 -14 -5 12 4 9 9 14
11 11 3 -2 0 -13 -6 -23z m2553 -242 c-4 -17 -9 -30 -11 -27 -3 2 -2 19 2 36
9 41 17 33 9 -9z m-2637 -13 c-3 -8 -6 -5 -6 6 -1 11 2 17 5 13 3 -3 4 -12 1
-19z m-10 -40 c-3 -8 -6 -5 -6 6 -1 11 2 17 5 13 3 -3 4 -12 1 -19z m2630 -10
c-3 -8 -6 -5 -6 6 -1 11 2 17 5 13 3 -3 4 -12 1 -19z m-2640 -40 c-3 -8 -6 -5
-6 6 -1 11 2 17 5 13 3 -3 4 -12 1 -19z m2630 -10 c-3 -7 -5 -2 -5 12 0 14 2
19 5 13 2 -7 2 -19 0 -25z m-2640 -40 c-3 -8 -6 -5 -6 6 -1 11 2 17 5 13 3 -3
4 -12 1 -19z m2630 -10 c-3 -7 -5 -2 -5 12 0 14 2 19 5 13 2 -7 2 -19 0 -25z
m-2640 -50 c-3 -7 -5 -2 -5 12 0 14 2 19 5 13 2 -7 2 -19 0 -25z m2630 -15
c-3 -10 -5 -2 -5 17 0 19 2 27 5 18 2 -10 2 -26 0 -35z m-2640 -65 c-3 -7 -5
-2 -5 12 0 14 2 19 5 13 2 -7 2 -19 0 -25z m2630 -20 c-2 -13 -4 -5 -4 17 -1
22 1 32 4 23 2 -10 2 -28 0 -40z m-2640 -95 c-2 -16 -4 -5 -4 22 0 28 2 40 4
28 2 -13 2 -35 0 -50z m2630 -40 c-2 -16 -4 -3 -4 27 0 30 2 43 4 28 2 -16 2
-40 0 -55z m-10 -145 c-3 -8 -6 -5 -6 6 -1 11 2 17 5 13 3 -3 4 -12 1 -19z
m-2630 -7 c0 -11 -5 -18 -9 -15 -4 3 -5 11 -1 19 7 21 12 19 10 -4z m2640
-233 c-2 -24 -4 -7 -4 37 0 44 2 63 4 43 2 -21 2 -57 0 -80z m-2630 -15 c-2
-16 -4 -3 -4 27 0 30 2 43 4 28 2 -16 2 -40 0 -55z m2640 -120 c-2 -16 -4 -5
-4 22 0 28 2 40 4 28 2 -13 2 -35 0 -50z m-2630 -10 c-3 -10 -5 -2 -5 17 0 19
2 27 5 18 2 -10 2 -26 0 -35z m2640 -95 c-2 -13 -4 -5 -4 17 -1 22 1 32 4 23
2 -10 2 -28 0 -40z m-2630 -15 c-3 -10 -5 -2 -5 17 0 19 2 27 5 18 2 -10 2
-26 0 -35z m2640 -80 c-3 -10 -5 -2 -5 17 0 19 2 27 5 18 2 -10 2 -26 0 -35z
m-2630 -10 c-3 -10 -5 -4 -5 12 0 17 2 24 5 18 2 -7 2 -21 0 -30z m2640 -95
c-2 -13 -4 -3 -4 22 0 25 2 35 4 23 2 -13 2 -33 0 -45z m-2630 0 c-3 -7 -5 -2
-5 12 0 14 2 19 5 13 2 -7 2 -19 0 -25z m2640 -75 c-3 -10 -5 -2 -5 17 0 19 2
27 5 18 2 -10 2 -26 0 -35z m-2630 -10 c-3 -10 -5 -4 -5 12 0 17 2 24 5 18 2
-7 2 -21 0 -30z m2640 -80 c-3 -10 -5 -2 -5 17 0 19 2 27 5 18 2 -10 2 -26 0
-35z m-2630 -10 c-3 -10 -5 -4 -5 12 0 17 2 24 5 18 2 -7 2 -21 0 -30z m2640
-85 c-2 -13 -4 -5 -4 17 -1 22 1 32 4 23 2 -10 2 -28 0 -40z m-2630 -15 c-3
-10 -5 -4 -5 12 0 17 2 24 5 18 2 -7 2 -21 0 -30z m2641 -72 c-1 -22 -5 -38
-8 -36 -7 4 -1 75 6 75 3 0 4 -18 2 -39z m-2631 -28 c-3 -10 -5 -2 -5 17 0 19
2 27 5 18 2 -10 2 -26 0 -35z m2640 -105 c-2 -13 -4 -3 -4 22 0 25 2 35 4 23
2 -13 2 -33 0 -45z m-2630 -30 c-2 -13 -4 -3 -4 22 0 25 2 35 4 23 2 -13 2
-33 0 -45z m2640 -215 c-2 -32 -3 -8 -3 52 0 61 1 87 3 58 2 -29 2 -78 0 -110z
m-2630 -250 c-1 -65 -3 -14 -3 112 0 127 2 180 3 118 2 -62 2 -165 0 -230z
m2630 165 c-3 -8 -6 -5 -6 6 -1 11 2 17 5 13 3 -3 4 -12 1 -19z m0 -37 c0 -11
-5 -18 -9 -15 -4 3 -5 11 -1 19 7 21 12 19 10 -4z m2 -173 c1 -79 0 -140 -3
-138 -2 3 -5 64 -6 135 -2 140 -2 145 3 145 2 0 5 -64 6 -142z m-2642 -270
c-2 -18 -4 -6 -4 27 0 33 2 48 4 33 2 -15 2 -42 0 -60z m2630 -40 c-2 -18 -4
-6 -4 27 0 33 2 48 4 33 2 -15 2 -42 0 -60z m1104 -24 c-22 -44 -40 -76 -41
-72 0 11 73 158 78 154 2 -2 -15 -39 -37 -82z m-3744 -86 c-2 -13 -4 -5 -4 17
-1 22 1 32 4 23 2 -10 2 -28 0 -40z m2630 -35 c-2 -16 -4 -5 -4 22 0 28 2 40
4 28 2 -13 2 -35 0 -50z m1009 -99 c-25 -49 -45 -86 -45 -82 -1 11 83 178 87
174 2 -2 -17 -44 -42 -92z m-3649 -6 c-2 -13 -4 -5 -4 17 -1 22 1 32 4 23 2
-10 2 -28 0 -40z m2630 -30 c-2 -13 -4 -5 -4 17 -1 22 1 32 4 23 2 -10 2 -28
0 -40z m-1646 -31 c-10 -9 -11 -8 -5 6 3 10 9 15 12 12 3 -3 0 -11 -7 -18z
m-994 -59 c-2 -13 -4 -5 -4 17 -1 22 1 32 4 23 2 -10 2 -28 0 -40z m2630 -30
c-2 -13 -4 -5 -4 17 -1 22 1 32 4 23 2 -10 2 -28 0 -40z m939 -34 c-19 -38
-35 -66 -36 -62 0 11 63 138 68 134 2 -2 -13 -35 -32 -72z m-3579 -51 c-3 -10
-5 -2 -5 17 0 19 2 27 5 18 2 -10 2 -26 0 -35z m2630 -20 c-2 -16 -4 -5 -4 22
0 28 2 40 4 28 2 -13 2 -35 0 -50z m-1716 4 c-10 -9 -11 -8 -5 6 3 10 9 15 12
12 3 -3 0 -11 -7 -18z m2585 -103 c-19 -38 -35 -66 -36 -62 0 11 63 138 68
134 2 -2 -13 -35 -32 -72z m-2615 39 c-12 -20 -14 -14 -5 12 4 9 9 14 11 11 3
-2 0 -13 -6 -23z m-894 -30 c-3 -10 -5 -2 -5 17 0 19 2 27 5 18 2 -10 2 -26 0
-35z m2630 -20 c-2 -16 -4 -5 -4 22 0 28 2 40 4 28 2 -13 2 -35 0 -50z m-1777
-41 c0 -5 -7 -17 -15 -28 -14 -18 -14 -17 -4 9 12 27 19 34 19 19z m-863 -49
c-3 -10 -5 -2 -5 17 0 19 2 27 5 18 2 -10 2 -26 0 -35z m2630 -20 c-3 -10 -5
-2 -5 17 0 19 2 27 5 18 2 -10 2 -26 0 -35z m799 -69 c-25 -49 -45 -86 -45
-82 -1 11 83 178 87 174 2 -2 -17 -44 -42 -92z m-3438 -10 c-3 -27 -4 -26 -9
8 -3 22 -1 34 4 29 5 -5 7 -21 5 -37z m2629 -31 c-3 -10 -5 -2 -5 17 0 19 2
27 5 18 2 -10 2 -26 0 -35z m-1857 -31 c0 -5 -7 -17 -15 -28 -14 -18 -14 -17
-4 9 12 27 19 34 19 19z m-783 -49 c-3 -10 -5 -2 -5 17 0 19 2 27 5 18 2 -10
2 -26 0 -35z m2630 -25 c-2 -13 -4 -5 -4 17 -1 22 1 32 4 23 2 -10 2 -28 0
-40z m719 -64 c-25 -49 -45 -86 -45 -82 -1 11 83 178 87 174 2 -2 -17 -44 -42
-92z m-2615 39 c-12 -20 -14 -14 -5 12 4 9 9 14 11 11 3 -2 0 -13 -6 -23z
m-744 -65 c-2 -13 -4 -5 -4 17 -1 22 1 32 4 23 2 -10 2 -28 0 -40z m2630 -15
c-2 -16 -4 -5 -4 22 0 28 2 40 4 28 2 -13 2 -35 0 -50z m-1947 -51 c0 -5 -7
-17 -15 -28 -14 -18 -14 -17 -4 9 12 27 19 34 19 19z m1937 -69 c-2 -16 -4 -3
-4 27 0 30 2 43 4 28 2 -16 2 -40 0 -55z m-2630 20 c-3 -10 -5 -2 -5 17 0 19
2 27 5 18 2 -10 2 -26 0 -35z m3323 39 c0 -5 -7 -17 -15 -28 -14 -18 -14 -17
-4 9 12 27 19 34 19 19z m-74 -148 c-25 -49 -45 -86 -45 -82 -1 11 83 178 87
174 2 -2 -17 -44 -42 -92z m-2615 39 c-12 -20 -14 -14 -5 12 4 9 9 14 11 11 3
-2 0 -13 -6 -23z m-644 -55 c-2 -13 -4 -5 -4 17 -1 22 1 32 4 23 2 -10 2 -28
0 -40z m2630 -25 c-2 -16 -4 -3 -4 27 0 30 2 43 4 28 2 -16 2 -40 0 -55z
m-2640 -120 c-2 -16 -4 -3 -4 27 0 30 2 43 4 28 2 -16 2 -40 0 -55z m568 18
c-21 -43 -29 -39 -8 4 9 19 18 33 21 31 2 -2 -4 -18 -13 -35z m2062 -58 c-2
-16 -4 -3 -4 27 0 30 2 43 4 28 2 -16 2 -40 0 -55z m489 -112 c-42 -83 -78
-151 -81 -151 -3 0 30 70 72 155 43 85 79 153 81 151 2 -2 -31 -72 -72 -155z
m-3129 -43 c-2 -18 -4 -4 -4 32 0 36 2 50 4 33 2 -18 2 -48 0 -65z m499 55
c-8 -15 -15 -25 -16 -21 0 12 23 58 27 54 3 -2 -2 -17 -11 -33z m2131 -105
c-2 -24 -4 -5 -4 42 0 47 2 66 4 43 2 -24 2 -62 0 -85z m-2154 57 c-3 -9 -8
-14 -10 -11 -3 3 -2 9 2 15 9 16 15 13 8 -4z m2558 -148 c-10 -9 -11 -8 -5 6
3 10 9 15 12 12 3 -3 0 -11 -7 -18z m-11 -25 c0 -5 -7 -17 -15 -28 -14 -18
-14 -17 -4 9 12 27 19 34 19 19z m-3033 -39 c-3 -10 -5 -4 -5 12 0 17 2 24 5
18 2 -7 2 -21 0 -30z m2997 -25 c-19 -34 -78 -99 -97 -109 -14 -7 -10 -1 9 14
16 14 43 44 58 66 27 38 46 57 30 29z m-312 -111 c13 -10 16 -17 8 -14 -21 5
-60 65 -60 91 1 13 6 6 15 -19 8 -21 24 -48 37 -58z m-2342 79 c0 -2 -8 -10
-17 -17 -16 -13 -17 -12 -4 4 13 16 21 21 21 13z m-30 -40 c0 -3 -15 -14 -32
-26 l-33 -22 30 26 c31 27 35 29 35 22z m2505 -71 c6 -2 -10 -4 -35 -4 -25 0
-51 3 -59 8 -13 8 69 5 94 -4z m-2642 -2 c-13 -2 -33 -2 -45 0 -13 2 -3 4 22
4 25 0 35 -2 23 -4z"/>
<path d="M79810 78455 c-336 -49 -566 -160 -780 -374 -300 -300 -434 -661
-447 -1196 -9 -393 42 -676 173 -950 179 -377 505 -638 909 -729 205 -46 408
-54 645 -25 297 37 550 155 758 353 127 121 209 234 292 401 162 325 219 722
169 1185 -72 661 -474 1166 -1039 1301 -198 48 -489 62 -680 34z"/>
<path d="M114429 78455 c-339 -49 -589 -172 -803 -395 -239 -250 -374 -570
-417 -984 -17 -171 -7 -518 19 -667 46 -255 116 -445 229 -622 284 -445 728
-648 1345 -616 281 15 514 89 728 232 102 68 283 251 352 357 172 264 255 535
278 909 39 654 -153 1183 -545 1500 -257 208 -551 302 -945 300 -85 -1 -194
-7 -241 -14z"/>
<path d="M149665 78455 c-327 -47 -576 -165 -785 -375 -329 -328 -487 -847
-441 -1445 37 -481 173 -812 445 -1080 181 -180 339 -269 597 -338 140 -37
245 -49 434 -48 255 0 427 31 618 110 547 224 867 786 867 1526 0 453 -99 815
-300 1098 -77 106 -248 275 -350 341 -160 106 -364 180 -580 211 -127 18 -380
18 -505 0z"/>
<path d="M93816 78050 c-3 -8 -155 -469 -337 -1025 -182 -555 -334 -1016 -336
-1022 -4 -10 136 -13 681 -13 377 0 686 3 686 8 0 26 -689 2064 -694 2052z"/>
<path d="M123443 77833 c-39 -120 -188 -573 -331 -1008 -143 -434 -263 -800
-266 -812 l-7 -23 686 0 c546 0 686 3 683 13 -3 6 -158 470 -344 1030 -186
559 -341 1017 -344 1017 -3 0 -38 -98 -77 -217z"/>
<path d="M155850 77850 l0 -670 511 0 c476 0 518 1 612 21 202 40 344 140 421
293 59 117 71 179 71 361 -1 149 -3 166 -28 239 -35 98 -66 152 -129 221 -91
100 -239 172 -403 195 -38 5 -292 10 -562 10 l-493 0 0 -670z"/>
<path d="M180080 77881 l0 -702 458 4 c517 4 528 6 687 82 220 105 324 300
325 606 0 258 -81 454 -234 564 -80 57 -133 80 -254 112 -95 25 -107 25 -539
30 l-443 6 0 -702z"/>
<path d="M27620 63379 c-1064 -771 -2106 -1525 -2315 -1677 -788 -570 -2447
-1771 -2944 -2131 -284 -206 -1092 -791 -1796 -1301 -704 -510 -2049 -1484
-2990 -2165 -1569 -1137 -2421 -1754 -6195 -4486 -718 -520 -1333 -966 -1367
-991 -58 -42 -62 -46 -45 -60 9 -8 3795 -2712 8412 -6008 4617 -3297 9007
-6430 9755 -6965 748 -534 1375 -981 1393 -994 l32 -23 453 328 c936 678 3005
2180 3072 2230 70 52 1780 1292 2810 2039 303 219 966 701 1475 1070 509 369
1427 1035 2040 1480 613 445 1828 1326 2700 1959 872 632 1995 1447 2495 1810
1006 729 2790 2024 3323 2411 189 138 491 357 670 487 180 130 328 241 330
246 3 10 -75 68 -1633 1204 -539 393 -1109 809 -1266 924 -628 458 -1553 1134
-2499 1824 -547 399 -1395 1019 -1885 1376 -489 358 -1491 1088 -2225 1624
-734 535 -1909 1393 -2610 1905 -1706 1246 -3463 2529 -5190 3789 -784 571
-1566 1142 -1737 1268 -172 125 -316 228 -321 228 -4 0 -878 -631 -1942 -1401z"/>
<path d="M8882 38378 l3 -9281 640 -471 c353 -259 1095 -804 1650 -1212 556
-408 1714 -1258 2575 -1890 861 -633 2058 -1512 2660 -1954 602 -442 1568
-1151 2145 -1575 578 -424 1320 -969 1650 -1212 330 -242 1037 -761 1570
-1153 534 -392 1605 -1179 2380 -1749 776 -569 1968 -1445 2651 -1946 683
-502 1246 -915 1252 -919 9 -5 12 2321 12 9467 l0 9474 -1742 1245 c-959 684
-3838 2740 -6398 4568 -5315 3795 -9935 7093 -10598 7566 l-452 323 2 -9281z"/>
<path d="M49380 47147 c-377 -271 -1310 -943 -2075 -1493 -764 -550 -1946
-1400 -2625 -1889 -679 -489 -1788 -1287 -2465 -1774 -676 -486 -1864 -1341
-2640 -1899 -775 -558 -1432 -1031 -1460 -1052 -27 -21 -630 -455 -1340 -965
-1730 -1244 -3572 -2570 -4740 -3411 l-960 -691 -3 -9487 -2 -9488 37 30 c21
16 457 334 968 707 512 374 1562 1141 2335 1705 773 564 1918 1400 2545 1858
2996 2186 3702 2702 4920 3591 721 526 1883 1375 2584 1886 700 512 1575 1151
1945 1420 369 270 1337 976 2151 1569 814 594 1490 1088 1503 1099 l22 20 0
9379 c0 5158 -3 9378 -8 9378 -4 0 -315 -222 -692 -493z"/>
<path d="M167932 21126 c-160 -122 -356 -326 -594 -622 -190 -235 -247 -317
-392 -559 -43 -71 -96 -155 -117 -187 l-39 -56 77 -7 c524 -42 773 -233 774
-591 0 -143 -27 -248 -146 -564 -124 -330 -135 -530 -41 -724 46 -98 94 -149
174 -188 61 -30 74 -33 162 -33 80 1 105 5 160 28 193 82 327 221 596 623 167
249 279 398 363 477 140 134 238 140 429 27 l53 -31 -131 258 c-72 142 -152
299 -179 348 -26 50 -68 128 -93 175 -25 47 -54 101 -65 120 -31 55 -80 144
-106 192 -13 24 -33 60 -45 81 -32 54 -49 84 -152 267 -50 91 -96 170 -100
175 -4 6 -17 27 -29 48 -12 20 -31 54 -43 75 -12 20 -40 71 -63 112 -23 41
-57 100 -75 130 -34 58 -56 95 -91 158 -12 20 -26 43 -32 51 -6 7 -12 19 -13
27 -1 7 -11 26 -22 41 -11 15 -31 51 -46 78 -43 83 -72 129 -82 131 -5 2 -47
-25 -92 -60z"/>
<path d="M35849 99048 c-789 -567 -1722 -1238 -2074 -1491 -941 -678 -3090
-2224 -4540 -3268 -698 -503 -1799 -1295 -2445 -1760 -3037 -2185 -4095 -2947
-5229 -3763 -1912 -1377 -2315 -1667 -2814 -2026 l-466 -335 0 -9482 c-1
-5216 2 -9483 5 -9483 5 0 1047 758 2834 2064 1059 773 3952 2885 5700 4161
740 540 1863 1359 2495 1821 633 462 1717 1254 2410 1759 693 506 1868 1363
2610 1905 743 542 1711 1249 2152 1570 l802 585 0 9388 c1 5163 -1 9387 -3
9387 -2 0 -649 -464 -1437 -1032z"/>
<path d="M0 87982 l0 -9320 508 -373 c1922 -1413 7714 -5667 13437 -9869 655
-481 1223 -898 1263 -927 l72 -54 0 9478 0 9478 -1293 923 c-710 507 -1382
987 -1492 1065 -110 79 -1932 1380 -4050 2892 -2117 1512 -4878 3483 -6135
4380 -1257 897 -2291 1635 -2297 1639 -10 6 -13 -1859 -13 -9312z"/>
<path d="M8234 15777 c-71 -52 -570 -413 -1109 -803 -539 -391 -1243 -901
-1565 -1134 -1923 -1393 -3071 -2224 -3555 -2574 -302 -219 -551 -401 -552
-404 -2 -6 1006 -728 4902 -3509 693 -495 1428 -1020 1634 -1167 205 -147 379
-265 386 -262 7 2 176 123 376 268 363 263 525 380 2341 1699 535 388 1673
1213 2528 1834 855 620 1563 1134 1572 1143 17 14 15 17 -20 42 -41 30 -703
513 -2992 2184 -844 616 -1751 1277 -2015 1470 -264 192 -772 563 -1128 823
-357 261 -654 476 -661 479 -7 3 -71 -37 -142 -89z"/>
<path d="M1060 6547 l0 -3275 638 -468 c350 -258 1290 -948 2087 -1534 798
-587 1513 -1112 1589 -1168 l139 -102 1164 0 1163 0 0 2490 0 2489 -3357 2397
c-1847 1319 -3373 2409 -3390 2422 l-33 24 0 -3275z"/>
<path d="M15350 9623 c-337 -244 -782 -564 -3720 -2678 -641 -460 -1219 -877
-1285 -924 -66 -48 -416 -300 -777 -561 l-658 -473 0 -2493 0 -2494 1169 0
1169 0 743 543 c409 299 958 699 1219 889 261 191 824 601 1250 913 426 311
862 629 968 706 l192 141 0 3309 c0 1820 -3 3309 -7 3308 -5 0 -123 -84 -263
-186z"/>
<path d="M0 1453 l0 -1453 1852 0 c1579 0 1850 2 1838 14 -8 7 -328 243 -710
523 -1927 1413 -2789 2048 -2824 2081 -55 52 -102 129 -130 214 l-25 73 -1
-1452z"/>
</g>
</svg>
